#N canvas 403 167 397 350 10;
#X obj 145 221 line~;
#X obj 114 194 dbtorms;
#X obj 138 168 unpack;
#X obj 138 120 r \$1;
#X obj 145 246 outlet~;
#X text 22 31 \$1 is the name of the receive symbol.;
#X text 22 53 outlet is the level as a signal.;
#X text 21 11 control an amplitude in dB using linear segments.;
#X obj 138 143 t l b;
#X obj 187 168 30;
#X text 22 77 If no time value is given \, 30 is used.;
#X connect 0 0 4 0;
#X connect 1 0 0 0;
#X connect 2 0 1 0;
#X connect 2 1 0 1;
#X connect 3 0 8 0;
#X connect 8 0 2 0;
#X connect 8 1 9 0;
#X connect 9 0 0 1;
