#N canvas 175 240 468 439 10;
#X obj 72 298 line~;
#X obj 72 320 *~;
#X obj 72 342 *~;
#X obj 65 206 unpack;
#X obj 86 155 r \$1;
#X obj 72 367 outlet~;
#X text 36 47 \$1 is the name of the receive symbol.;
#X text 36 69 outlet is the level as a signal.;
#X obj 86 179 t l b;
#X text 35 27 control an amplitude using quartic segments.;
#X obj 147 165 f \$2;
#X obj 147 189 sel 0;
#X obj 147 141 loadbang;
#X obj 194 164 f \$3;
#X obj 194 190 sel 0;
#X text 32 90 If no time value is given \, \$2 (default 20) is used.
;
#X text 32 112 \$3 (default 10) is the output corresponding to 100
;
#X obj 118 274 20;
#X obj 40 235 * 0.0177;
#X obj 226 218 expr 0.01*exp(0.25*log($f1));
#X text 94 4 amp-quartic~ -- version 2;
#X connect 0 0 1 0;
#X connect 0 0 1 1;
#X connect 1 0 2 0;
#X connect 1 0 2 1;
#X connect 2 0 5 0;
#X connect 3 0 18 0;
#X connect 3 1 0 1;
#X connect 4 0 8 0;
#X connect 8 0 3 0;
#X connect 8 1 17 0;
#X connect 10 0 11 0;
#X connect 11 1 17 1;
#X connect 12 0 10 0;
#X connect 12 0 13 0;
#X connect 13 0 14 0;
#X connect 14 1 19 0;
#X connect 17 0 0 1;
#X connect 18 0 0 0;
#X connect 19 0 18 1;
