#N canvas 206 108 474 322 10;
#X obj 142 87 inlet~;
#X obj 315 166 cos~;
#X obj 351 144 +~ -0.25;
#X obj 351 166 cos~;
#X obj 225 87 inlet~;
#X obj 142 215 *~;
#X obj 225 216 *~;
#X obj 142 251 -~;
#X obj 142 283 outlet~;
#X obj 315 114 phasor~;
#X obj 204 283 outlet~;
#X obj 204 250 +~;
#X obj 315 88 inlet~;
#X connect 0 0 5 0;
#X connect 1 0 5 1;
#X connect 2 0 3 0;
#X connect 3 0 6 1;
#X connect 4 0 6 0;
#X connect 5 0 7 0;
#X connect 5 0 11 0;
#X connect 6 0 7 1;
#X connect 6 0 11 1;
#X connect 7 0 8 0;
#X connect 9 0 2 0;
#X connect 9 0 1 0;
#X connect 11 0 10 0;
#X connect 12 0 9 0;
