#N canvas 60 76 548 469 12;
#X obj 85 75 inlet;
#X obj 207 75 inlet;
#X obj 310 76 inlet;
#X obj 85 108 unpack 0 0 0;
#X obj 70 376 outlet;
#X obj 129 375 outlet;
#X text 73 23 This is for Max 0.26 compatibility -- strictly speaking \, we should be using ints \, though.;
#X obj 70 329 f;
#X obj 132 324 f;
#X obj 168 194 < \$1;
#X obj 213 196 > \$2;
#X obj 168 233 ||;
#X obj 86 139 t f f f;
#X obj 170 269 sel 0 1;
#X connect 0 0 3 0;
#X connect 1 0 9 1;
#X connect 2 0 10 1;
#X connect 3 0 12 0;
#X connect 3 1 9 1;
#X connect 3 2 10 1;
#X connect 7 0 4 0;
#X connect 8 0 5 0;
#X connect 9 0 11 0;
#X connect 10 0 11 1;
#X connect 11 0 13 0;
#X connect 12 0 9 0;
#X connect 12 1 10 0;
#X connect 12 2 7 1;
#X connect 12 2 8 1;
#X connect 13 0 7 0;
#X connect 13 1 8 0;
