#N canvas 489 -49 722 692 12;
#X msg 213 214 set 10000;
#X obj 17 126 sel 0 1;
#X obj 239 86 == \$1;
#X msg 46 333 0;
#X floatatom 239 108 0 0 0 0 - - -;
#X obj 86 333 i;
#X obj 133 333 + 1;
#X obj 338 220 i;
#X msg 17 381 stop;
#X obj 256 465 t f f;
#X msg 165 214 stop;
#X obj 256 494 -;
#X msg 296 594 rewind;
#X obj 296 498 sel 0;
#X msg 175 667 0;
#X obj 189 552 t b f b b;
#X msg 304 522 0;
#X msg 305 553 99999;
#X obj 229 662 unpack;
#X obj 98 524 del;
#X obj 229 637 pack;
#X obj 338 246 change;
#X text 371 219 event number;
#X obj 86 127 spigot;
#X obj 313 145 spigot;
#X obj 239 64 r section-number;
#X obj 313 110 r section-scofo;
#X obj 342 317 r section-scofo-tutti;
#X obj 344 269 s section-label;
#X msg 228 589 next;
#X obj 151 174 r section-reset;
#X obj 86 86 r section-step;
#X msg 149 381 followat \$1;
#X text 375 422 from scofo: index \, pitch \, key;
#X obj 461 447 unpack 0 0 0;
#X obj 565 142 moses 1;
#X obj 461 470 s section-note;
#X text 460 490 for display;
#X text 358 286 for display;
#X text 98 64 manual step;
#X text 329 89 pitch stream;
#X text 247 44 section number;
#X obj 350 341 r section-scofo-number;
#X obj 350 364 route \$1;
#X obj 321 649 route \$1;
#X obj 321 624 r section-qlist-number;
#X obj 397 389 r section-scofo-right-inlet;
#X obj 189 526 moses 0;
#X obj 130 641 moses 1;
#X obj 228 613 qlist;
#X obj 342 400 scofo;
#X obj 86 356 sel 0;
#X msg 86 381 follow;
#X text 281 403 score;
#X text 280 419 follower;
#X obj 86 283 spigot;
#X obj 86 308 t b;
#X text 465 117 key>0 advances event number;
#X obj 114 212 t b;
#X obj 165 239 del 200;
#X msg 114 258 0;
#X msg 151 262 1;
#X msg 98 498 stop;
#X obj 98 473 r section-reset;
#X text 170 153 reset;
#X text 190 4 SCORE FOLLOWER AND QLIST SEQUENCER;
#X connect 0 0 21 0;
#X connect 1 0 8 0;
#X connect 1 1 3 0;
#X connect 2 0 1 0;
#X connect 2 0 4 0;
#X connect 3 0 5 0;
#X connect 4 0 23 1;
#X connect 4 0 24 1;
#X connect 5 0 7 0;
#X connect 5 0 51 0;
#X connect 6 0 5 1;
#X connect 7 0 21 0;
#X connect 7 0 6 0;
#X connect 8 0 50 0;
#X connect 9 0 11 0;
#X connect 9 1 13 0;
#X connect 10 0 59 0;
#X connect 11 0 47 0;
#X connect 12 0 49 0;
#X connect 13 0 16 0;
#X connect 13 0 12 0;
#X connect 14 0 19 1;
#X connect 15 0 19 0;
#X connect 15 1 48 0;
#X connect 15 2 29 0;
#X connect 15 3 17 0;
#X connect 16 0 11 1;
#X connect 17 0 11 1;
#X connect 18 0 19 1;
#X connect 18 1 11 1;
#X connect 19 0 11 0;
#X connect 20 0 18 0;
#X connect 21 0 9 0;
#X connect 21 0 28 0;
#X connect 23 0 55 0;
#X connect 24 0 50 0;
#X connect 25 0 2 0;
#X connect 26 0 24 0;
#X connect 27 0 50 0;
#X connect 29 0 49 0;
#X connect 30 0 10 0;
#X connect 30 0 61 0;
#X connect 30 0 0 0;
#X connect 31 0 23 0;
#X connect 32 0 50 0;
#X connect 34 0 36 0;
#X connect 34 2 35 0;
#X connect 35 1 7 0;
#X connect 35 1 58 0;
#X connect 42 0 43 0;
#X connect 43 0 50 0;
#X connect 44 0 49 0;
#X connect 45 0 44 0;
#X connect 46 0 50 1;
#X connect 47 1 15 0;
#X connect 48 1 14 0;
#X connect 49 0 20 0;
#X connect 50 1 34 0;
#X connect 51 0 52 0;
#X connect 51 1 32 0;
#X connect 52 0 50 0;
#X connect 55 0 56 0;
#X connect 56 0 5 0;
#X connect 58 0 59 0;
#X connect 58 0 60 0;
#X connect 59 0 61 0;
#X connect 60 0 55 1;
#X connect 61 0 55 1;
#X connect 62 0 19 0;
#X connect 63 0 62 0;
