#N canvas 0 0 356 333 12;
#X obj 273 93 inlet;
#X obj 189 97 inlet;
#X obj 63 137 spigot;
#X floatatom 124 138 0 0 0;
#X obj 87 34 loadbang;
#X msg 87 73 1;
#X msg 51 74 0;
#X obj 202 151 delay \$1;
#X obj 165 191 f;
#X obj 60 169 t b;
#X obj 104 261 outlet;
#X connect 0 0 7 1;
#X connect 1 0 2 0;
#X connect 1 0 8 1;
#X connect 2 0 9 0;
#X connect 2 0 10 0;
#X connect 3 0 2 1;
#X connect 4 0 5 0;
#X connect 5 0 3 0;
#X connect 6 0 3 0;
#X connect 7 0 8 0;
#X connect 7 0 5 0;
#X connect 8 0 10 0;
#X connect 9 0 6 0;
#X connect 9 0 7 0;
