#N canvas 440 22 716 535 10;
#X declare -path ./lib -path ./lib/samplor -path ./snd -path .;
#N canvas 184 410 545 401 reset 0;
#X obj 24 101 r reset;
#X obj 26 48 s section-start;
#X msg 26 25 1;
#X obj 26 2 inlet;
#X obj 92 100 loadbang;
#N canvas 613 137 413 524 qlist_CTL 0;
#X obj 117 410 r print;
#X obj 117 438 print ----;
#X obj 167 127 t f f;
#X obj 167 156 -;
#X msg 207 256 rewind;
#X obj 207 160 sel 0;
#X msg 86 329 0;
#X obj 100 214 t b f b b;
#X msg 215 184 0;
#X msg 216 215 99999;
#X obj 140 324 unpack;
#X obj 9 186 del;
#X obj 140 299 pack;
#X msg 139 251 next;
#X obj 232 286 r section-qlist-number;
#X obj 100 188 moses 0;
#X obj 41 303 moses 1;
#X obj 139 275 qlist;
#X msg 9 160 stop;
#X obj 9 135 r section-reset;
#X floatatom 167 103 5 0 0 0 - - -, f 5;
#X obj 232 311 route 1;
#X obj 118 461 r comment;
#X obj 97 428 bng 15 250 50 0 empty empty empty 17 7 0 10 -262144 -1
-1;
#X msg 167 78 0;
#X obj 167 29 r section-start;
#X obj 167 53 sel 1;
#X connect 0 0 1 0;
#X connect 2 0 3 0;
#X connect 2 1 5 0;
#X connect 3 0 15 0;
#X connect 4 0 17 0;
#X connect 5 0 8 0;
#X connect 5 0 4 0;
#X connect 6 0 11 1;
#X connect 7 0 11 0;
#X connect 7 1 16 0;
#X connect 7 2 13 0;
#X connect 7 3 9 0;
#X connect 8 0 3 1;
#X connect 9 0 3 1;
#X connect 10 0 11 1;
#X connect 10 1 3 1;
#X connect 11 0 3 0;
#X connect 12 0 10 0;
#X connect 13 0 17 0;
#X connect 14 0 21 0;
#X connect 15 1 7 0;
#X connect 16 1 6 0;
#X connect 17 0 12 0;
#X connect 18 0 11 0;
#X connect 19 0 18 0;
#X connect 20 0 2 0;
#X connect 21 0 17 0;
#X connect 23 0 1 0;
#X connect 24 0 20 0;
#X connect 25 0 26 0;
#X connect 26 0 24 0;
#X restore 23 184 pd qlist_CTL;
#X msg 25 123 \; section-qlist-number 1 read mantraqlist.txt \; pd
dsp 1;
#X connect 0 0 6 0;
#X connect 2 0 1 0;
#X connect 3 0 2 0;
#X connect 4 0 6 0;
#X restore 18 240 pd reset;
#X floatatom 510 278 5 0 0 0 ring_R-pitch ring_R-pitch-set ring_R-pitch
, f 5;
#N canvas 612 123 961 1056 audio-works 0;
#X obj 158 271 hilbert~;
#X obj 346 194 * 0.25;
#X obj 346 216 mtof;
#X obj 365 273 line~;
#X obj 349 302 *~;
#X obj 349 324 *~;
#X obj 346 250 * 0.206825;
#X obj 157 379 *~;
#X obj 236 385 *~;
#X obj 359 145 unpack;
#X obj 157 297 complex-mod~;
#X obj 160 684 hilbert~;
#X obj 339 567 * 0.25;
#X obj 339 589 mtof;
#X obj 342 645 line~;
#X obj 344 685 *~;
#X obj 344 707 *~;
#X obj 339 621 * 0.206825;
#X obj 161 759 *~;
#X obj 240 765 *~;
#X obj 341 517 unpack;
#X obj 160 715 complex-mod~;
#X obj 201 427 *~;
#X obj 142 789 *~;
#X obj 27 378 amp-linear~ tgp~;
#X floatatom 198 130 5 0 0 0 - - -, f 5;
#X obj 199 157 ftom;
#X floatatom 199 179 5 0 0 0 - - -, f 5;
#X obj 199 198 - 69;
#X obj 199 89 r tuning;
#X obj 340 543 + 0;
#X obj 354 170 + 0;
#X msg 198 110 \$1;
#X text 656 177 simple multiplication;
#X text 167 47 hilbert base frequency shifter;
#X obj 722 257 line~;
#X obj 720 227 mtof;
#X obj 724 285 osc~;
#X obj 724 313 *~;
#X obj 591 336 amp-quartic~ ring0;
#X obj 711 399 *~;
#X obj 673 422 *~;
#X obj 652 489 +~;
#N canvas 28 197 709 758 filter 0;
#X obj 46 457 inlet;
#X text 44 438 bypass;
#X obj 121 501 biquad~;
#X obj 188 234 filterview;
#X msg 364 182 highshelf;
#X msg 191 182 allpass;
#X msg 244 182 bandpass;
#X msg 304 182 highpass;
#X msg 430 182 lowpass;
#X msg 484 182 lowshelf;
#X msg 545 182 notch;
#X msg 587 182 peaking;
#X msg 641 182 resonant;
#X text 172 158 choose a filter type:;
#X floatatom 121 73 0 0 0 0 - - -;
#X floatatom 202 70 0 0 0 0 - - -;
#X obj 202 93 trigger bang float;
#X obj 18 554 outlet~;
#X obj 17 417 inlet~;
#X obj 121 130 ggee/highpass;
#X text 53 71 frequency;
#X text 228 67 bandwidth;
#X obj 18 484 slm.bypass;
#X obj 18 528 +~;
#X msg 60 35 200;
#X obj 53 13 loadbang;
#X obj 121 18 r highpass_R-freq;
#X obj 202 40 r highpass_R-bw;
#X msg 410 34 \; highpass_R-bw 20 \; highpass_R-freq 200 \;;
#X obj 123 572 *~ 0;
#X obj 157 542 == 0;
#X connect 0 0 22 1;
#X connect 0 0 30 0;
#X connect 2 0 29 0;
#X connect 3 0 2 0;
#X connect 4 0 3 0;
#X connect 5 0 3 0;
#X connect 6 0 3 0;
#X connect 7 0 3 0;
#X connect 8 0 3 0;
#X connect 9 0 3 0;
#X connect 10 0 3 0;
#X connect 11 0 3 0;
#X connect 12 0 3 0;
#X connect 14 0 19 0;
#X connect 15 0 16 0;
#X connect 16 0 14 0;
#X connect 16 1 19 1;
#X connect 18 0 22 0;
#X connect 19 0 2 0;
#X connect 22 0 23 0;
#X connect 22 1 2 0;
#X connect 23 0 17 0;
#X connect 24 0 14 0;
#X connect 25 0 24 0;
#X connect 26 0 14 0;
#X connect 27 0 15 0;
#X connect 29 0 23 1;
#X connect 30 0 29 1;
#X restore 652 532 pd filter;
#X obj 702 506 tgl 15 0 empty empty empty 17 7 0 10 -262144 -1 -1 1
1;
#N canvas 699 405 631 422 compresseur 0;
#X obj 186 275 limiter~;
#X obj 118 306 *~;
#X msg 280 178 print;
#X obj 293 207 loadbang;
#X msg 263 46 ratio 0.5;
#X msg 263 87 set 110 40 150;
#X msg 263 66 treshold 75;
#X obj 92 274 z~ 32;
#X msg 263 108 set 110 5 5;
#X msg 263 148 compress 96 50 0.25;
#X obj 15 186 inlet~;
#X obj 16 353 outlet~;
#X obj 14 241 slm.bypass;
#X obj 15 329 +~;
#X msg 262 29 limit 90;
#X msg 240 238 COMPRESS \, compress 95 80 0.5 \, set 95 100 150;
#X obj 70 212 r compressor_R-bypass;
#X connect 0 0 1 1;
#X connect 1 0 13 1;
#X connect 2 0 0 0;
#X connect 3 0 15 0;
#X connect 4 0 0 0;
#X connect 5 0 0 0;
#X connect 6 0 0 0;
#X connect 7 0 1 0;
#X connect 8 0 0 0;
#X connect 9 0 0 0;
#X connect 10 0 12 0;
#X connect 12 0 13 0;
#X connect 12 1 7 0;
#X connect 12 1 0 0;
#X connect 13 0 11 0;
#X connect 14 0 0 0;
#X connect 15 0 0 0;
#X connect 16 0 12 1;
#X restore 652 561 pd compresseur;
#N canvas 175 153 709 758 filter 0;
#X obj 46 457 inlet;
#X text 44 438 bypass;
#X obj 121 501 biquad~;
#X obj 188 234 filterview;
#X msg 364 182 highshelf;
#X msg 191 182 allpass;
#X msg 244 182 bandpass;
#X msg 304 182 highpass;
#X msg 430 182 lowpass;
#X msg 484 182 lowshelf;
#X msg 545 182 notch;
#X msg 587 182 peaking;
#X msg 641 182 resonant;
#X text 172 158 choose a filter type:;
#X floatatom 121 73 0 0 0 0 - - -;
#X floatatom 202 70 0 0 0 0 - - -;
#X obj 202 93 trigger bang float;
#X obj 18 589 outlet~;
#X obj 17 417 inlet~;
#X obj 121 130 ggee/highpass;
#X text 53 71 frequency;
#X text 228 67 bandwidth;
#X obj 18 484 slm.bypass;
#X obj 18 563 +~;
#X msg 60 35 200;
#X obj 53 13 loadbang;
#X obj 121 18 r highpass_L-freq;
#X obj 202 40 r highpass_L-bw;
#X msg 410 34 \; highpass_L-bw 20 \; highpass_L-freq 200 \;;
#X obj 60 548 *~ 0;
#X obj 94 515 == 0;
#X obj 212 626 print~;
#X obj 209 569 bng 15 250 50 0 empty empty empty 17 7 0 10 -262144
-1 -1;
#X obj 271 593 print~;
#X obj 268 536 bng 15 250 50 0 empty empty empty 17 7 0 10 -262144
-1 -1;
#X connect 0 0 22 1;
#X connect 0 0 30 0;
#X connect 2 0 29 0;
#X connect 3 0 2 0;
#X connect 4 0 3 0;
#X connect 5 0 3 0;
#X connect 6 0 3 0;
#X connect 7 0 3 0;
#X connect 8 0 3 0;
#X connect 9 0 3 0;
#X connect 10 0 3 0;
#X connect 11 0 3 0;
#X connect 12 0 3 0;
#X connect 14 0 19 0;
#X connect 15 0 16 0;
#X connect 16 0 14 0;
#X connect 16 1 19 1;
#X connect 18 0 22 0;
#X connect 18 0 33 0;
#X connect 19 0 2 0;
#X connect 22 0 23 0;
#X connect 22 0 31 0;
#X connect 22 1 2 0;
#X connect 23 0 17 0;
#X connect 24 0 14 0;
#X connect 25 0 24 0;
#X connect 26 0 14 0;
#X connect 27 0 15 0;
#X connect 29 0 23 1;
#X connect 30 0 29 1;
#X connect 32 0 31 0;
#X connect 34 0 33 0;
#X restore 231 860 pd filter;
#X obj 282 834 tgl 15 0 empty empty empty 17 7 0 10 -262144 -1 -1 1
1;
#N canvas 757 525 707 463 compresseur 0;
#X obj 186 275 limiter~;
#X obj 118 306 *~;
#X msg 280 178 print;
#X obj 293 207 loadbang;
#X msg 263 46 ratio 0.5;
#X msg 263 87 set 110 40 150;
#X msg 263 66 treshold 75;
#X obj 92 274 z~ 32;
#X msg 263 108 set 110 5 5;
#X msg 263 148 compress 96 50 0.25;
#X obj 15 186 inlet~;
#X obj 16 353 outlet~;
#X obj 14 241 slm.bypass;
#X obj 15 329 +~;
#X msg 262 29 limit 90;
#X msg 240 238 COMPRESS \, compress 95 80 0.5 \, set 95 100 150;
#X obj 70 212 r compressor_L-bypass;
#X connect 0 0 1 1;
#X connect 1 0 13 1;
#X connect 2 0 0 0;
#X connect 3 0 15 0;
#X connect 4 0 0 0;
#X connect 5 0 0 0;
#X connect 6 0 0 0;
#X connect 7 0 1 0;
#X connect 8 0 0 0;
#X connect 9 0 0 0;
#X connect 10 0 12 0;
#X connect 12 0 13 0;
#X connect 12 1 7 0;
#X connect 12 1 0 0;
#X connect 13 0 11 0;
#X connect 14 0 0 0;
#X connect 15 0 0 0;
#X connect 16 0 12 1;
#X restore 231 889 pd compresseur;
#X obj 359 123 r ring_R-pitch;
#X obj 158 246 r~ input-signal_R;
#X obj 354 358 amp-quartic~ ring_R-plus;
#X obj 279 386 amp-quartic~ ring_R-minus;
#X obj 341 494 r ring_L-pitch;
#X obj 160 658 r~ input-signal_L;
#X obj 275 741 amp-quartic~ ring_L-plus;
#X obj 277 767 amp-quartic~ ring_L-minus;
#X obj 702 481 r filter_R-bypass;
#X obj 671 614 send-vu vu-out_R meters;
#X obj 282 809 r filter_L-bypass;
#X obj 258 945 send-vu vu-out_L meters;
#X text 619 643 2=RIGHT;
#X text 178 967 1=LEFT;
#X obj 182 943 dac~ 1;
#X obj 622 615 dac~ 2;
#X connect 0 0 10 0;
#X connect 0 1 10 1;
#X connect 1 0 2 0;
#X connect 2 0 6 0;
#X connect 3 0 4 0;
#X connect 3 0 4 1;
#X connect 4 0 5 0;
#X connect 4 0 5 1;
#X connect 5 0 10 2;
#X connect 6 0 3 0;
#X connect 7 0 22 1;
#X connect 8 0 22 1;
#X connect 9 0 31 0;
#X connect 9 1 3 1;
#X connect 9 1 35 1;
#X connect 10 0 7 0;
#X connect 10 1 8 0;
#X connect 11 0 21 0;
#X connect 11 1 21 1;
#X connect 12 0 13 0;
#X connect 13 0 17 0;
#X connect 14 0 15 0;
#X connect 14 0 15 1;
#X connect 15 0 16 0;
#X connect 15 0 16 1;
#X connect 16 0 21 2;
#X connect 17 0 14 0;
#X connect 18 0 23 1;
#X connect 19 0 23 1;
#X connect 20 0 30 0;
#X connect 20 1 14 1;
#X connect 21 0 18 0;
#X connect 21 1 19 0;
#X connect 22 0 42 0;
#X connect 23 0 46 0;
#X connect 23 0 63 0;
#X connect 24 0 23 0;
#X connect 24 0 22 0;
#X connect 24 0 41 0;
#X connect 25 0 26 0;
#X connect 26 0 27 0;
#X connect 27 0 28 0;
#X connect 28 0 30 1;
#X connect 28 0 31 1;
#X connect 29 0 32 0;
#X connect 30 0 12 0;
#X connect 31 0 1 0;
#X connect 31 0 36 0;
#X connect 32 0 25 0;
#X connect 35 0 37 0;
#X connect 36 0 35 0;
#X connect 37 0 38 0;
#X connect 38 0 40 1;
#X connect 39 0 40 0;
#X connect 40 0 41 1;
#X connect 41 0 42 1;
#X connect 42 0 43 0;
#X connect 42 0 64 0;
#X connect 43 0 45 0;
#X connect 44 0 43 1;
#X connect 45 0 58 0;
#X connect 46 0 48 0;
#X connect 47 0 46 1;
#X connect 48 0 60 0;
#X connect 49 0 9 0;
#X connect 50 0 0 0;
#X connect 50 0 38 1;
#X connect 51 0 7 1;
#X connect 52 0 8 1;
#X connect 53 0 20 0;
#X connect 54 0 11 0;
#X connect 55 0 18 1;
#X connect 56 0 19 1;
#X connect 57 0 44 0;
#X connect 59 0 47 0;
#X restore 202 199 pd audio-works;
#N canvas 845 321 924 344 tests 0;
#X obj 27 58 inlet;
#X obj 153 52 inlet;
#X obj 27 84 != 0;
#X obj 27 110 * 0.03;
#X obj 153 79 != 0;
#X obj 153 106 * 0.03;
#X floatatom 265 53 5 0 0 0 - - -, f 5;
#X obj 265 78 s testtone-1;
#X obj 492 114 openpanel;
#X obj 492 90 bng 20 250 50 0 empty empty empty 0 -6 0 8 -262144 -1
-1;
#X obj 492 135 symbol;
#X msg 490 161 open \$1;
#X obj 454 178 tgl 15 0 empty empty empty 17 7 0 10 -262144 -1 -1 0
1;
#X obj 490 186 readsf~;
#X obj 587 150 print;
#X msg 477 27 open /Users/concert/Music/concerts/_Mantra/mantra2015/mantra-pd/snd/KS5.wav
\, 1;
#X obj 27 134 throw~ adc_R-addin;
#X obj 153 133 throw~ adc_L-addin;
#X obj 490 211 throw~ adc_R-addin;
#X obj 66 59 r test_R;
#X obj 193 52 r test_L;
#X connect 0 0 2 0;
#X connect 1 0 4 0;
#X connect 2 0 3 0;
#X connect 3 0 16 0;
#X connect 4 0 5 0;
#X connect 5 0 17 0;
#X connect 6 0 7 0;
#X connect 8 0 10 0;
#X connect 9 0 8 0;
#X connect 10 0 11 0;
#X connect 11 0 13 0;
#X connect 11 0 14 0;
#X connect 12 0 13 0;
#X connect 13 0 18 0;
#X connect 15 0 13 0;
#X connect 19 0 2 0;
#X connect 20 0 4 0;
#X restore 23 411 pd tests;
#X obj 517 74 vu 15 120 vu-out_R empty -1 -8 0 8 -66577 -1 0 0;
#X obj 564 76 vu 15 120 vu-out_L empty -1 -8 0 8 -66577 -1 0 0;
#X obj 23 389 tgl 15 0 empty empty empty 0 -6 0 8 -262144 -1 -1 0 1
;
#X obj 74 390 tgl 15 0 empty empty empty 0 -6 0 8 -262144 -1 -1 0 1
;
#X text 230 16 MANTRA;
#N canvas 1053 198 751 366 controls 0;
#X obj 371 18 r sl1_snd;
#X obj 336 79 ftom;
#X obj 464 40 mtof;
#X msg 465 62 set \$1;
#X obj 464 82 s sl1_rcv;
#X obj 347 209 ftom;
#X obj 472 162 mtof;
#X msg 473 184 set \$1;
#X obj 370 154 r sl2_snd;
#X obj 472 204 s sl2_rcv;
#X obj 170 18 setline ring_R-pitch;
#X obj 168 41 setline ring_R-plus;
#X obj 168 63 setline ring_R-minus;
#X obj 471 140 r ring_R-pitch;
#X obj 346 229 s ring_R-pitch;
#X obj 17 16 setline ring_L-pitch;
#X obj 17 40 setline ring_L-plus;
#X obj 17 64 setline ring_L-minus;
#X obj 336 101 s ring_L-pitch;
#X obj 463 18 r ring_L-pitch;
#X obj 177 158 setline highpass_R-freq;
#X obj 176 182 setline highpass_R-bw;
#X obj 176 203 setctl filter_R-bypass;
#X obj 17 158 setline highpass_L-freq;
#X obj 16 182 setline highpass_L-bw;
#X obj 16 203 setctl filter_L-bypass;
#X obj 16 88 setline ring_L-freq;
#X obj 167 87 setline ring_R-freq;
#X obj 371 59 s ring_L-freq;
#X obj 370 185 s ring_L-freq;
#X connect 0 0 1 0;
#X connect 0 0 28 0;
#X connect 1 0 18 0;
#X connect 2 0 3 0;
#X connect 3 0 4 0;
#X connect 5 0 14 0;
#X connect 6 0 7 0;
#X connect 7 0 9 0;
#X connect 8 0 5 0;
#X connect 8 0 29 0;
#X connect 13 0 6 0;
#X connect 19 0 2 0;
#X restore 527 497 pd controls;
#X floatatom 519 330 3 0 120 0 ring_R-plus ring_R-plus-set ring_R-plus
, f 3;
#X floatatom 519 349 3 0 120 0 ring_R-minus ring_R-minus-set ring_R-minus
, f 3;
#X floatatom 660 280 5 0 0 0 ring_L-pitch ring_L-pitch-set ring_L-pitch
, f 5;
#X floatatom 670 325 3 0 120 0 ring_L-plus ring_L-plus-set ring_L-plus
, f 3;
#X floatatom 670 344 3 0 120 0 ring_L-minus ring_L-minus-set ring_L-minus
, f 3;
#X obj 382 76 vu 15 120 vu-in_R empty -1 -8 0 8 -66577 -1 0 0;
#X obj 430 76 vu 15 120 vu-in_L empty -1 -8 0 8 -66577 -1 0 0;
#X text 381 55 --input--;
#X text 399 90 -90-;
#X text 399 117 -85-;
#X text 399 132 -80-;
#X text 399 148 -70-;
#X text 399 168 -50-;
#X text 533 90 -90-;
#X text 533 117 -85-;
#X text 533 132 -80-;
#X text 533 148 -70-;
#X text 533 168 -50-;
#X text 547 51 -output-;
#N canvas 654 401 712 447 readsf 1;
#X obj 287 211 vsl 15 101 0 100 0 0 empty empty empty 0 -8 0 8 -262144
-1 -1 0 1;
#X floatatom 285 331 5 0 0 0 - - -, f 5;
#X obj 10 162 openpanel;
#X obj 10 138 bng 20 250 50 0 empty empty empty 0 -6 0 8 -262144 -1
-1;
#X obj 77 240 symbol;
#X floatatom 79 340 5 0 0 0 - - -, f 5;
#X symbolatom 77 259 25 0 0 0 - - -, f 25;
#X obj 84 156 bng 20 250 50 0 empty empty empty 0 -6 0 8 -262144 -1
-1;
#X text 72 136 restart;
#X floatatom 116 291 5 0 0 0 - - -, f 5;
#X text 116 274 start point;
#X obj 38 264 bng 20 250 50 0 empty empty empty 0 -6 0 8 -262144 -1
-1;
#X text 38 247 stop;
#X obj 79 190 r sfreader-play;
#X obj 421 58 tgl 15 0 empty empty empty 17 7 0 10 -262144 -1 -1 0
1;
#N canvas 1 31 392 313 loop 0;
#X obj 86 23 inlet;
#X obj 187 103 spigot;
#X obj 88 98 sel 0 1;
#X obj 145 220 s sfreader-play;
#X obj 145 194 b;
#X obj 41 223 s stop-disk;
#X obj 217 47 r readsf-sf-done;
#X obj 214 73 del 200;
#X connect 0 0 2 0;
#X connect 0 0 1 1;
#X connect 1 0 4 0;
#X connect 2 1 4 0;
#X connect 4 0 3 0;
#X connect 6 0 7 0;
#X connect 7 0 1 0;
#X restore 420 78 pd loop;
#X text 288 354 direct;
#X obj 422 27 r sfreader-loop;
#X obj 372 229 r test-loop-1;
#X obj 372 253 sel 1 0;
#X msg 403 285 \; sfreader-loop 0 \; stop-disk bang;
#N canvas 1006 23 720 477 sfplay-works 1;
#X obj 69 42 inlet;
#X obj 268 160 r reset;
#X msg 268 207 0;
#X obj 464 171 line~;
#X obj 447 296 *~;
#X obj 464 121 dbtorms;
#X obj 208 298 metro 1000;
#X obj 208 323 f;
#X obj 240 319 + 1;
#X obj 164 176 samplerate~;
#X obj 136 176 *;
#X obj 98 125 f;
#X msg 108 292 0;
#X obj 51 186 pack s 0;
#X msg 138 292 1;
#X text 297 210 stop;
#X obj 216 85 inlet;
#X obj 208 350 outlet;
#X obj 366 97 inlet;
#X obj 463 96 inlet;
#X obj 81 82 symbol;
#X obj 85 61 r restart-disk;
#X obj 253 138 r stop-disk;
#X obj 358 77 r disk-start-point;
#X obj 571 279 switch~;
#X obj 571 259 tgl 15 0 empty empty empty 0 -6 0 8 -262144 -1 -1 1
1;
#X msg 567 231 1;
#X obj 81 102 t s b b b;
#X obj 607 208 r disk-pause;
#X obj 607 231 == 0;
#X obj 141 23 bng 15 250 50 0 empty empty empty 0 -6 0 8 -262144 -1
-1;
#X obj 116 230 del 200;
#X obj 118 206 t b;
#X obj 117 249 1;
#X obj 58 337 s readsf-sf-done;
#X msg 293 264 1;
#X msg 28 232 open \$1 \$2;
#X obj 136 151 + 0;
#X obj 12 296 readsf~ 2;
#X obj 329 435 dac~ 1 3;
#X obj 390 390 *~ 12;
#X obj 404 430 send-vu vu-out_KW meters;
#X text 532 145 WAS 30 \, SET TO 10;
#X obj 464 146 pack 0 10;
#X connect 0 0 20 0;
#X connect 1 0 2 0;
#X connect 2 0 6 0;
#X connect 2 0 38 0;
#X connect 3 0 4 1;
#X connect 4 0 40 0;
#X connect 5 0 43 0;
#X connect 6 0 7 0;
#X connect 7 0 8 0;
#X connect 7 0 17 0;
#X connect 8 0 7 1;
#X connect 9 0 10 1;
#X connect 10 0 13 1;
#X connect 11 0 7 1;
#X connect 11 0 37 0;
#X connect 12 0 6 0;
#X connect 13 0 36 0;
#X connect 13 0 14 0;
#X connect 13 0 32 0;
#X connect 14 0 6 0;
#X connect 16 0 2 0;
#X connect 18 0 11 1;
#X connect 19 0 5 0;
#X connect 20 0 27 0;
#X connect 21 0 20 0;
#X connect 22 0 2 0;
#X connect 23 0 11 1;
#X connect 25 0 24 0;
#X connect 26 0 25 0;
#X connect 27 0 13 0;
#X connect 27 1 11 0;
#X connect 27 2 9 0;
#X connect 27 3 26 0;
#X connect 28 0 29 0;
#X connect 29 0 25 0;
#X connect 30 0 20 0;
#X connect 31 0 33 0;
#X connect 32 0 31 0;
#X connect 33 0 38 0;
#X connect 35 0 38 0;
#X connect 36 0 38 0;
#X connect 37 0 10 0;
#X connect 38 0 4 0;
#X connect 38 2 34 0;
#X connect 38 2 12 0;
#X connect 40 0 39 1;
#X connect 40 0 41 0;
#X connect 43 0 3 0;
#X restore 82 313 pd sfplay-works;
#X obj 286 155 loadbang;
#X msg 285 183 95;
#X obj 319 184 r sfplay_level;
#X msg 375 341 \; sfreader-loop 1 \; sfreader-play ./snd/KurzwellMantraOfficieel.wav
;
#X obj 42 10 r sfplay_;
#X obj 39 42 sel 1 0;
#X obj 6 13 tgl 15 0 empty empty empty 17 7 0 10 -262144 -1 -1 0 1
;
#X msg 100 31 \; sfreader-play ./snd/KurzwellMantraOfficieel.wav;
#X msg 10 83 \; sfreader-play ./snd/KurzwellMantraRemixSerge.aif;
#X obj 192 125 inlet;
#X connect 0 0 1 0;
#X connect 1 0 21 3;
#X connect 2 0 4 0;
#X connect 3 0 2 0;
#X connect 4 0 6 0;
#X connect 6 0 21 0;
#X connect 7 0 4 0;
#X connect 9 0 21 2;
#X connect 11 0 21 1;
#X connect 13 0 4 0;
#X connect 14 0 15 0;
#X connect 17 0 14 0;
#X connect 18 0 19 0;
#X connect 19 0 25 0;
#X connect 19 1 20 0;
#X connect 21 0 5 0;
#X connect 22 0 23 0;
#X connect 23 0 0 0;
#X connect 24 0 0 0;
#X connect 26 0 27 0;
#X connect 27 0 30 0;
#X connect 27 1 11 0;
#X connect 28 0 27 0;
#X connect 31 0 27 0;
#X restore 307 280 pd readsf;
#N canvas 732 23 1268 772 samplor 0;
#X obj 241 450 loadbang;
#N canvas 105 410 1335 490 keygroupSyntax 0;
#X msg 179 143 1 D#0_F.mo 27 20 29 1 127 \, 2 G#0_F2.mo 32 30 34 1
127 \, 3 C#1.mo 37 35 39 1 127 \, 4 F1.mo 41 40 43 1 127 \, 5 C2.mo
48 44 50 1 127 \, 6 G2.mo 55 51 57 1 127 \, 7 C3.mo 60.1 58 62 1 127
\, 8 F#3.mo 66 63 68 1 127 \, 9 C4.mo 72 69 74 1 127 \, 10 F4.mo 77
75 79 1 127 \, 11 B4.mo 83 80 85 1 127 \, 12 F5.mo 89 86 89 1 127 \,
13 G5.mo 91 90 93 1 127 \, 14 B5.mo 95 94 97 1 127 \, 15 F6.mo 101
98 120 1 127;
#X msg 105 109 1 test2 60 48 72 65 127 100 222;
#X msg 49 73 1 test1 60 48 72 1 64 100 222;
#X obj 100 256 outlet;
#X text 67 27 <Channel soundname pitch minpitch maxpitch minvel maxvel
starttime endtime>;
#X connect 0 0 3 0;
#X connect 1 0 3 0;
#X connect 2 0 3 0;
#X restore 158 181 pd keygroupSyntax;
#X obj 51 283 tgl 15 0 empty empty empty 17 7 0 10 -262144 -1 -1 0
1;
#X floatatom 294 179 0 0 0 0 - - -;
#X msg 61 170 clear;
#X obj 219 351 samplork;
#X obj 39 212 tgl 15 0 empty empty empty 17 7 0 10 -262144 -1 -1 0
1;
#X msg 60 213 debug \$1;
#X msg 45 333 exportastext;
#N canvas 267 22 427 524 importMachFivePresets 0;
#X obj 8 481 outlet;
#X obj 99 479 outlet;
#X obj 8 29 bng 15 250 50 0 empty empty empty 17 7 0 10 -262144 -1
-1;
#X obj 8 6 loadbang;
#X msg 40 365 import \$1;
#X obj 40 139 unpack s 0;
#X msg 40 80 ConcertGrndPnoClassical 1 \, Hp-ord.fxp 2 \, crotales
3 \, pacman 4 \, trombone 5 \, trompette 6 \, cor 7 \, pizzharpe 8
\, TubularBells 9;
#X obj 40 164 pack symbol s;
#X obj 8 48 t b b b;
#X msg 35 439 clear;
#X obj 75 200 ggee/getdir;
#X msg 75 250 set \$1;
#X obj 40 312 makefilename x;
#X obj 75 227 makefilename %s/lib/samplor/%%s.M5p;
#X connect 2 0 8 0;
#X connect 3 0 2 0;
#X connect 4 0 0 0;
#X connect 5 0 7 0;
#X connect 5 1 1 0;
#X connect 6 0 5 0;
#X connect 7 0 12 0;
#X connect 8 0 0 0;
#X connect 8 1 6 0;
#X connect 8 2 10 0;
#X connect 9 0 0 0;
#X connect 10 0 13 0;
#X connect 11 0 12 0;
#X connect 12 0 4 0;
#X connect 13 0 11 0;
#X restore 128 146 pd importMachFivePresets;
#X text 288 134 channel;
#X text 383 -27 pitch - vel - dur - onset -rise - decay- sample;
#X obj 732 211 r samp-note;
#X obj 768 290 mtof;
#X obj 767 313 / 261.6;
#X obj 869 317 / 127;
#X msg 387 1 \; samp-note 64 150 8000 0 10 50 pacman-a-1.aif;
#X obj 732 237 unpack 60 100 1000 0 10 50 s;
#X obj 732 357 pack 0 s 100 1000 0 10;
#X obj 732 263 t b f;
#X obj 732 381 s samplor_;
#X obj 145 408 r samplor_;
#X floatatom 29 91 5 0 0 0 - - -, f 5;
#N canvas 836 431 485 382 makenote+ 0;
#X obj 114 50 inlet;
#X msg 107 90 \$3 \$1 \$2;
#X obj 102 169 unpack 0 0;
#X obj 206 173 unpack 0 0;
#X obj 109 119 route 1 2 3;
#X obj 297 175 unpack 0 0;
#X obj 98 266 pack 0 0 1;
#X obj 197 270 pack 0 0 2;
#X obj 305 268 pack 0 0 3;
#X obj 116 312 unpack 0 0 1;
#X obj 77 346 outlet;
#X obj 156 346 outlet;
#X obj 198 382;
#X obj 216 346 outlet;
#X obj 47 208 makenote 60 1000;
#X obj 206 213 makenote 60 1000;
#X obj 341 216 makenote 60 1000;
#X obj 261 51 inlet;
#X connect 0 0 1 0;
#X connect 1 0 4 0;
#X connect 2 0 14 0;
#X connect 2 1 14 1;
#X connect 3 0 15 0;
#X connect 3 1 15 1;
#X connect 4 0 2 0;
#X connect 4 1 3 0;
#X connect 4 2 5 0;
#X connect 5 0 16 0;
#X connect 5 1 16 1;
#X connect 6 0 9 0;
#X connect 7 0 9 0;
#X connect 8 0 9 0;
#X connect 9 0 10 0;
#X connect 9 1 11 0;
#X connect 9 2 13 0;
#X connect 14 0 6 0;
#X connect 14 1 6 1;
#X connect 15 0 7 0;
#X connect 15 1 7 1;
#X connect 16 0 8 0;
#X connect 16 1 8 1;
#X connect 17 0 14 2;
#X connect 17 0 15 2;
#X connect 17 0 16 2;
#X restore 423 179 pd makenote+;
#X msg 241 476 adsr 2 1 100 1000;
#X obj 521 129 loadbang;
#X msg 386 39 \; samplor_ adsr 2 1 100 1000;
#X msg 581 38 \; samplor_ adsr 800 1 100 1;
#X obj 835 331 * 1;
#X msg 78 378 interpol 3;
#X msg 79 361 interpol 1;
#X obj 583 156 r s-notes-dur;
#X msg 51 301 velcurve \$1;
#X msg 521 154 1000;
#X floatatom 10 396 5 0 0 0 - - -, f 5;
#X msg 10 428 voice_stealing \$1;
#X obj 219 389 unpack 0 s 0 0 0 0;
#X obj 424 156 r s-notes+;
#X obj 325 176 unpack 0 0 0;
#X obj 326 152 r s-notes;
#X obj 310 335 r s-notes-dur;
#X floatatom 309 360 5 0 0 0 - - -, f 5;
#X msg 55 264 0;
#X obj 45 242 loadbang;
#X obj 219 420 pack 0 s 0 0 0 0;
#X msg 61 191 print 8;
#X obj 29 -2 tgl 15 0 empty empty empty 17 7 0 10 -262144 -1 -1 0 1
;
#X obj 29 69 + 57;
#X obj 28 -24 inlet;
#X msg 29 109 \; s-notes \$1 100 1 \;;
#X obj 154 -14 vu 15 120 vu-samplor empty -1 -8 0 8 -66577 -1 0 0;
#N canvas 676 232 1301 944 sound-buffers 0;
#X obj 251 20 skg.buffer~ Piano_Stein_m_A0.aif;
#X obj 251 38 skg.buffer~ Piano_Stein_m_A1.aif;
#X obj 251 56 skg.buffer~ Piano_Stein_m_A4.aif;
#X obj 251 74 skg.buffer~ Piano_Stein_m_B2.aif;
#X obj 251 92 skg.buffer~ Piano_Stein_m_B3.aif;
#X obj 251 110 skg.buffer~ Piano_Stein_m_B6.aif;
#X obj 251 128 skg.buffer~ Piano_Stein_m_C#3.aif;
#X obj 251 146 skg.buffer~ Piano_Stein_m_C1.aif;
#X obj 251 164 skg.buffer~ Piano_Stein_m_C2.aif;
#X obj 251 182 skg.buffer~ Piano_Stein_m_C5.aif;
#X obj 251 200 skg.buffer~ Piano_Stein_m_C6.aif;
#X obj 251 218 skg.buffer~ Piano_Stein_m_C7.aif;
#X obj 251 236 skg.buffer~ Piano_Stein_m_D0.aif;
#X obj 251 254 skg.buffer~ Piano_Stein_m_D4.aif;
#X obj 251 272 skg.buffer~ Piano_Stein_m_E1.aif;
#X obj 251 290 skg.buffer~ Piano_Stein_m_E2.aif;
#X obj 251 308 skg.buffer~ Piano_Stein_m_E3.aif;
#X obj 251 326 skg.buffer~ Piano_Stein_m_E5.aif;
#X obj 251 344 skg.buffer~ Piano_Stein_m_E6.aif;
#X obj 251 362 skg.buffer~ Piano_Stein_m_F1.aif;
#X obj 251 380 skg.buffer~ Piano_Stein_m_F4.aif;
#X obj 251 398 skg.buffer~ Piano_Stein_m_G0.aif;
#X obj 251 416 skg.buffer~ Piano_Stein_m_G2.aif;
#X obj 251 434 skg.buffer~ Piano_Stein_m_G3.aif;
#X obj 251 452 skg.buffer~ Piano_Stein_m_G5.aif;
#X obj 251 470 skg.buffer~ Piano_Stein_m_G6.aif;
#X obj 251 488 skg.buffer~ Piano_Stein_p_A-1.aif;
#X obj 251 506 skg.buffer~ Piano_Stein_p_A0.aif;
#X obj 251 524 skg.buffer~ Piano_Stein_p_A1.aif;
#X obj 251 542 skg.buffer~ Piano_Stein_p_A4.aif;
#X obj 251 560 skg.buffer~ Piano_Stein_p_B2.aif;
#X obj 251 578 skg.buffer~ Piano_Stein_p_B3.aif;
#X obj 251 596 skg.buffer~ Piano_Stein_p_B6.aif;
#X obj 251 614 skg.buffer~ Piano_Stein_p_C#3.aif;
#X obj 251 632 skg.buffer~ Piano_Stein_p_C1.aif;
#X obj 251 650 skg.buffer~ Piano_Stein_p_C2.aif;
#X obj 251 668 skg.buffer~ Piano_Stein_p_C5_.aif;
#X obj 251 686 skg.buffer~ Piano_Stein_p_C7_.aif;
#X obj 251 704 skg.buffer~ Piano_Stein_p_D0.aif;
#X obj 251 722 skg.buffer~ Piano_Stein_p_D4.aif;
#X obj 251 740 skg.buffer~ Piano_Stein_p_E1.aif;
#X obj 251 758 skg.buffer~ Piano_Stein_p_E2.aif;
#X obj 251 776 skg.buffer~ Piano_Stein_p_E3.aif;
#X obj 251 794 skg.buffer~ Piano_Stein_p_E6_.aif;
#X obj 251 812 skg.buffer~ Piano_Stein_p_F1.aif;
#X obj 251 830 skg.buffer~ Piano_Stein_p_F4.aif;
#X obj 251 848 skg.buffer~ Piano_Stein_p_G0.aif;
#X obj 251 866 skg.buffer~ Piano_Stein_p_G2.aif;
#X obj 251 883 skg.buffer~ Piano_Stein_p_G3.aif;
#X obj 251 901 skg.buffer~ Piano_Stein_p_G6.aif;
#X obj 251 2 skg.buffer~ Piano_Stein_m_A-1.aif;
#X restore 208 2 pd sound-buffers;
#X floatatom 102 77 5 0 0 0 - - -, f 5;
#X obj 426 324 samplerate~;
#X floatatom 425 351 5 0 0 0 - - -, f 5;
#X obj 425 302 bng 15 250 50 0 empty empty empty 17 7 0 10 -262144
-1 -1;
#X obj 359 406 / 1;
#X obj 424 276 loadbang;
#X obj 29 47 random 12;
#X obj 425 372 / 44100;
#X obj 29 25 metro 400;
#X obj 219 501 samplor2~ 1 64;
#X obj 352 555 send-vu vu-samplor meters;
#X msg 385 87 \; samplor_ 0 Piano_Stein_m_E3.aif 0 0 1.1036 0.620001
;
#X obj 118 555 throw~ adc_R-addin;
#X obj 235 554 throw~ adc_L-addin;
#X obj 71 -26 r test2_R;
#X obj 68 -5 r test2_L;
#X connect 0 0 24 0;
#X connect 1 0 5 0;
#X connect 2 0 32 0;
#X connect 3 0 5 2;
#X connect 4 0 5 0;
#X connect 5 0 36 0;
#X connect 6 0 7 0;
#X connect 7 0 5 0;
#X connect 8 0 5 0;
#X connect 9 0 5 0;
#X connect 9 1 3 0;
#X connect 12 0 17 0;
#X connect 13 0 14 0;
#X connect 14 0 18 4;
#X connect 14 0 28 0;
#X connect 15 0 18 5;
#X connect 17 0 19 0;
#X connect 17 1 15 0;
#X connect 17 2 28 1;
#X connect 17 3 18 2;
#X connect 17 6 18 1;
#X connect 18 0 20 0;
#X connect 19 0 18 0;
#X connect 19 1 13 0;
#X connect 21 0 61 0;
#X connect 22 0 49 0;
#X connect 23 0 5 0;
#X connect 23 1 5 1;
#X connect 23 2 5 2;
#X connect 24 0 61 0;
#X connect 25 0 33 0;
#X connect 28 0 18 3;
#X connect 29 0 61 0;
#X connect 30 0 61 0;
#X connect 31 0 23 1;
#X connect 32 0 5 0;
#X connect 33 0 23 1;
#X connect 34 0 35 0;
#X connect 35 0 61 0;
#X connect 36 0 44 0;
#X connect 36 1 44 1;
#X connect 36 2 44 2;
#X connect 36 4 56 0;
#X connect 36 5 44 5;
#X connect 37 0 23 0;
#X connect 38 0 5 0;
#X connect 38 1 5 1;
#X connect 38 2 5 2;
#X connect 39 0 38 0;
#X connect 40 0 41 0;
#X connect 41 0 44 3;
#X connect 42 0 2 0;
#X connect 43 0 42 0;
#X connect 44 0 61 0;
#X connect 45 0 5 0;
#X connect 46 0 60 0;
#X connect 47 0 22 0;
#X connect 48 0 46 0;
#X connect 52 0 47 1;
#X connect 53 0 54 0;
#X connect 54 0 59 0;
#X connect 55 0 53 0;
#X connect 56 0 44 4;
#X connect 57 0 55 0;
#X connect 58 0 47 0;
#X connect 59 0 56 1;
#X connect 60 0 58 0;
#X connect 61 0 62 0;
#X connect 61 0 65 0;
#X connect 61 0 64 0;
#X connect 66 0 46 0;
#X connect 67 0 46 0;
#X restore 21 460 pd samplor;
#N canvas 524 63 930 831 GUI 0;
#X obj 22 36 vsl 15 220 185 3520 1 1 sl1_snd sl1_rcv slider_piano1
-20 -20 0 10 -4160 -257985 -260097 0 1;
#X obj 124 24 vsl 15 220 55 3520 1 1 sl2_snd sl2_rcv slider_piano2
11 -6 0 10 -99865 -262144 -260097 8854 1;
#X text 15 267 de solb2 à la6 (54->105);
#X text 122 249 de sib1 à la6 (46->105);
#X obj 32 358 int;
#X floatatom -16 478 5 0 0 0 - - -, f 5;
#X floatatom 54 485 5 0 0 0 - - -, f 5;
#X obj -7 525 i;
#X obj -23 504 bng 15 250 50 0 empty empty empty 17 7 0 10 -262144
-1 -1;
#X floatatom -10 567 5 0 0 0 - - -, f 5;
#X obj -1 422 abs;
#X obj 8 451 moses 0.05;
#X obj -9 592 sel 57 59 68 64 65 62 67 63 61 60 58 54;
#X msg -10 616 1;
#X msg 12 636 2;
#X msg 22 614 3;
#X msg 44 640 4;
#X msg 56 615 5;
#X msg 78 641 6;
#X msg 91 614 7;
#X msg 113 639 8;
#X msg 124 615 9;
#X msg 146 641 10;
#X msg 161 616 11;
#X msg 183 642 12;
#X msg 10 311 \$1;
#X obj 40 333 + 0.5;
#X obj 2 395 -;
#X obj 222 534 sel 57 59 68 64 65 62 67 63 61 60 58 54 66;
#X obj 543 538 % 12;
#X obj 542 566 sel 0 1 2 3 4 5 6 7 8 9 10 11;
#X obj 10 287 r ring_R-pitch;
#X obj 90 436 s pitch_ecart_R;
#X obj 30 713 s pitch_label_R;
#X obj 266 704 s pitch_name_R;
#X obj 529 692 s pitch_name_R;
#X msg 215 619 A;
#X msg 237 639 B;
#X msg 246 617 G#;
#X msg 281 618 F;
#X msg 269 643 E;
#X msg 303 644 D;
#X msg 316 617 G;
#X msg 349 618 Db;
#X msg 338 642 Eb;
#X msg 371 644 C;
#X msg 386 619 Bb;
#X msg 408 645 Gb;
#X msg 433 617 F#;
#X msg 509 605 C;
#X msg 544 606 D;
#X msg 579 605 E;
#X msg 612 606 F#;
#X msg 649 607 G#;
#X msg 722 611 B;
#X msg 707 636 Bb;
#X msg 671 633 A;
#X msg 634 632 G;
#X msg 601 630 F;
#X msg 566 632 Eb;
#X msg 532 631 C#;
#X connect 4 0 7 1;
#X connect 4 0 27 1;
#X connect 4 0 29 0;
#X connect 5 0 8 0;
#X connect 6 0 33 0;
#X connect 7 0 9 0;
#X connect 8 0 7 0;
#X connect 9 0 12 0;
#X connect 10 0 11 0;
#X connect 11 0 5 0;
#X connect 11 1 6 0;
#X connect 12 0 13 0;
#X connect 12 1 14 0;
#X connect 12 2 15 0;
#X connect 12 3 16 0;
#X connect 12 4 17 0;
#X connect 12 5 18 0;
#X connect 12 6 19 0;
#X connect 12 7 20 0;
#X connect 12 8 21 0;
#X connect 12 9 22 0;
#X connect 12 10 23 0;
#X connect 12 11 24 0;
#X connect 13 0 33 0;
#X connect 14 0 33 0;
#X connect 15 0 33 0;
#X connect 16 0 33 0;
#X connect 17 0 33 0;
#X connect 18 0 33 0;
#X connect 19 0 33 0;
#X connect 20 0 33 0;
#X connect 21 0 33 0;
#X connect 22 0 33 0;
#X connect 23 0 33 0;
#X connect 24 0 33 0;
#X connect 25 0 26 0;
#X connect 25 0 27 0;
#X connect 26 0 4 0;
#X connect 27 0 10 0;
#X connect 27 0 32 0;
#X connect 28 0 36 0;
#X connect 28 1 37 0;
#X connect 28 2 38 0;
#X connect 28 3 40 0;
#X connect 28 4 39 0;
#X connect 28 5 41 0;
#X connect 28 6 42 0;
#X connect 28 7 44 0;
#X connect 28 8 43 0;
#X connect 28 9 45 0;
#X connect 28 10 46 0;
#X connect 28 11 47 0;
#X connect 28 12 48 0;
#X connect 29 0 30 0;
#X connect 30 0 49 0;
#X connect 30 1 60 0;
#X connect 30 2 50 0;
#X connect 30 3 59 0;
#X connect 30 4 51 0;
#X connect 30 5 58 0;
#X connect 30 6 52 0;
#X connect 30 7 57 0;
#X connect 30 8 53 0;
#X connect 30 9 56 0;
#X connect 30 10 55 0;
#X connect 30 11 54 0;
#X connect 31 0 25 0;
#X connect 36 0 34 0;
#X connect 37 0 34 0;
#X connect 38 0 34 0;
#X connect 39 0 34 0;
#X connect 40 0 34 0;
#X connect 41 0 34 0;
#X connect 42 0 34 0;
#X connect 43 0 34 0;
#X connect 44 0 34 0;
#X connect 45 0 34 0;
#X connect 46 0 34 0;
#X connect 47 0 34 0;
#X connect 48 0 34 0;
#X connect 49 0 35 0;
#X connect 50 0 35 0;
#X connect 51 0 35 0;
#X connect 52 0 35 0;
#X connect 53 0 35 0;
#X connect 54 0 35 0;
#X connect 55 0 35 0;
#X connect 56 0 35 0;
#X connect 57 0 35 0;
#X connect 58 0 35 0;
#X connect 59 0 35 0;
#X connect 60 0 35 0;
#X restore 148 407 pd GUI;
#N canvas 599 192 1226 885 controllers-IPADS 1;
#X obj 74 47 unpackOSC;
#X obj 19 84 print;
#X obj 17 59 spigot;
#X obj 50 27 tgl 15 0 empty empty empty 17 7 0 10 -262144 -1 -1 0 1
;
#X obj 74 19 udpreceive 8006;
#X obj 230 372 packOSC;
#X msg 227 334 /1/note \$1;
#X msg 467 332 /1/fineTune \$1;
#X msg 326 334 /1/pitchDisplay \$1;
#X obj 333 310 symbol;
#X obj 591 304 symbol;
#X msg 584 328 /2p1/pitchDisplay \$1;
#X msg 725 326 /2p1/fineTune \$1;
#X obj 232 405 udpsend 169.254.1.1 5006;
#X obj 925 338 mtof;
#X msg 898 368 /1/frequency \$1;
#X obj 238 558 packOSC;
#X msg 235 520 /1/note \$1;
#X msg 475 518 /1/fineTune \$1;
#X msg 334 520 /1/pitchDisplay \$1;
#X obj 341 496 symbol;
#X obj 599 490 symbol;
#X msg 592 514 /2p1/pitchDisplay \$1;
#X msg 733 512 /2p1/fineTune \$1;
#X obj 847 483 mtof;
#X msg 847 510 /1/frequency \$1;
#X obj 240 591 udpsend 169.254.1.2 5006;
#X floatatom 86 210 5 0 0 0 - - -, f 5;
#X obj 87 165 loadbang;
#X floatatom 19 472 5 0 0 0 - - -, f 5;
#X obj 20 427 loadbang;
#X obj 881 261 mtof;
#X msg 854 291 /2p1/frequency \$1;
#X obj 964 485 mtof;
#X msg 964 510 /2p1/frequency \$1;
#X obj 224 198 inlet;
#X obj 220 437 inlet;
#N canvas 594 175 1002 468 IPAD-master 0;
#X obj 9 77 inlet;
#X obj 9 183 * 100;
#X obj 9 208 s tgp;
#X obj 225 165 * 100;
#X obj 126 166 * 100;
#X obj 9 125 routeOSC /fader1 /fader2 /fader3 /fader4;
#X obj 62 248 s sfplay_level;
#X obj 63 162 nbx 5 14 -1e+37 1e+37 0 0 empty empty empty 0 -8 0 10
-262144 -1 -1 0 256;
#X obj 63 186 * 100;
#X obj 9 100 routeOSC /1 /master;
#X obj 289 154 routeOSC /test_L-set /test_R-set /test2_L-set /test2_R-set
;
#X obj 289 177 s test_L-set;
#X obj 376 201 s test_R-set;
#X obj 461 181 s test2_L-set;
#X obj 545 200 s test2_R-set;
#X obj 389 255 s filter_L-bypass-set;
#X obj 476 279 s filter_R-bypass-set;
#X obj 390 222 routeOSC /filter_L-bypass-set /filter_R-bypass-set /compressor_L-bypass-set
/compressor_R-bypass-set;
#X obj 561 259 s compressor_L-bypass-set;
#X obj 645 278 s compressor_L-bypass-set;
#X obj 136 192 s ring_L-plus;
#X obj 128 222 s ring_L-minus;
#X obj 230 197 s ring_R-plus;
#X obj 222 227 s ring_R-minus;
#X obj 684 346 routeOSC /sfplay;
#X obj 683 370 s sfplay_;
#X connect 0 0 9 0;
#X connect 1 0 2 0;
#X connect 3 0 22 0;
#X connect 3 0 23 0;
#X connect 4 0 20 0;
#X connect 4 0 21 0;
#X connect 5 0 1 0;
#X connect 5 1 7 0;
#X connect 5 2 4 0;
#X connect 5 3 3 0;
#X connect 5 4 10 0;
#X connect 7 0 8 0;
#X connect 8 0 6 0;
#X connect 9 0 5 0;
#X connect 9 1 5 0;
#X connect 10 0 11 0;
#X connect 10 1 12 0;
#X connect 10 2 13 0;
#X connect 10 3 14 0;
#X connect 10 4 17 0;
#X connect 17 0 15 0;
#X connect 17 1 16 0;
#X connect 17 2 18 0;
#X connect 17 3 19 0;
#X connect 17 4 24 0;
#X connect 24 0 25 0;
#X restore 278 87 pd IPAD-master;
#X msg 20 450 102;
#X obj 317 14 udpreceive 9998;
#X msg 422 378;
#X obj 186 22 udpreceive 8007;
#N canvas 916 308 1164 479 IPAD-piano_R 1;
#X obj -55 -4 inlet;
#X obj 7 106 routeOSC /pitch;
#X floatatom 8 328 5 0 0 0 - - -, f 5;
#X obj -54 23 routeOSC /1 /2 /3;
#X obj 279 171 s sfplay_;
#X obj 408 314 s sfplay_level;
#X obj 279 143 routeOSC /start /level;
#X msg 10 349 \$1 75;
#X obj -54 61 routeOSC /frequency;
#X obj 184 122 ftom;
#X obj 406 218 tabread level-scale;
#X obj 409 196 nbx 5 14 -1e+37 1e+37 0 0 empty empty empty 0 -8 0 10
-262144 -1 -1 0 256;
#X obj 560 76 table level-scale 127;
#X obj 406 239 + 1;
#X obj 408 264 * 50;
#X msg 669 226 \; level-scale read mantra-level-scale.txt;
#X msg 714 94 \; level-scale write /tmp/mantra-level-scale.txt;
#X obj 704 189 loadbang;
#X obj 523 317 s to_master_ipad;
#X obj 525 283 / 100;
#X obj 234 -6 receive fromGUI;
#X obj 235 16 route list;
#X obj 249 113 + 54;
#X obj 250 84 * 14;
#X obj 186 94 + 54;
#X obj 187 65 * 14;
#X obj 295 82 * 28;
#X obj 294 111 + 62;
#X obj 234 39 route /1/frequency /1/pitch /2/pitch /3/start /3/level
;
#X obj 10 372 s ring_R-pitch;
#X obj 141 333 mtof;
#X obj 142 357 s ring_R-freq-set;
#X connect 0 0 3 0;
#X connect 1 0 2 0;
#X connect 2 0 7 0;
#X connect 2 0 30 0;
#X connect 3 0 1 0;
#X connect 3 0 8 0;
#X connect 3 1 1 0;
#X connect 3 2 6 0;
#X connect 6 0 4 0;
#X connect 6 1 11 0;
#X connect 7 0 29 0;
#X connect 8 0 9 0;
#X connect 9 0 2 0;
#X connect 10 0 13 0;
#X connect 11 0 10 0;
#X connect 13 0 14 0;
#X connect 14 0 5 0;
#X connect 14 0 19 0;
#X connect 17 0 15 0;
#X connect 19 0 18 0;
#X connect 20 0 21 0;
#X connect 21 0 28 0;
#X connect 22 0 2 0;
#X connect 23 0 22 0;
#X connect 24 0 9 0;
#X connect 25 0 24 0;
#X connect 26 0 27 0;
#X connect 27 0 2 0;
#X connect 28 0 25 0;
#X connect 28 1 23 0;
#X connect 28 2 26 0;
#X connect 28 3 4 0;
#X connect 28 4 11 0;
#X connect 30 0 31 0;
#X restore 64 83 pd IPAD-piano_R;
#N canvas 899 377 1221 570 IPAD-piano_L 0;
#X obj -6 21 inlet;
#X obj -7 93 routeOSC /pitch;
#X floatatom 107 197 5 0 0 0 - - -, f 5;
#X obj -7 51 routeOSC /2p1 /2p2 /2p3;
#X obj 255 107 ftom;
#X obj 255 84 routeOSC /pitch;
#X msg 107 217 \$1 75;
#X msg 521 17 \$1;
#X obj 521 37 + 0.5;
#X obj 513 62 int;
#X obj 483 99 - 0;
#X obj 132 85 routeOSC /frequency;
#X obj 132 107 ftom;
#X obj 613 102 % 12;
#X obj 612 130 sel 0 1 2 3 4 5 6 7 8 9 10 11;
#X obj 107 240 s ring_L-pitch;
#X obj 599 256 s pitch_name_L;
#X obj 507 -3 r ring_L-pitch;
#X obj 483 122 s pitch_ecart_L;
#X msg 579 169 C;
#X msg 614 170 D;
#X msg 649 169 E;
#X msg 682 170 F#;
#X msg 719 171 G#;
#X msg 792 175 B;
#X msg 602 195 C#;
#X msg 636 196 Eb;
#X msg 671 194 F;
#X msg 704 196 G;
#X msg 741 197 A;
#X msg 777 200 Bb;
#X obj 446 620 s ring_L-freq;
#X obj 446 620 s ring_L-freq;
#X obj 446 620 s ring_L-freq;
#X obj 232 237 s ring_L-freq-set;
#X obj 231 213 mtof;
#X connect 0 0 3 0;
#X connect 1 0 2 0;
#X connect 2 0 6 0;
#X connect 2 0 35 0;
#X connect 3 0 1 0;
#X connect 3 0 11 0;
#X connect 3 1 1 0;
#X connect 3 2 5 0;
#X connect 4 0 2 0;
#X connect 5 0 4 0;
#X connect 6 0 15 0;
#X connect 7 0 8 0;
#X connect 7 0 10 0;
#X connect 8 0 9 0;
#X connect 9 0 10 1;
#X connect 9 0 13 0;
#X connect 10 0 18 0;
#X connect 11 0 12 0;
#X connect 12 0 2 0;
#X connect 13 0 14 0;
#X connect 14 0 19 0;
#X connect 14 1 25 0;
#X connect 14 2 20 0;
#X connect 14 3 26 0;
#X connect 14 4 21 0;
#X connect 14 5 27 0;
#X connect 14 6 22 0;
#X connect 14 7 28 0;
#X connect 14 8 23 0;
#X connect 14 9 29 0;
#X connect 14 10 30 0;
#X connect 14 11 24 0;
#X connect 17 0 7 0;
#X connect 19 0 16 0;
#X connect 20 0 16 0;
#X connect 21 0 16 0;
#X connect 22 0 16 0;
#X connect 23 0 16 0;
#X connect 24 0 16 0;
#X connect 25 0 16 0;
#X connect 26 0 16 0;
#X connect 27 0 16 0;
#X connect 28 0 16 0;
#X connect 29 0 16 0;
#X connect 30 0 16 0;
#X connect 35 0 34 0;
#X restore 165 85 pd IPAD-piano_L;
#X obj 235 285 r pitch_label_R;
#X obj 336 282 r pitch_name_R;
#X obj 467 280 r pitch_ecart_R;
#X obj 584 276 r pitch_name_L;
#X obj 725 274 r pitch_ecart_L;
#X obj 880 236 r ring_L-pitch;
#X obj 924 313 r ring_R-pitch;
#X obj 236 467 r pitch_label_R;
#X obj 334 468 r pitch_name_R;
#X obj 475 466 r pitch_ecart_R;
#X obj 592 462 r pitch_name_L;
#X obj 733 460 r pitch_ecart_L;
#X obj 251 753 packOSC;
#X msg 248 715 /1/note \$1;
#X msg 488 713 /1/fineTune \$1;
#X obj 354 691 symbol;
#X obj 612 685 symbol;
#X msg 605 709 /2p1/pitchDisplay \$1;
#X msg 746 707 /2p1/fineTune \$1;
#X obj 860 678 mtof;
#X obj 253 786 udpsend 169.254.1.2 5006;
#X floatatom 32 667 5 0 0 0 - - -, f 5;
#X obj 33 622 loadbang;
#X obj 977 680 mtof;
#X msg 977 705 /2p1/frequency \$1;
#X obj 233 632 inlet;
#X obj 249 662 r pitch_label_R;
#X obj 347 663 r pitch_name_R;
#X obj 488 661 r pitch_ecart_R;
#X obj 605 657 r pitch_name_L;
#X obj 746 655 r pitch_ecart_L;
#X obj 859 653 r ring_R-pitch;
#X obj 976 655 r ring_R-pitch;
#X msg 32 686 disconnect \, connect 192.168.1.\$1 5006;
#X msg 33 645 253;
#X msg 86 229 disconnect \, connect 192.168.1.\$1 5006;
#X msg 87 188 19;
#X msg 19 491 disconnect \, connect 192.168.1.\$1 5006;
#X obj 963 460 r ring_L-pitch;
#X obj 846 458 r ring_L-pitch;
#X text 98 280 back to ipad 1 (R):;
#X text 109 476 back to ipad 2 (L):;
#X text 122 671 back to ipad Master :;
#X msg 347 715 /1/pitchDisplay \$1;
#X msg 860 705 /1/frequency \$1;
#X obj 1089 677 r to_master_ipad;
#X msg 1091 706 /master/fader2 \$1;
#X connect 0 0 2 0;
#X connect 0 0 42 0;
#X connect 0 0 43 0;
#X connect 0 0 37 0;
#X connect 2 0 1 0;
#X connect 3 0 2 1;
#X connect 4 0 0 0;
#X connect 5 0 13 0;
#X connect 6 0 5 0;
#X connect 7 0 5 0;
#X connect 8 0 5 0;
#X connect 9 0 8 0;
#X connect 10 0 11 0;
#X connect 11 0 5 0;
#X connect 12 0 5 0;
#X connect 14 0 15 0;
#X connect 15 0 5 0;
#X connect 16 0 26 0;
#X connect 17 0 16 0;
#X connect 18 0 16 0;
#X connect 19 0 16 0;
#X connect 20 0 19 0;
#X connect 21 0 22 0;
#X connect 22 0 16 0;
#X connect 23 0 16 0;
#X connect 24 0 25 0;
#X connect 25 0 16 0;
#X connect 27 0 79 0;
#X connect 28 0 80 0;
#X connect 29 0 81 0;
#X connect 30 0 38 0;
#X connect 31 0 32 0;
#X connect 32 0 5 0;
#X connect 33 0 34 0;
#X connect 34 0 16 0;
#X connect 35 0 13 0;
#X connect 36 0 26 0;
#X connect 38 0 29 0;
#X connect 39 0 0 0;
#X connect 40 0 13 0;
#X connect 41 0 0 0;
#X connect 44 0 6 0;
#X connect 45 0 9 0;
#X connect 46 0 7 0;
#X connect 47 0 10 0;
#X connect 48 0 12 0;
#X connect 49 0 31 0;
#X connect 50 0 14 0;
#X connect 51 0 17 0;
#X connect 52 0 20 0;
#X connect 53 0 18 0;
#X connect 54 0 21 0;
#X connect 55 0 23 0;
#X connect 56 0 64 0;
#X connect 57 0 56 0;
#X connect 58 0 56 0;
#X connect 59 0 87 0;
#X connect 60 0 61 0;
#X connect 61 0 56 0;
#X connect 62 0 56 0;
#X connect 63 0 88 0;
#X connect 65 0 77 0;
#X connect 66 0 78 0;
#X connect 67 0 68 0;
#X connect 68 0 56 0;
#X connect 69 0 64 0;
#X connect 70 0 57 0;
#X connect 71 0 59 0;
#X connect 72 0 58 0;
#X connect 73 0 60 0;
#X connect 74 0 62 0;
#X connect 75 0 63 0;
#X connect 76 0 67 0;
#X connect 77 0 64 0;
#X connect 78 0 65 0;
#X connect 79 0 13 0;
#X connect 80 0 27 0;
#X connect 81 0 26 0;
#X connect 82 0 33 0;
#X connect 83 0 24 0;
#X connect 87 0 56 0;
#X connect 88 0 56 0;
#X connect 89 0 90 0;
#X connect 90 0 56 0;
#X restore 148 385 pd controllers-IPADS;
#X floatatom 235 78 3 430 450 0 tuning tuning-set tuning, f 3;
#X text 145 302 ipads : Local IP address;
#N canvas 1049 251 375 166 pitches 0;
#X msg 210 58 set \$1;
#X obj 210 81 symbol;
#X msg 67 81 set \$1;
#X obj 68 58 symbol;
#X obj 67 105 outlet;
#X obj 210 104 outlet;
#X obj 68 35 r pitch_name_R;
#X obj 210 35 r pitch_name_L;
#X connect 0 0 5 0;
#X connect 1 0 0 0;
#X connect 2 0 4 0;
#X connect 3 0 2 0;
#X connect 6 0 3 0;
#X connect 7 0 1 0;
#X restore 513 221 pd pitches;
#X msg 513 247 D;
#X msg 570 247 E;
#X obj 21 440 tgl 15 0 empty empty empty 17 7 0 10 -262144 -1 -1 0
1;
#X text 13 202 TO START :;
#X floatatom 520 377 3 0 120 0 ring0 ring0-set ring0, f 3;
#X obj 14 490 declare -path ./lib -path ./lib/samplor -path ./snd -path
.;
#X floatatom 520 399 5 0 0 0 highpass_R-freq highpass_R-freq-set highpass_R-freq
, f 5;
#X floatatom 520 421 3 0 120 0 highpass_R-bw highpass_R-bw-set highpass_R-bw
, f 3;
#X floatatom 520 443 3 0 1 0 filter_R-bypass filter_R-bypass-set filter_R-bypass
, f 3;
#X floatatom 520 465 3 0 1 0 compressor_R-bypass compressor_R-bypass-set
compressor_R-bypass, f 3;
#X msg 18 216 reset;
#X text 286 14 serge.lemouton@ircam.fr;
#X floatatom 670 373 3 0 120 0 ring0 ring0-set ring0, f 3;
#X floatatom 670 395 5 0 0 0 highpass_L-freq highpass_L-freq-set highpass_L-freq
, f 5;
#X floatatom 670 417 3 0 120 0 highpass_L-bw highpass_L-bw-set highpass_L-bw
, f 3;
#X floatatom 670 439 3 0 1 0 filter_L-bypass filter_L-bypass-set filter_L-bypass
, f 3;
#X floatatom 670 461 3 0 1 0 compressor_L-bypass compressor_L-bypass-set
compressor_L-bypass, f 3;
#X floatatom 72 126 3 0 130 1 MASTER-OUT - tgp, f 3;
#X floatatom 73 101 3 0 130 1 MASTER-IN - atten, f 3;
#X obj 288 73 tgl 18 0 meters set-meters meters 24 8 0 12 -262144 -1
-1 1 1;
#X obj 77 154 tgl 20 0 mute set-mute mute 24 8 0 12 -262144 -1 -1 0
1;
#N canvas 267 179 593 254 GAIN 0;
#X obj 54 199 outlet;
#X obj 54 173 setmsg;
#X obj 54 146 speedlim 200;
#X obj 102 116 s tgp~;
#X obj 53 81 line 0 30;
#X obj 53 40 r tgp;
#X obj 115 41 r master-level;
#X obj 299 44 r atten;
#X obj 299 171 setmsg;
#X obj 300 143 speedlim 200;
#X obj 299 78 line 0 30;
#X obj 299 197 outlet;
#X obj 348 113 s atten~;
#X obj 396 29 loadbang;
#X msg 396 51 100;
#X connect 1 0 0 0;
#X connect 2 0 1 0;
#X connect 4 0 2 0;
#X connect 4 0 3 0;
#X connect 5 0 4 0;
#X connect 6 0 4 0;
#X connect 7 0 10 0;
#X connect 8 0 11 0;
#X connect 9 0 8 0;
#X connect 10 0 9 0;
#X connect 10 0 12 0;
#X connect 13 0 14 0;
#X connect 14 0 10 0;
#X restore 34 74 pd GAIN;
#N canvas 171 275 629 507 audio-inputs 1;
#X floatatom 22 51 0 0 0 0 - - -;
#X obj 386 29 unpack 0 0;
#X obj 386 6 r testtone;
#X obj 28 339 *~;
#X obj 424 224 r atten~;
#X obj 424 306 line~;
#X obj 27 237 +~;
#X obj 22 28 mtof;
#X floatatom 22 5 0 0 0 0 - - -;
#X obj 209 7 r reset;
#X obj 22 75 osc~ 440;
#X obj 424 281 pack 0 50;
#X obj 424 253 dbtorms;
#X obj 27 263 hip~ 5;
#X obj 233 337 *~;
#X obj 27 160 *~ 0;
#X obj 234 221 +~;
#X obj 29 303 +~;
#X obj 234 306 +~;
#X obj 533 110 r in-DB;
#X obj 533 172 r tuning;
#X obj 234 247 hip~ 5;
#X obj 472 53 s testtone-pitch;
#X obj 386 53 rmstodb;
#X obj 23 99 s~ testtone-osc;
#X obj 27 129 r~ testtone-osc;
#X obj 70 172 dbtorms;
#X obj 233 157 *~ 0;
#X obj 233 126 r~ testtone-osc;
#X obj 276 169 dbtorms;
#X obj 56 6 r testtone-pitch;
#X obj 74 292 catch~ adc_R-addin;
#X obj 39 373 send-vu vu-in_R meters;
#X obj 70 150 r testtone-R;
#X obj 276 147 r testtone-L;
#X msg 209 32 \; testtone-pitch 69 \; testtone-R 0 \; testtone-L 0
;
#X obj 386 76 s testtone-R;
#X obj 37 416 s~ input-signal_R;
#X obj 268 279 catch~ adc_L-addin;
#X obj 245 370 send-vu vu-in_L meters;
#X obj 234 413 s~ input-signal_L;
#X obj 260 190 adc~ 1;
#X obj 51 203 adc~ 2;
#X connect 0 0 10 0;
#X connect 1 0 23 0;
#X connect 1 1 22 0;
#X connect 2 0 1 0;
#X connect 3 0 32 0;
#X connect 3 0 37 0;
#X connect 4 0 12 0;
#X connect 5 0 3 1;
#X connect 5 0 14 1;
#X connect 6 0 13 0;
#X connect 7 0 0 0;
#X connect 8 0 7 0;
#X connect 9 0 35 0;
#X connect 10 0 24 0;
#X connect 11 0 5 0;
#X connect 12 0 11 0;
#X connect 13 0 17 0;
#X connect 14 0 39 0;
#X connect 14 0 40 0;
#X connect 15 0 6 0;
#X connect 16 0 21 0;
#X connect 17 0 3 0;
#X connect 18 0 14 0;
#X connect 21 0 18 0;
#X connect 23 0 36 0;
#X connect 25 0 15 0;
#X connect 26 0 15 1;
#X connect 27 0 16 0;
#X connect 28 0 27 0;
#X connect 29 0 27 1;
#X connect 30 0 8 0;
#X connect 31 0 17 1;
#X connect 33 0 26 0;
#X connect 34 0 29 0;
#X connect 38 0 18 1;
#X connect 41 0 16 1;
#X connect 42 0 6 1;
#X restore 201 175 pd audio-inputs;
#X msg 148 322 disconnect \, connect 129.255.1.101 5006;
#X msg 157 352 disconnect \, connect 129.255.1.102 5006;
#X obj 307 221 tgl 50 0 empty empty empty 17 7 0 10 -262144 -1 -1 0
1;
#X text 287 30 September 2015 - Piano1->_R \, Piano2->_L;
#X text 376 201 RIGHT;
#X text 420 201 LEFT;
#X text 510 201 RIGHT;
#X text 554 201 LEFT;
#X obj 606 75 vu 15 120 vu-out_KW empty -1 -8 0 8 -66577 -1 0 0;
#X text 604 200 KW;
#X floatatom 509 298 5 0 0 0 ring_R-freq ring_R-freq-set ring_R-freq
, f 5;
#X floatatom 659 300 5 0 0 0 ring_L-freq ring_L-freq-set ring_L-freq
, f 5;
#X floatatom 50 302 3 0 1 0 test_R test_R-set test_R, f 3;
#X floatatom 115 301 3 0 1 0 test_L test_L-set test_L, f 3;
#X floatatom 46 335 3 0 1 0 test2_R test2_R-set test2_R, f 3;
#X floatatom 111 334 3 0 1 0 test2_L test2_L-set test2_L, f 3;
#X text 206 47 425 ???;
#X connect 6 0 3 0;
#X connect 7 0 3 1;
#X connect 35 0 36 0;
#X connect 35 1 37 0;
#X connect 38 0 30 0;
#X connect 46 0 0 0;
#X connect 57 0 53 0;
#X connect 57 1 54 0;
#X connect 59 0 32 0;
#X connect 60 0 32 1;
#X connect 61 0 29 0;
