#N canvas 499 22 971 549 10;
#X declare -path ./lib -path ./lib/samplor -path ./snd -path .;
#N canvas 476 22 597 452 reset 0;
#X obj 21 105 r reset;
#X msg 162 241 \; section-scofo print;
#X obj 161 213 section 1;
#X obj 161 117 r reset;
#X msg 162 139 \; section-qlist-number 1 read mantraqlist.txt \; section-scofo-number
1 read score/score1.txt;
#X msg 436 148 \; ring1-pitch 55;
#X msg 21 145 \; ring1-pitch 0 \; ring1-p2 0 \; ring1-plus 0 \; ring1-minus
0 \; ring2-pitch 0 \; ring2-p2 0 \; ring2-plus 0 \; ring2-minus 0 \;
ctl-select1 0 \; ctl-select2 8 \; highpass1-freq 200 \; highpass1-bw
20 \;;
#X obj 26 48 s section-start;
#X msg 26 25 1;
#X obj 26 2 inlet;
#X obj 71 7 loadbang;
#X connect 0 0 6 0;
#X connect 3 0 4 0;
#X connect 8 0 7 0;
#X connect 9 0 8 0;
#X connect 10 0 8 0;
#X restore 18 240 pd reset;
#X floatatom 524 257 5 0 0 0 ring1-pitch ring1-pitch-set ring1-pitch
;
#N canvas 199 22 1029 887 audio-works 0;
#X obj 158 271 hilbert~;
#X obj 346 194 * 0.25;
#X obj 346 216 mtof;
#X obj 400 262 line~;
#X obj 349 302 *~;
#X obj 349 324 *~;
#X obj 346 238 * 0.206825;
#X obj 157 379 *~;
#X obj 236 385 *~;
#X obj 359 145 unpack;
#X obj 157 297 complex-mod~;
#X obj 158 246 r~ input-signal1;
#X obj 160 684 hilbert~;
#X obj 339 567 * 0.25;
#X obj 339 589 mtof;
#X obj 342 635 line~;
#X obj 344 685 *~;
#X obj 344 707 *~;
#X obj 339 611 * 0.206825;
#X obj 161 759 *~;
#X obj 240 765 *~;
#X obj 341 517 unpack;
#X obj 160 715 complex-mod~;
#X obj 160 658 r~ input-signal2;
#X obj 449 180 * 0.25;
#X obj 449 202 mtof;
#X obj 499 255 line~;
#X obj 449 224 * 0.206825;
#X obj 491 157 unpack;
#N canvas 943 484 582 506 pitbis1 0;
#X obj 189 468 outlet~;
#X obj 190 444 line~;
#X floatatom 45 224 0 0 0 0 - - -;
#X obj 44 308 moses;
#X floatatom 233 271 0 0 0 0 - - -;
#X obj 74 333 - 1;
#X text 266 272 bottom of current jitter interval (0-126);
#X obj 233 296 change;
#X obj 233 320 t f b b;
#X obj 216 369 timer;
#X obj 216 396 moses 200;
#X msg 265 425 200;
#X floatatom 155 358 0 0 0 0 - - -;
#X obj 74 285 + 1;
#X obj 168 396 / 126;
#X obj 322 300 r bash-ctl1;
#X obj 322 331 t f b;
#X obj 164 72 ctlin;
#X obj 164 99 swap;
#X obj 164 155 pack;
#X obj 159 127 ==;
#X obj 164 179 route 1;
#X floatatom 214 110 0 0 0 0 - - -;
#X obj 45 132 r pitctl1;
#X obj 322 362 s pitctl1;
#X obj 214 86 r ctl-select1;
#X connect 1 0 0 0;
#X connect 2 0 3 0;
#X connect 3 0 4 0;
#X connect 3 1 5 0;
#X connect 4 0 7 0;
#X connect 4 0 13 0;
#X connect 5 0 4 0;
#X connect 7 0 8 0;
#X connect 8 0 14 0;
#X connect 8 1 9 0;
#X connect 8 2 9 1;
#X connect 9 0 10 0;
#X connect 10 0 1 1;
#X connect 10 1 11 0;
#X connect 11 0 1 1;
#X connect 12 0 14 0;
#X connect 13 0 3 1;
#X connect 14 0 1 0;
#X connect 15 0 16 0;
#X connect 16 0 24 0;
#X connect 16 1 9 0;
#X connect 17 0 18 0;
#X connect 17 1 18 1;
#X connect 18 0 20 0;
#X connect 18 1 19 1;
#X connect 19 0 21 0;
#X connect 20 0 19 0;
#X connect 21 0 2 0;
#X connect 22 0 20 1;
#X connect 23 0 2 0;
#X connect 25 0 22 0;
#X restore 466 315 pd pitbis1;
#X obj 432 290 -~;
#X obj 432 315 *~;
#X obj 396 310 +~;
#X obj 442 574 * 0.25;
#X obj 442 596 mtof;
#X obj 492 649 line~;
#X obj 442 618 * 0.206825;
#X obj 484 551 unpack;
#X obj 451 679 -~;
#X obj 451 700 *~;
#X obj 343 661 +~;
#X obj 201 427 *~;
#X obj 617 573 dac~ 1;
#X obj 142 789 *~;
#X obj 143 834 dac~ 2;
#N canvas 0 22 573 496 pitbis2 0;
#X obj 197 455 outlet~;
#X obj 196 432 line~;
#X floatatom 29 204 0 0 0 0 - - -;
#X obj 30 275 moses;
#X floatatom 237 270 0 0 0 0 - - -;
#X obj 60 301 - 1;
#X text 267 271 bottom of current jitter interval (0-126);
#X obj 237 295 change;
#X obj 237 319 t f b b;
#X obj 225 356 timer;
#X obj 225 383 moses 200;
#X msg 274 412 200;
#X floatatom 174 326 0 0 0 0 - - -;
#X obj 60 245 + 1;
#X obj 174 356 / 126;
#X obj 324 324 t f b;
#X obj 324 301 r bash-ctl2;
#X obj 139 59 ctlin;
#X obj 139 86 swap;
#X obj 139 142 pack;
#X obj 134 114 ==;
#X obj 139 166 route 1;
#X floatatom 189 97 0 0 0 0 - - -;
#X obj 29 110 r pitctl2;
#X obj 324 354 s pitctl2;
#X obj 189 73 r ctl-select2;
#X connect 1 0 0 0;
#X connect 2 0 3 0;
#X connect 3 0 4 0;
#X connect 3 1 5 0;
#X connect 4 0 7 0;
#X connect 4 0 13 0;
#X connect 5 0 4 0;
#X connect 7 0 8 0;
#X connect 8 0 14 0;
#X connect 8 1 9 0;
#X connect 8 2 9 1;
#X connect 9 0 10 0;
#X connect 10 0 1 1;
#X connect 10 1 11 0;
#X connect 11 0 1 1;
#X connect 12 0 14 0;
#X connect 13 0 3 1;
#X connect 14 0 1 0;
#X connect 15 0 24 0;
#X connect 15 1 9 0;
#X connect 16 0 15 0;
#X connect 17 0 18 0;
#X connect 17 1 18 1;
#X connect 18 0 20 0;
#X connect 18 1 19 1;
#X connect 19 0 21 0;
#X connect 20 0 19 0;
#X connect 21 0 2 0;
#X connect 22 0 20 1;
#X connect 23 0 2 0;
#X connect 25 0 22 0;
#X restore 482 700 pd pitbis2;
#X obj 359 123 r ring1-pitch;
#X obj 491 135 r ring1-p2;
#X obj 341 494 r ring2-pitch;
#X obj 484 529 r ring2-p2;
#X obj 275 741 amp-quartic~ ring2-plus;
#X obj 279 386 amp-quartic~ ring1-minus;
#X obj 279 360 amp-quartic~ ring1-plus;
#X obj 277 767 amp-quartic~ ring2-minus;
#X obj 27 378 amp-linear~ tgp~;
#X obj 666 572 send-vu vu-out1 meters;
#X obj 155 811 send-vu vu-out2 meters;
#X obj 288 349 print~;
#X obj 277 327 bng 15 250 50 0 empty empty empty 17 7 0 10 -262144
-1 -1;
#X floatatom 198 130 5 0 0 0 - - -;
#X obj 199 157 ftom;
#X floatatom 199 179 5 0 0 0 - - -;
#X obj 199 198 - 69;
#X obj 199 89 r tuning;
#X obj 340 543 + 0;
#X obj 354 170 + 0;
#X msg 198 110 \$1;
#X text 763 47 simple multiplication;
#X text 167 47 hilbert base frequency shifter;
#X obj 711 230 line~;
#X obj 662 227 mtof;
#X obj 724 285 osc~;
#X obj 724 313 *~;
#X obj 622 343 amp-quartic~ ring0;
#X obj 699 399 *~;
#X obj 673 422 *~;
#X obj 652 489 +~;
#N canvas 495 246 906 708 filter 0;
#X obj 122 464 inlet;
#X text 120 445 bypass;
#X obj 256 519 biquad~;
#X obj 256 230 filterview;
#X msg 498 177 highshelf;
#X msg 325 177 allpass;
#X msg 378 177 bandpass;
#X msg 438 177 highpass;
#X msg 564 177 lowpass;
#X msg 618 177 lowshelf;
#X msg 679 177 notch;
#X msg 721 177 peaking;
#X msg 775 177 resonant;
#X text 306 153 choose a filter type:;
#X floatatom 286 74 0 0 0 0 - - -;
#X floatatom 337 74 0 0 0 0 - - -;
#X obj 337 97 trigger bang float;
#X obj 247 637 outlet~;
#X obj 68 478 inlet~;
#X obj 121 497 tgl 15 0 empty empty empty 17 7 0 10 -262144 -1 -1 0
1;
#X obj 129 543 tgl 15 0 empty empty empty 17 7 0 10 -262144 -1 -1 0
1;
#X obj 107 568 *~ 1;
#X obj 149 575 *~ 0;
#X obj 245 609 +~;
#X obj 129 520 == 0;
#X msg 151 53 200;
#X msg 191 56 100;
#X obj 286 131 ggee/highpass;
#X text 266 52 frequency;
#X text 340 54 bandwidth;
#X obj 182 6 loadbang;
#X connect 0 0 19 0;
#X connect 2 0 23 1;
#X connect 3 0 2 0;
#X connect 4 0 3 0;
#X connect 5 0 3 0;
#X connect 6 0 3 0;
#X connect 7 0 3 0;
#X connect 8 0 3 0;
#X connect 9 0 3 0;
#X connect 10 0 3 0;
#X connect 11 0 3 0;
#X connect 12 0 3 0;
#X connect 14 0 27 0;
#X connect 15 0 16 0;
#X connect 16 0 27 0;
#X connect 16 1 27 1;
#X connect 18 0 22 0;
#X connect 18 0 21 0;
#X connect 19 0 22 1;
#X connect 19 0 24 0;
#X connect 20 0 21 1;
#X connect 21 0 2 0;
#X connect 22 0 23 0;
#X connect 23 0 17 0;
#X connect 24 0 20 0;
#X connect 25 0 14 0;
#X connect 26 0 15 0;
#X connect 27 0 3 0;
#X restore 758 522 pd filter;
#X obj 793 496 tgl 15 0 empty empty empty 17 7 0 10 -262144 -1 -1 0
1;
#X connect 0 0 10 0;
#X connect 0 1 10 1;
#X connect 1 0 2 0;
#X connect 2 0 6 0;
#X connect 3 0 30 1;
#X connect 3 0 32 0;
#X connect 4 0 5 0;
#X connect 4 0 5 1;
#X connect 5 0 10 2;
#X connect 5 0 57 0;
#X connect 6 0 3 0;
#X connect 7 0 41 1;
#X connect 8 0 41 1;
#X connect 9 0 65 0;
#X connect 9 1 3 1;
#X connect 9 1 69 1;
#X connect 10 0 7 0;
#X connect 10 1 8 0;
#X connect 11 0 0 0;
#X connect 11 0 72 1;
#X connect 12 0 22 0;
#X connect 12 1 22 1;
#X connect 13 0 14 0;
#X connect 14 0 18 0;
#X connect 15 0 38 1;
#X connect 15 0 40 0;
#X connect 16 0 17 0;
#X connect 16 0 17 1;
#X connect 17 0 22 2;
#X connect 18 0 15 0;
#X connect 19 0 43 1;
#X connect 20 0 43 1;
#X connect 21 0 64 0;
#X connect 21 1 15 1;
#X connect 22 0 19 0;
#X connect 22 1 20 0;
#X connect 23 0 12 0;
#X connect 24 0 25 0;
#X connect 25 0 27 0;
#X connect 26 0 30 0;
#X connect 27 0 26 0;
#X connect 28 0 24 0;
#X connect 28 1 26 1;
#X connect 29 0 31 1;
#X connect 30 0 31 0;
#X connect 31 0 32 1;
#X connect 32 0 4 0;
#X connect 32 0 4 1;
#X connect 33 0 34 0;
#X connect 34 0 36 0;
#X connect 35 0 38 0;
#X connect 36 0 35 0;
#X connect 37 0 33 0;
#X connect 37 1 35 1;
#X connect 38 0 39 0;
#X connect 39 0 40 1;
#X connect 40 0 16 0;
#X connect 40 0 16 1;
#X connect 41 0 76 0;
#X connect 43 0 44 0;
#X connect 43 0 56 0;
#X connect 45 0 39 1;
#X connect 46 0 9 0;
#X connect 47 0 28 0;
#X connect 48 0 21 0;
#X connect 49 0 37 0;
#X connect 50 0 19 1;
#X connect 51 0 8 1;
#X connect 52 0 7 1;
#X connect 53 0 20 1;
#X connect 54 0 43 0;
#X connect 54 0 41 0;
#X connect 54 0 75 0;
#X connect 58 0 57 0;
#X connect 59 0 60 0;
#X connect 60 0 61 0;
#X connect 61 0 62 0;
#X connect 62 0 64 1;
#X connect 62 0 65 1;
#X connect 63 0 66 0;
#X connect 64 0 13 0;
#X connect 65 0 1 0;
#X connect 65 0 70 0;
#X connect 66 0 59 0;
#X connect 69 0 71 0;
#X connect 70 0 69 0;
#X connect 71 0 72 0;
#X connect 72 0 74 1;
#X connect 73 0 74 0;
#X connect 74 0 75 1;
#X connect 75 0 76 1;
#X connect 76 0 77 0;
#X connect 77 0 55 0;
#X connect 77 0 42 0;
#X connect 78 0 77 1;
#X restore 165 233 pd audio-works;
#N canvas 441 447 450 202 tests 0;
#X obj 56 61 inlet;
#X obj 233 53 inlet;
#X obj 56 87 != 0;
#X obj 56 113 * 0.03;
#X obj 231 81 != 0;
#X obj 228 108 * 0.03;
#X obj 56 137 throw~ adc1-addin;
#X obj 228 135 throw~ adc2-addin;
#X floatatom 342 66 5 0 0 0 - - -;
#X obj 348 91 s testtone-1;
#X connect 0 0 2 0;
#X connect 1 0 4 0;
#X connect 2 0 3 0;
#X connect 3 0 6 0;
#X connect 4 0 5 0;
#X connect 5 0 7 0;
#X connect 8 0 9 0;
#X restore 16 318 pd tests;
#X obj 12 16 sequencer;
#X obj 517 60 vu 15 120 vu-out1 empty -1 -8 0 8 -66577 -1 0 0;
#X obj 564 62 vu 15 120 vu-out2 empty -1 -8 0 8 -66577 -1 0 0;
#X obj 16 296 tgl 15 0 empty empty empty 0 -6 0 8 -262144 -1 -1 0 1
;
#X obj 67 297 tgl 15 0 empty empty empty 0 -6 0 8 -262144 -1 -1 0 1
;
#X text 407 13 MANTRA;
#X text 510 187 LEFT;
#X text 554 187 RIGHT;
#N canvas 308 302 630 396 controls 0;
#X obj 31 95 setline ring1-pitch;
#X obj 31 182 setctl pitctl1;
#X obj 31 202 setctl ctl-select1;
#X obj 184 184 setctl pitctl2;
#X obj 184 203 setctl ctl-select2;
#X obj 31 117 setline ring1-p2;
#X obj 31 139 setline ring1-plus;
#X obj 31 161 setline ring1-minus;
#X obj 184 97 setline ring2-pitch;
#X obj 184 119 setline ring2-p2;
#X obj 184 141 setline ring2-plus;
#X obj 184 163 setline ring2-minus;
#X obj 372 102 s ring1-pitch;
#X obj 373 42 r sl1_snd;
#X obj 373 82 ftom;
#X obj 474 47 r ring1-pitch;
#X obj 475 69 mtof;
#X msg 476 91 set \$1;
#X obj 475 111 s sl1_rcv;
#X obj 370 175 ftom;
#X obj 472 162 mtof;
#X msg 473 184 set \$1;
#X obj 370 154 r sl2_snd;
#X obj 369 195 s ring2-pitch;
#X obj 471 140 r ring2-pitch;
#X obj 472 204 s sl2_rcv;
#X floatatom 88 13 5 0 0 0 ring1-p2 ring1-p2-set ring1-p2;
#X floatatom 228 14 5 0 0 0 ring2-p2 ring2-p2-set ring2-p2;
#X floatatom 89 31 3 0 127 0 pitctl1 pitctl1-set pitctl1;
#X floatatom 89 49 3 0 127 0 ctl-select1 ctl-select1-set ctl-select1
;
#X floatatom 229 31 3 0 127 0 pitctl2 pitctl2-set pitctl2;
#X floatatom 229 49 3 0 127 0 ctl-select2 ctl-select2-set ctl-select2
;
#X obj 27 286 setctl filter-bypass;
#X obj 31 237 setline highpass1-freq;
#X obj 30 261 setline highpass1-bw;
#X connect 13 0 14 0;
#X connect 14 0 12 0;
#X connect 15 0 16 0;
#X connect 16 0 17 0;
#X connect 17 0 18 0;
#X connect 19 0 23 0;
#X connect 20 0 21 0;
#X connect 21 0 25 0;
#X connect 22 0 19 0;
#X connect 24 0 20 0;
#X restore 531 468 pd controls;
#X floatatom 533 289 3 0 120 0 ring1-plus ring1-plus-set ring1-plus
;
#X floatatom 533 308 3 0 120 0 ring1-minus ring1-minus-set ring1-minus
;
#X floatatom 674 269 5 0 0 0 ring2-pitch ring2-pitch-set ring2-pitch
;
#X floatatom 674 288 3 0 120 0 ring2-plus ring2-plus-set ring2-plus
;
#X floatatom 674 307 3 0 120 0 ring2-minus ring2-minus-set ring2-minus
;
#X obj 382 62 vu 15 120 vu-in1 empty -1 -8 0 8 -66577 -1 0 0;
#X obj 430 62 vu 15 120 vu-in2 empty -1 -8 0 8 -66577 -1 0 0;
#X text 376 187 LEFT;
#X text 420 187 RIGHT;
#X text 381 41 --input--;
#X text 399 76 -90-;
#X text 399 103 -85-;
#X text 399 118 -80-;
#X text 399 134 -70-;
#X text 399 154 -50-;
#X text 533 76 -90-;
#X text 533 103 -85-;
#X text 533 118 -80-;
#X text 533 134 -70-;
#X text 533 154 -50-;
#X text 519 40 -output-;
#N canvas 656 220 712 447 readsf 0;
#X obj 287 211 vsl 15 101 0 100 0 0 empty empty empty 0 -8 0 8 -262144
-1 -1 9500 1;
#X floatatom 285 331 5 0 0 0 - - -;
#X obj 10 162 openpanel;
#X obj 10 138 bng 20 250 50 0 empty empty empty 0 -6 0 8 -262144 -1
-1;
#X obj 77 240 symbol;
#X floatatom 79 340 5 0 0 0 - - -;
#X symbolatom 77 259 25 0 0 0 - - -;
#X obj 84 156 bng 20 250 50 0 empty empty empty 0 -6 0 8 -262144 -1
-1;
#X text 72 136 restart;
#X floatatom 116 291 5 0 0 0 - - -;
#X text 116 274 start point;
#X obj 38 264 bng 20 250 50 0 empty empty empty 0 -6 0 8 -262144 -1
-1;
#X text 38 247 stop;
#X obj 79 190 r sfreader-play;
#X obj 421 58 tgl 15 0 empty empty empty 17 7 0 10 -262144 -1 -1 0
1;
#N canvas 1 31 392 313 loop 0;
#X obj 86 23 inlet;
#X obj 187 103 spigot;
#X obj 88 98 sel 0 1;
#X obj 145 220 s sfreader-play;
#X obj 145 194 b;
#X obj 41 223 s stop-disk;
#X obj 217 47 r readsf-sf-done;
#X obj 214 73 del 200;
#X connect 0 0 2 0;
#X connect 0 0 1 1;
#X connect 1 0 4 0;
#X connect 2 1 4 0;
#X connect 4 0 3 0;
#X connect 6 0 7 0;
#X connect 7 0 1 0;
#X restore 420 78 pd loop;
#X text 288 354 direct;
#X obj 422 27 r sfreader-loop;
#X obj 372 229 r test-loop-1;
#X obj 372 253 sel 1 0;
#X msg 403 285 \; sfreader-loop 0 \; stop-disk bang;
#N canvas 697 22 722 598 sfplay-works 0;
#X obj 69 42 inlet;
#X obj 268 160 r reset;
#X msg 268 207 0;
#X obj 464 171 line~;
#X obj 447 296 *~;
#X obj 464 146 pack 0 30;
#X obj 464 121 dbtorms;
#X obj 208 298 metro 1000;
#X obj 208 323 f;
#X obj 240 319 + 1;
#X obj 164 176 samplerate~;
#X obj 136 176 *;
#X obj 98 125 f;
#X msg 108 292 0;
#X obj 51 186 pack s 0;
#X msg 138 292 1;
#X text 297 210 stop;
#X obj 216 85 inlet;
#X obj 208 350 outlet;
#X obj 366 97 inlet;
#X obj 463 96 inlet;
#X obj 81 82 symbol;
#X obj 85 61 r restart-disk;
#X obj 253 138 r stop-disk;
#X obj 358 77 r disk-start-point;
#X obj 571 279 switch~;
#X obj 571 259 tgl 15 0 empty empty empty 0 -6 0 8 -262144 -1 -1 0
1;
#X msg 567 231 1;
#X obj 81 102 t s b b b;
#X obj 607 208 r disk-pause;
#X obj 607 231 == 0;
#X obj 141 23 bng 15 250 50 0 empty empty empty 0 -6 0 8 -262144 -1
-1;
#X obj 116 230 del 200;
#X obj 118 206 t b;
#X obj 117 249 1;
#X obj 58 337 s readsf-sf-done;
#X msg 293 264 1;
#X msg 28 232 open \$1 \$2;
#X obj 136 151 + 0;
#X obj 12 296 readsf~ 2;
#X obj 385 433 dac~ 1 3;
#X obj 390 390 *~ 12;
#X connect 0 0 21 0;
#X connect 1 0 2 0;
#X connect 2 0 7 0;
#X connect 2 0 39 0;
#X connect 3 0 4 1;
#X connect 4 0 41 0;
#X connect 5 0 3 0;
#X connect 6 0 5 0;
#X connect 7 0 8 0;
#X connect 8 0 9 0;
#X connect 8 0 18 0;
#X connect 9 0 8 1;
#X connect 10 0 11 1;
#X connect 11 0 14 1;
#X connect 12 0 8 1;
#X connect 12 0 38 0;
#X connect 13 0 7 0;
#X connect 14 0 37 0;
#X connect 14 0 15 0;
#X connect 14 0 33 0;
#X connect 15 0 7 0;
#X connect 17 0 2 0;
#X connect 19 0 12 1;
#X connect 20 0 6 0;
#X connect 21 0 28 0;
#X connect 22 0 21 0;
#X connect 23 0 2 0;
#X connect 24 0 12 1;
#X connect 26 0 25 0;
#X connect 27 0 26 0;
#X connect 28 0 14 0;
#X connect 28 1 12 0;
#X connect 28 2 10 0;
#X connect 28 3 27 0;
#X connect 29 0 30 0;
#X connect 30 0 26 0;
#X connect 31 0 21 0;
#X connect 32 0 34 0;
#X connect 33 0 32 0;
#X connect 34 0 39 0;
#X connect 36 0 39 0;
#X connect 37 0 39 0;
#X connect 38 0 11 0;
#X connect 39 0 4 0;
#X connect 39 2 35 0;
#X connect 39 2 13 0;
#X connect 41 0 40 1;
#X restore 82 313 pd sfplay-works;
#X obj 286 155 loadbang;
#X msg 285 183 95;
#X obj 319 184 r sfplay_level;
#X msg 375 341 \; sfreader-loop 1 \; sfreader-play ./snd/KurzwellMantraOfficieel.wav
;
#X obj 42 10 r sfplay_;
#X obj 39 42 sel 1 0;
#X obj 6 13 tgl 15 0 empty empty empty 17 7 0 10 -262144 -1 -1 0 1
;
#X msg 100 31 \; sfreader-play ./snd/KurzwellMantraOfficieel.wav;
#X msg 10 83 \; sfreader-play ./snd/KurzwellMantraRemixSerge.aif;
#X connect 0 0 1 0;
#X connect 1 0 21 3;
#X connect 2 0 4 0;
#X connect 3 0 2 0;
#X connect 4 0 6 0;
#X connect 6 0 21 0;
#X connect 7 0 4 0;
#X connect 9 0 21 2;
#X connect 11 0 21 1;
#X connect 13 0 4 0;
#X connect 14 0 15 0;
#X connect 17 0 14 0;
#X connect 18 0 19 0;
#X connect 19 0 25 0;
#X connect 19 1 20 0;
#X connect 21 0 5 0;
#X connect 22 0 23 0;
#X connect 23 0 0 0;
#X connect 24 0 0 0;
#X connect 26 0 27 0;
#X connect 27 0 30 0;
#X connect 27 1 11 0;
#X connect 28 0 27 0;
#X restore 15 389 pd readsf;
#N canvas 421 577 1086 665 samplor 0;
#X obj 241 450 loadbang;
#N canvas 105 410 1335 490 keygroupSyntax 0;
#X msg 179 143 1 D#0_F.mo 27 20 29 1 127 \, 2 G#0_F2.mo 32 30 34 1
127 \, 3 C#1.mo 37 35 39 1 127 \, 4 F1.mo 41 40 43 1 127 \, 5 C2.mo
48 44 50 1 127 \, 6 G2.mo 55 51 57 1 127 \, 7 C3.mo 60.1 58 62 1 127
\, 8 F#3.mo 66 63 68 1 127 \, 9 C4.mo 72 69 74 1 127 \, 10 F4.mo 77
75 79 1 127 \, 11 B4.mo 83 80 85 1 127 \, 12 F5.mo 89 86 89 1 127 \,
13 G5.mo 91 90 93 1 127 \, 14 B5.mo 95 94 97 1 127 \, 15 F6.mo 101
98 120 1 127;
#X msg 105 109 1 test2 60 48 72 65 127 100 222;
#X msg 49 73 1 test1 60 48 72 1 64 100 222;
#X obj 100 256 outlet;
#X text 67 27 <Channel soundname pitch minpitch maxpitch minvel maxvel
starttime endtime>;
#X connect 0 0 3 0;
#X connect 1 0 3 0;
#X connect 2 0 3 0;
#X restore 158 181 pd keygroupSyntax;
#X obj 51 283 tgl 15 0 empty empty empty 17 7 0 10 -262144 -1 -1 0
1;
#X floatatom 294 179 0 0 0 0 - - -;
#X msg 61 170 clear;
#X obj 219 351 samplork;
#X obj 39 212 tgl 15 0 empty empty empty 17 7 0 10 -262144 -1 -1 0
1;
#X msg 60 213 debug \$1;
#X msg 45 333 exportastext;
#N canvas 267 22 1152 674 importMachFivePresets 0;
#X obj 547 486 outlet;
#X obj 777 431 outlet;
#X obj 547 34 bng 15 250 50 0 empty empty empty 17 7 0 10 -262144 -1
-1;
#X obj 487 -63 loadbang;
#X msg 579 370 import \$1;
#X obj 579 144 unpack s 0;
#X msg 579 85 ConcertGrndPnoClassical 1 \, Hp-ord.fxp 2 \, crotales
3 \, pacman 4 \, trombone 5 \, trompette 6 \, cor 7 \, pizzharpe 8
\, TubularBells 9;
#X obj 579 337 makefilename %s;
#X obj 579 169 pack symbol s;
#X obj 547 53 t b b b;
#X obj 7 26 bng 15 250 50 0 empty empty empty 17 7 0 10 -262144 -1
-1;
#X msg 735 203 clear;
#X obj 44 139 unpack s 0;
#X obj 7 45 t b b b;
#X msg 44 173 read \$1;
#X msg 44 77 ConcertGrndPnoClassical.M5p 1 \, Hp-ord.fxp.M5p 2 \, crotales.M5p
3 \, pacman.M5p 4 \, trombone.M5p 5 \, trompette.M5p 6 \, cor.M5p 7
\, pizzharpe.M5p 8 \, TubularBells.M5p 9;
#X msg 632 257 set /Users/lemouton/Projets/Co/Stockhausen/mantra2015/mantra-pd/lib/samplor/%s.M5p
;
#X connect 2 0 9 0;
#X connect 3 0 2 0;
#X connect 4 0 0 0;
#X connect 5 0 8 0;
#X connect 5 1 1 0;
#X connect 6 0 5 0;
#X connect 7 0 4 0;
#X connect 8 0 7 0;
#X connect 9 0 0 0;
#X connect 9 1 6 0;
#X connect 9 2 16 0;
#X connect 10 0 13 0;
#X connect 11 0 0 0;
#X connect 12 0 14 0;
#X connect 12 1 1 0;
#X connect 13 0 0 0;
#X connect 13 1 15 0;
#X connect 14 0 0 0;
#X connect 15 0 12 0;
#X connect 16 0 7 0;
#X restore 128 146 pd importMachFivePresets;
#X text 288 134 channel;
#X text 383 -27 pitch - vel - dur - onset -rise - decay- sample;
#X obj 732 211 r samp-note;
#X obj 768 290 mtof;
#X obj 767 313 / 261.6;
#X obj 869 317 / 127;
#X msg 385 -1 \; samp-note 64 150 8000 0 10 50 pacman-a-1.aif;
#X obj 732 237 unpack 60 100 1000 0 10 50 s;
#X obj 732 357 pack 0 s 100 1000 0 10;
#X obj 732 263 t b f;
#X obj 732 381 s samplor_;
#X obj 65 506 r samplor_;
#X floatatom 29 91 5 0 0 0 - - -;
#N canvas 836 431 485 382 makenote+ 0;
#X obj 114 50 inlet;
#X msg 107 90 \$3 \$1 \$2;
#X obj 102 169 unpack 0 0;
#X obj 206 173 unpack 0 0;
#X obj 109 119 route 1 2 3;
#X obj 297 175 unpack 0 0;
#X obj 98 266 pack 0 0 1;
#X obj 197 270 pack 0 0 2;
#X obj 305 268 pack 0 0 3;
#X obj 116 312 unpack 0 0 1;
#X obj 77 346 outlet;
#X obj 156 346 outlet;
#X obj 198 382;
#X obj 216 346 outlet;
#X obj 47 208 makenote 60 1000;
#X obj 206 213 makenote 60 1000;
#X obj 341 216 makenote 60 1000;
#X obj 261 51 inlet;
#X connect 0 0 1 0;
#X connect 1 0 4 0;
#X connect 2 0 14 0;
#X connect 2 1 14 1;
#X connect 3 0 15 0;
#X connect 3 1 15 1;
#X connect 4 0 2 0;
#X connect 4 1 3 0;
#X connect 4 2 5 0;
#X connect 5 0 16 0;
#X connect 5 1 16 1;
#X connect 6 0 9 0;
#X connect 7 0 9 0;
#X connect 8 0 9 0;
#X connect 9 0 10 0;
#X connect 9 1 11 0;
#X connect 9 2 13 0;
#X connect 14 0 6 0;
#X connect 14 1 6 1;
#X connect 15 0 7 0;
#X connect 15 1 7 1;
#X connect 16 0 8 0;
#X connect 16 1 8 1;
#X connect 17 0 14 2;
#X connect 17 0 15 2;
#X connect 17 0 16 2;
#X restore 423 179 pd makenote+;
#X msg 241 476 adsr 2 1 100 1000;
#X obj 521 129 loadbang;
#X msg 386 39 \; samplor_ adsr 2 1 100 1000;
#X msg 581 38 \; samplor_ adsr 800 1 100 1;
#X obj 835 331 * 1;
#X msg 78 378 interpol 3;
#X msg 79 361 interpol 1;
#X obj 583 156 r s-notes-dur;
#X msg 51 301 velcurve \$1;
#X msg 521 154 1000;
#X obj 219 501 samplor2~ 1 64;
#X floatatom 10 396 5 0 0 0 - - -;
#X msg 10 428 voice_stealing \$1;
#X obj 219 389 unpack 0 s 0 0 0 0;
#X obj 424 156 r s-notes+;
#X obj 325 176 unpack 0 0 0;
#X obj 326 152 r s-notes;
#X obj 310 335 r s-notes-dur;
#X floatatom 309 360 5 0 0 0 - - -;
#X msg 55 264 0;
#X obj 45 242 loadbang;
#X obj 219 420 pack 0 s 0 0 0 0;
#X msg 61 191 print 8;
#X obj 219 530 throw~ adc1-addin;
#X obj 29 25 metro 1000;
#X obj 29 -2 tgl 15 0 empty empty empty 17 7 0 10 -262144 -1 -1 0 1
;
#X obj 29 69 + 57;
#X obj 28 -24 inlet;
#X msg 29 109 \; s-notes \$1 100 1 \;;
#X obj 336 531 send-vu vu-samplor meters;
#X obj 154 -14 vu 15 120 vu-samplor empty -1 -8 0 8 -66577 -1 0 0;
#N canvas 51 22 1301 944 sound-buffers 0;
#X obj 251 20 skg.buffer~ Piano_Stein_m_A0.aif;
#X obj 251 38 skg.buffer~ Piano_Stein_m_A1.aif;
#X obj 251 56 skg.buffer~ Piano_Stein_m_A4.aif;
#X obj 251 74 skg.buffer~ Piano_Stein_m_B2.aif;
#X obj 251 92 skg.buffer~ Piano_Stein_m_B3.aif;
#X obj 251 110 skg.buffer~ Piano_Stein_m_B6.aif;
#X obj 251 128 skg.buffer~ Piano_Stein_m_C#3.aif;
#X obj 251 146 skg.buffer~ Piano_Stein_m_C1.aif;
#X obj 251 164 skg.buffer~ Piano_Stein_m_C2.aif;
#X obj 251 182 skg.buffer~ Piano_Stein_m_C5.aif;
#X obj 251 200 skg.buffer~ Piano_Stein_m_C6.aif;
#X obj 251 218 skg.buffer~ Piano_Stein_m_C7.aif;
#X obj 251 236 skg.buffer~ Piano_Stein_m_D0.aif;
#X obj 251 254 skg.buffer~ Piano_Stein_m_D4.aif;
#X obj 251 272 skg.buffer~ Piano_Stein_m_E1.aif;
#X obj 251 290 skg.buffer~ Piano_Stein_m_E2.aif;
#X obj 251 308 skg.buffer~ Piano_Stein_m_E3.aif;
#X obj 251 326 skg.buffer~ Piano_Stein_m_E5.aif;
#X obj 251 344 skg.buffer~ Piano_Stein_m_E6.aif;
#X obj 251 362 skg.buffer~ Piano_Stein_m_F1.aif;
#X obj 251 380 skg.buffer~ Piano_Stein_m_F4.aif;
#X obj 251 398 skg.buffer~ Piano_Stein_m_G0.aif;
#X obj 251 416 skg.buffer~ Piano_Stein_m_G2.aif;
#X obj 251 434 skg.buffer~ Piano_Stein_m_G3.aif;
#X obj 251 452 skg.buffer~ Piano_Stein_m_G5.aif;
#X obj 251 470 skg.buffer~ Piano_Stein_m_G6.aif;
#X obj 251 488 skg.buffer~ Piano_Stein_p_A-1.aif;
#X obj 251 506 skg.buffer~ Piano_Stein_p_A0.aif;
#X obj 251 524 skg.buffer~ Piano_Stein_p_A1.aif;
#X obj 251 542 skg.buffer~ Piano_Stein_p_A4.aif;
#X obj 251 560 skg.buffer~ Piano_Stein_p_B2.aif;
#X obj 251 578 skg.buffer~ Piano_Stein_p_B3.aif;
#X obj 251 596 skg.buffer~ Piano_Stein_p_B6.aif;
#X obj 251 614 skg.buffer~ Piano_Stein_p_C#3.aif;
#X obj 251 632 skg.buffer~ Piano_Stein_p_C1.aif;
#X obj 251 650 skg.buffer~ Piano_Stein_p_C2.aif;
#X obj 251 668 skg.buffer~ Piano_Stein_p_C5_.aif;
#X obj 251 686 skg.buffer~ Piano_Stein_p_C7_.aif;
#X obj 251 704 skg.buffer~ Piano_Stein_p_D0.aif;
#X obj 251 722 skg.buffer~ Piano_Stein_p_D4.aif;
#X obj 251 740 skg.buffer~ Piano_Stein_p_E1.aif;
#X obj 251 758 skg.buffer~ Piano_Stein_p_E2.aif;
#X obj 251 776 skg.buffer~ Piano_Stein_p_E3.aif;
#X obj 251 794 skg.buffer~ Piano_Stein_p_E6_.aif;
#X obj 251 812 skg.buffer~ Piano_Stein_p_F1.aif;
#X obj 251 830 skg.buffer~ Piano_Stein_p_F4.aif;
#X obj 251 848 skg.buffer~ Piano_Stein_p_G0.aif;
#X obj 251 866 skg.buffer~ Piano_Stein_p_G2.aif;
#X obj 251 883 skg.buffer~ Piano_Stein_p_G3.aif;
#X obj 251 901 skg.buffer~ Piano_Stein_p_G6.aif;
#X obj 251 2 skg.buffer~ Piano_Stein_m_A-1.aif;
#X restore 208 2 pd sound-buffers;
#X floatatom 102 77 5 0 0 0 - - -;
#X obj 174 593 dac~ 1;
#X obj 521 319 samplerate~;
#X floatatom 518 346 5 0 0 0 - - -;
#X obj 520 297 bng 15 250 50 0 empty empty empty 17 7 0 10 -262144
-1 -1;
#X obj 520 375 / 44100;
#X obj 508 402 / 1;
#X obj 519 271 loadbang;
#X obj 29 47 random 12;
#X connect 0 0 24 0;
#X connect 1 0 5 0;
#X connect 2 0 32 0;
#X connect 3 0 5 2;
#X connect 4 0 5 0;
#X connect 5 0 37 0;
#X connect 6 0 7 0;
#X connect 7 0 5 0;
#X connect 8 0 5 0;
#X connect 9 0 5 0;
#X connect 9 1 3 0;
#X connect 12 0 17 0;
#X connect 13 0 14 0;
#X connect 14 0 18 4;
#X connect 14 0 28 0;
#X connect 15 0 18 5;
#X connect 17 0 19 0;
#X connect 17 1 15 0;
#X connect 17 2 28 1;
#X connect 17 3 18 2;
#X connect 17 6 18 1;
#X connect 18 0 20 0;
#X connect 19 0 18 0;
#X connect 19 1 13 0;
#X connect 21 0 34 0;
#X connect 22 0 52 0;
#X connect 23 0 5 0;
#X connect 23 1 5 1;
#X connect 23 2 5 2;
#X connect 24 0 34 0;
#X connect 25 0 33 0;
#X connect 28 0 18 3;
#X connect 29 0 34 0;
#X connect 30 0 34 0;
#X connect 31 0 23 1;
#X connect 32 0 5 0;
#X connect 33 0 23 1;
#X connect 34 0 47 0;
#X connect 34 0 53 0;
#X connect 34 0 57 0;
#X connect 35 0 36 0;
#X connect 36 0 34 0;
#X connect 37 0 45 0;
#X connect 37 1 45 1;
#X connect 37 2 45 2;
#X connect 37 4 62 0;
#X connect 37 5 45 5;
#X connect 38 0 23 0;
#X connect 39 0 5 0;
#X connect 39 1 5 1;
#X connect 39 2 5 2;
#X connect 40 0 39 0;
#X connect 41 0 42 0;
#X connect 42 0 45 3;
#X connect 43 0 2 0;
#X connect 44 0 43 0;
#X connect 45 0 34 0;
#X connect 46 0 5 0;
#X connect 48 0 64 0;
#X connect 49 0 48 0;
#X connect 50 0 22 0;
#X connect 51 0 49 0;
#X connect 56 0 50 1;
#X connect 58 0 59 0;
#X connect 59 0 61 0;
#X connect 60 0 58 0;
#X connect 61 0 62 1;
#X connect 62 0 45 4;
#X connect 63 0 60 0;
#X connect 64 0 50 0;
#X restore 14 367 pd samplor;
#N canvas 524 63 930 831 GUI 0;
#X obj 22 36 vsl 15 220 185 3520 1 1 sl1_snd sl1_rcv slider_piano1
-20 -20 0 10 -4160 -257985 -260097 0 1;
#X obj 124 24 vsl 15 220 55 3520 1 1 sl2_snd sl2_rcv slider_piano2
11 -6 0 10 -99865 -262144 -260097 0 1;
#X text 15 267 de solb2 à la6 (54->105);
#X text 122 249 de sib1 à la6 (46->105);
#X obj 10 287 r ring1-pitch;
#X obj 32 358 int;
#X floatatom -16 478 5 0 0 0 - - -;
#X floatatom 54 485 5 0 0 0 - - -;
#X obj -7 525 i;
#X obj -23 504 bng 15 250 50 0 empty empty empty 17 7 0 10 -262144
-1 -1;
#X floatatom -10 567 5 0 0 0 - - -;
#X obj -1 422 abs;
#X obj 8 451 moses 0.05;
#X obj -9 592 sel 57 59 68 64 65 62 67 63 61 60 58 54;
#X msg -10 616 1;
#X msg 12 636 2;
#X msg 22 614 3;
#X msg 44 640 4;
#X msg 56 615 5;
#X msg 78 641 6;
#X msg 91 614 7;
#X msg 113 639 8;
#X msg 124 615 9;
#X msg 146 641 10;
#X msg 161 616 11;
#X msg 183 642 12;
#X obj 30 713 s pitch_label1;
#X msg 215 619 LA;
#X msg 237 639 SI;
#X msg 246 617 SOL#;
#X msg 269 643 MI;
#X msg 281 618 FA;
#X msg 303 644 RE;
#X msg 316 617 SOL;
#X msg 338 642 MIb;
#X msg 349 618 Reb;
#X msg 371 644 DO;
#X msg 386 619 SIb;
#X msg 408 645 Solb;
#X obj 266 704 s pitch_name1;
#X obj 90 436 s pitch_ecart1;
#X msg 10 311 \$1;
#X obj 40 333 + 0.5;
#X obj 2 395 -;
#X obj 222 534 sel 57 59 68 64 65 62 67 63 61 60 58 54 66;
#X msg 433 617 Fa#;
#X msg 509 605 DO;
#X msg 532 631 DO#;
#X msg 544 606 RE;
#X msg 566 632 MIB;
#X msg 579 605 MI;
#X msg 601 630 FA;
#X msg 612 606 FA#;
#X msg 634 632 SOL;
#X msg 649 607 SOL#;
#X msg 671 633 LA;
#X msg 707 636 Sib;
#X msg 722 611 SI;
#X obj 543 538 % 12;
#X obj 542 566 sel 0 1 2 3 4 5 6 7 8 9 10 11;
#X obj 529 692 s pitch_name1;
#X connect 4 0 41 0;
#X connect 5 0 8 1;
#X connect 5 0 43 1;
#X connect 5 0 58 0;
#X connect 6 0 9 0;
#X connect 7 0 26 0;
#X connect 8 0 10 0;
#X connect 9 0 8 0;
#X connect 10 0 13 0;
#X connect 11 0 12 0;
#X connect 12 0 6 0;
#X connect 12 1 7 0;
#X connect 13 0 14 0;
#X connect 13 1 15 0;
#X connect 13 2 16 0;
#X connect 13 3 17 0;
#X connect 13 4 18 0;
#X connect 13 5 19 0;
#X connect 13 6 20 0;
#X connect 13 7 21 0;
#X connect 13 8 22 0;
#X connect 13 9 23 0;
#X connect 13 10 24 0;
#X connect 13 11 25 0;
#X connect 14 0 26 0;
#X connect 15 0 26 0;
#X connect 16 0 26 0;
#X connect 17 0 26 0;
#X connect 18 0 26 0;
#X connect 19 0 26 0;
#X connect 20 0 26 0;
#X connect 21 0 26 0;
#X connect 22 0 26 0;
#X connect 23 0 26 0;
#X connect 24 0 26 0;
#X connect 25 0 26 0;
#X connect 27 0 39 0;
#X connect 28 0 39 0;
#X connect 29 0 39 0;
#X connect 30 0 39 0;
#X connect 31 0 39 0;
#X connect 32 0 39 0;
#X connect 33 0 39 0;
#X connect 34 0 39 0;
#X connect 35 0 39 0;
#X connect 36 0 39 0;
#X connect 37 0 39 0;
#X connect 38 0 39 0;
#X connect 41 0 42 0;
#X connect 41 0 43 0;
#X connect 42 0 5 0;
#X connect 43 0 11 0;
#X connect 43 0 40 0;
#X connect 44 0 27 0;
#X connect 44 1 28 0;
#X connect 44 2 29 0;
#X connect 44 3 30 0;
#X connect 44 4 31 0;
#X connect 44 5 32 0;
#X connect 44 6 33 0;
#X connect 44 7 34 0;
#X connect 44 8 35 0;
#X connect 44 9 36 0;
#X connect 44 10 37 0;
#X connect 44 11 38 0;
#X connect 44 12 45 0;
#X connect 45 0 39 0;
#X connect 46 0 60 0;
#X connect 47 0 60 0;
#X connect 48 0 60 0;
#X connect 49 0 60 0;
#X connect 50 0 60 0;
#X connect 51 0 60 0;
#X connect 52 0 60 0;
#X connect 53 0 60 0;
#X connect 54 0 60 0;
#X connect 55 0 60 0;
#X connect 56 0 60 0;
#X connect 57 0 60 0;
#X connect 58 0 59 0;
#X connect 59 0 46 0;
#X connect 59 1 47 0;
#X connect 59 2 48 0;
#X connect 59 3 49 0;
#X connect 59 4 50 0;
#X connect 59 5 51 0;
#X connect 59 6 52 0;
#X connect 59 7 53 0;
#X connect 59 8 54 0;
#X connect 59 9 55 0;
#X connect 59 10 56 0;
#X connect 59 11 57 0;
#X restore 148 402 pd GUI;
#N canvas 444 162 1208 713 controllers-IPADS 0;
#X obj 201 55 udpreceive 9997;
#X obj 89 80 unpackOSC;
#X obj 34 117 print;
#X obj 32 92 spigot;
#X obj 65 60 tgl 15 0 empty empty empty 17 7 0 10 -262144 -1 -1 0 1
;
#X obj 89 52 udpreceive 8006;
#X obj 245 405 packOSC;
#X msg 242 367 /1/note \$1;
#N canvas 859 91 1049 431 IPAD-piano1 0;
#X obj 79 -13 inlet;
#X obj 87 247 s ring1-pitch;
#X obj 79 66 routeOSC /pitch;
#X floatatom 85 203 5 0 0 0 - - -;
#X obj 81 21 routeOSC /1 /2 /3;
#X obj 279 171 s sfplay_;
#X obj 409 291 s sfplay_level;
#X obj 279 143 routeOSC /start /level;
#X msg 87 224 \$1 75;
#X obj -62 59 routeOSC /frequency;
#X obj 184 122 ftom;
#X obj 406 218 tabread level-scale;
#X obj 409 196 nbx 5 14 -1e+37 1e+37 0 0 empty empty empty 0 -8 0 10
-262144 -1 -1 0 256;
#X obj 560 76 table level-scale 127;
#X obj 406 239 + 1;
#X obj 408 264 * 50;
#X msg 669 226 \; level-scale read mantra-level-scale.txt;
#X msg 714 94 \; level-scale write /tmp/mantra-level-scale.txt;
#X obj 704 189 loadbang;
#X obj 281 292 s to_master_ipad;
#X obj 283 258 / 100;
#X obj 234 -6 receive fromGUI;
#X obj 235 16 route list;
#X obj 249 113 + 54;
#X obj 250 84 * 14;
#X obj 186 94 + 54;
#X obj 187 65 * 14;
#X obj 295 82 * 28;
#X obj 294 111 + 62;
#X obj 234 39 route /1/frequency /1/pitch /2/pitch /3/start /3/level
;
#X connect 0 0 4 0;
#X connect 2 0 3 0;
#X connect 3 0 8 0;
#X connect 4 0 2 0;
#X connect 4 0 9 0;
#X connect 4 1 2 0;
#X connect 4 2 7 0;
#X connect 7 0 5 0;
#X connect 7 1 12 0;
#X connect 8 0 1 0;
#X connect 9 0 10 0;
#X connect 10 0 3 0;
#X connect 11 0 14 0;
#X connect 12 0 11 0;
#X connect 14 0 15 0;
#X connect 15 0 6 0;
#X connect 15 0 20 0;
#X connect 18 0 16 0;
#X connect 20 0 19 0;
#X connect 21 0 22 0;
#X connect 22 0 29 0;
#X connect 23 0 3 0;
#X connect 24 0 23 0;
#X connect 25 0 10 0;
#X connect 26 0 25 0;
#X connect 27 0 28 0;
#X connect 28 0 3 0;
#X connect 29 0 26 0;
#X connect 29 1 24 0;
#X connect 29 2 27 0;
#X connect 29 3 5 0;
#X connect 29 4 12 0;
#X restore 90 118 pd IPAD-piano1;
#N canvas 363 482 1034 545 IPAD-piano2 0;
#X obj -9 17 inlet;
#X obj -8 85 routeOSC /pitch;
#X floatatom -8 157 5 0 0 0 - - -;
#X obj -7 51 routeOSC /2p1 /2p2 /2p3;
#X obj -8 200 s ring2-pitch;
#X obj 115 105 ftom;
#X obj 115 82 routeOSC /pitch;
#X obj 299 6 r ring2-pitch;
#X obj 391 265 s pitch_name2;
#X obj 275 131 s pitch_ecart2;
#X msg 371 178 DO;
#X msg 394 204 DO#;
#X msg 406 179 RE;
#X msg 428 205 MIB;
#X msg 441 178 MI;
#X msg 463 203 FA;
#X msg 474 179 FA#;
#X msg 496 205 SOL;
#X msg 511 180 SOL#;
#X msg 533 206 LA;
#X msg 569 209 Sib;
#X msg 584 184 SI;
#X msg -8 177 \$1 75;
#X msg 313 26 \$1;
#X obj 313 46 + 0.5;
#X obj 305 71 int;
#X obj 275 108 - 0;
#X obj 91 148 routeOSC /frequency;
#X obj 91 170 ftom;
#X obj 405 111 % 12;
#X obj 404 139 sel 0 1 2 3 4 5 6 7 8 9 10 11;
#X connect 0 0 3 0;
#X connect 1 0 2 0;
#X connect 2 0 22 0;
#X connect 3 0 1 0;
#X connect 3 0 27 0;
#X connect 3 1 1 0;
#X connect 3 2 6 0;
#X connect 5 0 2 0;
#X connect 6 0 5 0;
#X connect 7 0 23 0;
#X connect 10 0 8 0;
#X connect 11 0 8 0;
#X connect 12 0 8 0;
#X connect 13 0 8 0;
#X connect 14 0 8 0;
#X connect 15 0 8 0;
#X connect 16 0 8 0;
#X connect 17 0 8 0;
#X connect 18 0 8 0;
#X connect 19 0 8 0;
#X connect 20 0 8 0;
#X connect 21 0 8 0;
#X connect 22 0 4 0;
#X connect 23 0 24 0;
#X connect 23 0 26 0;
#X connect 24 0 25 0;
#X connect 25 0 26 1;
#X connect 25 0 29 0;
#X connect 26 0 9 0;
#X connect 27 0 28 0;
#X connect 28 0 2 0;
#X connect 29 0 30 0;
#X connect 30 0 10 0;
#X connect 30 1 11 0;
#X connect 30 2 12 0;
#X connect 30 3 13 0;
#X connect 30 4 14 0;
#X connect 30 5 15 0;
#X connect 30 6 16 0;
#X connect 30 7 17 0;
#X connect 30 8 18 0;
#X connect 30 9 19 0;
#X connect 30 10 20 0;
#X connect 30 11 21 0;
#X restore 180 118 pd IPAD-piano2;
#X text 113 313 back to ipad :;
#X msg 66 405 connect 169.254.1.1 5006;
#X obj 250 318 r pitch_label1;
#X obj 341 315 r pitch_name1;
#X obj 482 313 r pitch_ecart1;
#X msg 482 365 /1/fineTune \$1;
#X msg 341 367 /1/pitchDisplay \$1;
#X obj 348 343 symbol;
#X msg 70 367 connect 192.168.0.15 5006;
#X msg 70 436 disconnect;
#X obj 606 337 symbol;
#X obj 599 309 r pitch_name2;
#X obj 740 307 r pitch_ecart2;
#X msg 599 361 /2p1/pitchDisplay \$1;
#X msg 740 359 /2p1/fineTune \$1;
#X obj 247 438 udpsend 169.254.1.1 5006;
#X obj 940 371 mtof;
#X msg 913 401 /1/frequency \$1;
#X obj 939 346 r ring1-pitch;
#X obj 253 591 packOSC;
#X msg 250 553 /1/note \$1;
#X text 124 509 back to ipad :;
#X msg 74 591 connect 169.254.1.1 5006;
#X obj 258 504 r pitch_label1;
#X obj 349 501 r pitch_name1;
#X obj 490 499 r pitch_ecart1;
#X msg 490 551 /1/fineTune \$1;
#X msg 349 553 /1/pitchDisplay \$1;
#X obj 356 529 symbol;
#X msg 78 553 connect 192.168.0.15 5006;
#X msg 78 622 disconnect;
#X obj 614 523 symbol;
#X obj 607 495 r pitch_name2;
#X obj 748 493 r pitch_ecart2;
#X msg 607 547 /2p1/pitchDisplay \$1;
#X msg 748 545 /2p1/fineTune \$1;
#X obj 889 513 mtof;
#X msg 862 543 /1/frequency \$1;
#X obj 888 488 r ring1-pitch;
#X obj 255 624 udpsend 169.254.1.2 5006;
#X msg 73 343 connect 169.254.249.172 5006;
#X floatatom 101 243 5 0 0 0 - - -;
#X obj 102 198 loadbang;
#X floatatom 34 505 5 0 0 0 - - -;
#X obj 35 460 loadbang;
#X obj 896 294 mtof;
#X obj 895 269 r ring2-pitch;
#X msg 869 324 /2p1/frequency \$1;
#X obj 1006 513 mtof;
#X obj 1005 488 r ring2-pitch;
#X msg 979 543 /2p1/frequency \$1;
#X obj 239 231 inlet;
#X obj 235 470 inlet;
#N canvas 513 160 541 497 IPAD-master 0;
#X obj 9 77 inlet;
#X obj 9 100 routeOSC /1;
#X obj 9 183 * 100;
#X obj 9 208 s tgp;
#X obj 292 180 * 100;
#X obj 194 182 * 100;
#X obj 204 208 s ring1-plus;
#X obj 196 238 s ring1-minus;
#X obj 302 206 s ring2-plus;
#X obj 294 236 s ring2-minus;
#X obj 9 125 routeOSC /fader1 /fader2 /fader3 /fader4;
#X obj 58 254 s sfplay_level;
#X obj 63 162 nbx 5 14 -1e+37 1e+37 0 0 empty empty empty 0 -8 0 10
-262144 -1 -1 0 256;
#X msg 250 367 /1/fader2 \$1;
#X obj 249 400 packOSC;
#X obj 250 433 udpsend 129.255.1.12 5006;
#X msg 69 395 connect 129.255.1.12 5006;
#X obj 69 367 loadbang;
#X obj 249 333 r to_master_ipad;
#X obj 58 229 * 100;
#X connect 0 0 1 0;
#X connect 1 0 10 0;
#X connect 2 0 3 0;
#X connect 4 0 8 0;
#X connect 4 0 9 0;
#X connect 5 0 6 0;
#X connect 5 0 7 0;
#X connect 10 0 2 0;
#X connect 10 1 12 0;
#X connect 10 2 5 0;
#X connect 10 3 4 0;
#X connect 12 0 19 0;
#X connect 13 0 14 0;
#X connect 14 0 15 0;
#X connect 16 0 15 0;
#X connect 17 0 16 0;
#X connect 18 0 13 0;
#X connect 19 0 11 0;
#X restore 281 120 pd IPAD-master;
#X msg 101 262 disconnect \, connect 129.255.1.\$1 5006;
#X msg 34 524 disconnect \, connect 129.255.1.\$1 5006;
#X msg 102 221 101;
#X msg 35 483 102;
#X obj 332 47 udpreceive 9998;
#X msg 545 -159 disconnect \, connect localhost 54310;
#X msg 545 -159 disconnect \, connect localhost 54310;
#X msg 545 -159 disconnect \, connect localhost 54310;
#X msg 545 -159 disconnect \, connect localhost 54310;
#X msg 545 -159 disconnect \, connect localhost 54310;
#X msg 545 -159 disconnect \, connect localhost 54310;
#X msg 545 -159 disconnect \, connect localhost 54310;
#X msg 545 -159 disconnect \, connect localhost 54310;
#X msg 437 411 disconnect \, connect localhost 54310;
#X connect 0 0 1 0;
#X connect 1 0 3 0;
#X connect 1 0 8 0;
#X connect 1 0 9 0;
#X connect 1 0 63 0;
#X connect 3 0 2 0;
#X connect 4 0 3 1;
#X connect 5 0 1 0;
#X connect 6 0 25 0;
#X connect 7 0 6 0;
#X connect 11 0 25 0;
#X connect 12 0 7 0;
#X connect 13 0 17 0;
#X connect 14 0 15 0;
#X connect 15 0 6 0;
#X connect 16 0 6 0;
#X connect 17 0 16 0;
#X connect 18 0 25 0;
#X connect 19 0 25 0;
#X connect 20 0 23 0;
#X connect 21 0 20 0;
#X connect 22 0 24 0;
#X connect 23 0 6 0;
#X connect 24 0 6 0;
#X connect 26 0 27 0;
#X connect 27 0 6 0;
#X connect 28 0 26 0;
#X connect 29 0 49 0;
#X connect 30 0 29 0;
#X connect 32 0 49 0;
#X connect 33 0 30 0;
#X connect 34 0 38 0;
#X connect 35 0 36 0;
#X connect 36 0 29 0;
#X connect 37 0 29 0;
#X connect 38 0 37 0;
#X connect 39 0 49 0;
#X connect 40 0 49 0;
#X connect 41 0 44 0;
#X connect 42 0 41 0;
#X connect 43 0 45 0;
#X connect 44 0 29 0;
#X connect 45 0 29 0;
#X connect 46 0 47 0;
#X connect 47 0 29 0;
#X connect 48 0 46 0;
#X connect 50 0 25 0;
#X connect 51 0 64 0;
#X connect 52 0 66 0;
#X connect 53 0 65 0;
#X connect 54 0 67 0;
#X connect 55 0 57 0;
#X connect 56 0 55 0;
#X connect 57 0 6 0;
#X connect 58 0 60 0;
#X connect 59 0 58 0;
#X connect 60 0 29 0;
#X connect 61 0 25 0;
#X connect 62 0 49 0;
#X connect 64 0 25 0;
#X connect 65 0 49 0;
#X connect 66 0 51 0;
#X connect 67 0 53 0;
#X connect 68 0 1 0;
#X connect 77 0 25 0;
#X restore 148 385 pd controllers-IPADS;
#N canvas 611 311 547 611 simul_compress 0;
#X obj 53 142 openpanel;
#X obj 53 118 bng 20 250 50 0 empty empty empty 0 -6 0 8 -262144 -1
-1;
#X obj 53 163 symbol;
#X msg 51 189 open \$1;
#X obj 15 206 tgl 15 0 empty empty empty 17 7 0 10 -262144 -1 -1 0
1;
#X obj 51 214 readsf~;
#X obj 122 421 throw~ adc1-addin;
#X obj 148 178 print;
#X obj 189 367 limiter~;
#X obj 121 392 *~;
#X msg 346 304 print;
#X obj 359 348 loadbang;
#X msg 359 364 COMPRESS;
#X msg 274 161 ratio 0.5;
#X msg 273 180 set 110 40 150;
#X msg 38 55 open /Users/lemouton/Projets/Co/Stockhausen/mantra-pd/snd/KS5.wav
\, 1;
#X msg 273 143 treshold 75;
#X msg 273 125 limit 70;
#X msg 277 244 compress 96 88 1;
#X obj 81 346 z~ 32;
#X msg 279 198 set 110 5 5;
#X msg 273 222 compress 96 50 0.25;
#X connect 0 0 2 0;
#X connect 1 0 0 0;
#X connect 2 0 3 0;
#X connect 3 0 5 0;
#X connect 3 0 7 0;
#X connect 4 0 5 0;
#X connect 5 0 8 0;
#X connect 5 0 19 0;
#X connect 8 0 9 1;
#X connect 9 0 6 0;
#X connect 10 0 8 0;
#X connect 11 0 12 0;
#X connect 12 0 8 0;
#X connect 13 0 8 0;
#X connect 14 0 8 0;
#X connect 15 0 5 0;
#X connect 16 0 8 0;
#X connect 17 0 8 0;
#X connect 18 0 8 0;
#X connect 19 0 9 0;
#X connect 20 0 8 0;
#X connect 21 0 8 0;
#X restore 14 413 pd simul_compress;
#X floatatom 556 12 3 0 127 0 tuning tuning-set tuning;
#X text 143 296 ipads : Local IP address;
#N canvas 0 22 372 148 pitches 0;
#X msg 210 58 set \$1;
#X obj 210 35 r pitch_name2;
#X obj 210 81 symbol;
#X msg 67 81 set \$1;
#X obj 68 58 symbol;
#X obj 68 35 r pitch_name1;
#X obj 67 105 outlet;
#X obj 210 104 outlet;
#X connect 0 0 7 0;
#X connect 1 0 2 0;
#X connect 2 0 0 0;
#X connect 3 0 6 0;
#X connect 4 0 3 0;
#X connect 5 0 4 0;
#X restore 560 217 pd pitches;
#X msg 556 240 DO;
#X msg 613 240 DO;
#X msg 157 352 disconnect \, connect 169.254.17.17 5006;
#X msg 148 322 disconnect \, connect 169.254.86.188 5006;
#X obj 14 347 tgl 15 0 empty empty empty 17 7 0 10 -262144 -1 -1 0
1;
#N canvas 106 594 450 300 frommobmu 0;
#X restore 14 433 pd frommobmu;
#X text 13 202 TO START :;
#X floatatom 534 336 3 0 120 0 ring0 ring0-set ring0;
#X obj 335 504 declare -path ./lib -path ./lib/samplor -path ./snd
-path .;
#X floatatom 534 358 5 0 0 0 highpass1-freq highpass1-freq-set highpass1-freq
;
#X floatatom 534 380 3 0 120 0 highpass1-bw highpass1-bw-set highpass1-bw
;
#X floatatom 534 402 3 0 1 0 filter-bypass filter-bypass-set filter-bypass
;
#X floatatom 534 424 3 0 1 0 compressor-bypass compressor-bypass-set
compressor-bypass;
#X msg 18 216 reset;
#X connect 7 0 3 0;
#X connect 8 0 3 1;
#X connect 41 0 42 0;
#X connect 41 1 43 0;
#X connect 44 0 37 1;
#X connect 45 0 37 0;
#X connect 46 0 35 0;
#X connect 55 0 0 0;
