#N canvas 0 25 720 528 10;
#X declare -path ./lib -path ./lib/samplor -path ./snd -path ../snd
-path .;
#N canvas 184 410 545 401 reset 0;
#X obj 24 101 r reset;
#X obj 26 48 s section-start;
#X msg 26 25 1;
#X obj 26 2 inlet;
#X obj 92 100 loadbang;
#N canvas 613 137 413 524 qlist_CTL 0;
#X obj 117 410 r print;
#X obj 117 438 print ----;
#X obj 167 127 t f f;
#X obj 167 156 -;
#X msg 207 256 rewind;
#X obj 207 160 sel 0;
#X msg 86 329 0;
#X obj 100 214 t b f b b;
#X msg 215 184 0;
#X msg 216 215 99999;
#X obj 140 324 unpack;
#X obj 9 186 del;
#X obj 140 299 pack;
#X msg 139 251 next;
#X obj 232 286 r section-qlist-number;
#X obj 100 188 moses 0;
#X obj 41 303 moses 1;
#X obj 139 275 qlist;
#X msg 9 160 stop;
#X obj 9 135 r section-reset;
#X floatatom 167 103 5 0 0 0 - - - 0;
#X obj 232 311 route 1;
#X obj 118 461 r comment;
#X obj 97 428 bng 15 250 50 0 empty empty empty 17 7 0 10 #fcfcfc #000000
#000000;
#X msg 167 78 0;
#X obj 167 29 r section-start;
#X obj 167 53 sel 1;
#X connect 0 0 1 0;
#X connect 2 0 3 0;
#X connect 2 1 5 0;
#X connect 3 0 15 0;
#X connect 4 0 17 0;
#X connect 5 0 8 0;
#X connect 5 0 4 0;
#X connect 6 0 11 1;
#X connect 7 0 11 0;
#X connect 7 1 16 0;
#X connect 7 2 13 0;
#X connect 7 3 9 0;
#X connect 8 0 3 1;
#X connect 9 0 3 1;
#X connect 10 0 11 1;
#X connect 10 1 3 1;
#X connect 11 0 3 0;
#X connect 12 0 10 0;
#X connect 13 0 17 0;
#X connect 14 0 21 0;
#X connect 15 1 7 0;
#X connect 16 1 6 0;
#X connect 17 0 12 0;
#X connect 18 0 11 0;
#X connect 19 0 18 0;
#X connect 20 0 2 0;
#X connect 21 0 17 0;
#X connect 23 0 1 0;
#X connect 24 0 20 0;
#X connect 25 0 26 0;
#X connect 26 0 24 0;
#X restore 23 184 pd qlist_CTL;
#X msg 25 123 \; section-qlist-number 1 read mantraqlist.txt \; pd
dsp 1;
#X connect 0 0 6 0;
#X connect 2 0 1 0;
#X connect 3 0 2 0;
#X connect 4 0 6 0;
#X restore 18 240 pd reset;
#X floatatom 510 278 5 0 0 0 ring_R-pitch ring_R-pitch-set ring_R-pitch
0;
#N canvas -1866 0 758 720 audio-works 0;
#X obj 360 374 hilbert~;
#X obj 489 212 * 0.25;
#X obj 489 234 mtof;
#X obj 489 290 line~;
#X obj 473 316 *~;
#X obj 473 342 *~;
#X obj 489 268 * 0.206825;
#X obj 358 455 *~;
#X obj 395 464 *~;
#X obj 489 162 unpack;
#X obj 359 400 complex-mod~;
#X obj 26 378 hilbert~;
#X obj 137 229 * 0.25;
#X obj 137 251 mtof;
#X obj 139 296 line~;
#X obj 141 336 *~;
#X obj 141 358 *~;
#X obj 136 272 * 0.206825;
#X obj 27 453 *~;
#X obj 97 474 *~;
#X obj 139 179 unpack;
#X obj 26 409 complex-mod~;
#X obj 341 499 *~;
#X obj 12 503 *~;
#X obj 343 275 amp-linear~ tgp~;
#X floatatom 310 68 5 0 0 0 - - - 0;
#X obj 311 89 ftom;
#X floatatom 311 111 5 0 0 0 - - - 0;
#X obj 311 130 - 69;
#X obj 309 28 r tuning;
#X obj 138 205 + 0;
#X obj 489 187 + 0;
#X msg 309 48 \$1;
#X text 605 302 simple multiplication;
#X text 305 12 hilbert base frequency shifter;
#X obj 612 339 line~;
#X obj 611 319 mtof;
#X obj 612 359 osc~;
#X obj 614 427 *~;
#X obj 599 379 amp-quartic~ ring0;
#X obj 599 450 *~;
#X obj 584 474 *~;
#X obj 341 537 +~;
#N canvas 28 197 709 758 filter 0;
#X obj 46 457 inlet;
#X text 44 438 bypass;
#X obj 121 501 biquad~;
#X obj 188 234 filterview;
#X msg 364 182 highshelf;
#X msg 191 182 allpass;
#X msg 244 182 bandpass;
#X msg 304 182 highpass;
#X msg 430 182 lowpass;
#X msg 484 182 lowshelf;
#X msg 545 182 notch;
#X msg 587 182 peaking;
#X msg 641 182 resonant;
#X text 172 158 choose a filter type:;
#X floatatom 121 73 0 0 0 0 - - - 0;
#X floatatom 202 70 0 0 0 0 - - - 0;
#X obj 202 93 trigger bang float;
#X obj 18 554 outlet~;
#X obj 17 417 inlet~;
#X obj 121 130 ggee/highpass;
#X text 53 71 frequency;
#X text 228 67 bandwidth;
#X obj 18 484 slm.bypass;
#X obj 18 528 +~;
#X msg 60 35 200;
#X obj 53 13 loadbang;
#X obj 121 18 r highpass_R-freq;
#X obj 202 40 r highpass_R-bw;
#X msg 410 34 \; highpass_R-bw 20 \; highpass_R-freq 200 \;;
#X obj 123 572 *~ 0;
#X obj 157 542 == 0;
#X connect 0 0 22 1;
#X connect 0 0 30 0;
#X connect 2 0 29 0;
#X connect 3 0 2 0;
#X connect 4 0 3 0;
#X connect 5 0 3 0;
#X connect 6 0 3 0;
#X connect 7 0 3 0;
#X connect 8 0 3 0;
#X connect 9 0 3 0;
#X connect 10 0 3 0;
#X connect 11 0 3 0;
#X connect 12 0 3 0;
#X connect 14 0 19 0;
#X connect 15 0 16 0;
#X connect 16 0 14 0;
#X connect 16 1 19 1;
#X connect 18 0 22 0;
#X connect 19 0 2 0;
#X connect 22 0 23 0;
#X connect 22 1 2 0;
#X connect 23 0 17 0;
#X connect 24 0 14 0;
#X connect 25 0 24 0;
#X connect 26 0 14 0;
#X connect 27 0 15 0;
#X connect 29 0 23 1;
#X connect 30 0 29 1;
#X restore 341 561 pd filter;
#X obj 392 534 tgl 15 0 empty empty empty 17 7 0 10 #fcfcfc #000000
#000000 0 1;
#N canvas 172 650 709 758 filter 0;
#X obj 46 457 inlet;
#X text 44 438 bypass;
#X obj 121 501 biquad~;
#X obj 188 234 filterview;
#X msg 364 182 highshelf;
#X msg 191 182 allpass;
#X msg 244 182 bandpass;
#X msg 304 182 highpass;
#X msg 430 182 lowpass;
#X msg 484 182 lowshelf;
#X msg 545 182 notch;
#X msg 587 182 peaking;
#X msg 641 182 resonant;
#X text 172 158 choose a filter type:;
#X floatatom 121 73 0 0 0 0 - - - 0;
#X floatatom 202 70 0 0 0 0 - - - 0;
#X obj 202 93 trigger bang float;
#X obj 18 589 outlet~;
#X obj 17 417 inlet~;
#X obj 121 130 ggee/highpass;
#X text 53 71 frequency;
#X text 228 67 bandwidth;
#X obj 18 484 slm.bypass;
#X obj 18 563 +~;
#X msg 60 35 200;
#X obj 53 13 loadbang;
#X obj 121 18 r highpass_L-freq;
#X obj 202 40 r highpass_L-bw;
#X msg 410 34 \; highpass_L-bw 20 \; highpass_L-freq 200 \;;
#X obj 60 548 *~ 0;
#X obj 94 515 == 0;
#X obj 212 626 print~;
#X obj 209 569 bng 15 250 50 0 empty empty empty 17 7 0 10 #fcfcfc
#000000 #000000;
#X obj 271 593 print~;
#X obj 268 536 bng 15 250 50 0 empty empty empty 17 7 0 10 #fcfcfc
#000000 #000000;
#X connect 0 0 22 1;
#X connect 0 0 30 0;
#X connect 2 0 29 0;
#X connect 3 0 2 0;
#X connect 4 0 3 0;
#X connect 5 0 3 0;
#X connect 6 0 3 0;
#X connect 7 0 3 0;
#X connect 8 0 3 0;
#X connect 9 0 3 0;
#X connect 10 0 3 0;
#X connect 11 0 3 0;
#X connect 12 0 3 0;
#X connect 14 0 19 0;
#X connect 15 0 16 0;
#X connect 16 0 14 0;
#X connect 16 1 19 1;
#X connect 18 0 22 0;
#X connect 18 0 33 0;
#X connect 19 0 2 0;
#X connect 22 0 23 0;
#X connect 22 0 31 0;
#X connect 22 1 2 0;
#X connect 23 0 17 0;
#X connect 24 0 14 0;
#X connect 25 0 24 0;
#X connect 26 0 14 0;
#X connect 27 0 15 0;
#X connect 29 0 23 1;
#X connect 30 0 29 1;
#X connect 32 0 31 0;
#X connect 34 0 33 0;
#X restore 13 554 pd filter;
#X obj 102 532 tgl 15 0 empty empty empty 17 7 0 10 #fcfcfc #000000
#000000 0 1;
#X obj 487 140 r ring_R-pitch;
#X obj 360 349 r~ input-signal_R;
#X obj 378 420 amp-quartic~ ring_R-plus;
#X obj 416 440 amp-quartic~ ring_R-minus;
#X obj 139 156 r ring_L-pitch;
#X obj 26 352 r~ input-signal_L;
#X obj 40 427 amp-quartic~ ring_L-plus;
#X obj 112 447 amp-quartic~ ring_L-minus;
#X obj 392 509 r filter_R-bypass;
#X obj 389 615 send-vu vu-out_R meters;
#X obj 102 507 r filter_L-bypass;
#X obj 59 613 send-vu vu-out_L meters;
#X text 337 644 2=RIGHT;
#X text 9 637 1=LEFT;
#X obj 13 613 dac~ 1;
#X obj 340 616 dac~ 2;
#N canvas 542 615 625 282 compresseur 0;
#X obj 13 20 inlet~;
#X obj 15 254 outlet~;
#X obj 15 229 +~;
#X obj 12 77 slm.bypass;
#X obj 67 53 tgl 15 0 empty empty empty 17 7 0 10 #fcfcfc #000000 #000000
0 1;
#X obj 443 104 tgl 15 0 empty empty empty 17 7 0 10 #fcfcfc #000000
#000000 0 1;
#X msg 441 203 postattributes;
#X text 439 184 post value of all attributes;
#X obj 71 196 spat.limiter~ @numchannels 1;
#X floatatom 95 108 5 0 0 0 - - - 0;
#X floatatom 174 107 5 0 0 0 - - - 0;
#X msg 96 133 attack \$1;
#X msg 175 132 lookahead \$1;
#X floatatom 263 107 5 0 0 0 - - - 0;
#X floatatom 341 100 5 0 0 0 - - - 0;
#X msg 264 132 release \$1;
#X msg 343 130 threshold \$1;
#X msg 99 76 50;
#X msg 174 81 200;
#X msg 262 77 50;
#X msg 339 49 -30, f 5;
#X obj 183 40 loadbang;
#X obj 68 14 r compressor_L-bypass;
#X obj 362 73 r compressor_L-threshold;
#X obj 286 233 print~;
#X obj 292 206 bng 15 250 50 0 empty empty empty 17 7 0 10 #fcfcfc
#000000 #000000;
#X obj 443 129 list prepend mute;
#X obj 443 155 list trim;
#X connect 0 0 3 0;
#X connect 2 0 1 0;
#X connect 3 0 2 0;
#X connect 3 1 8 0;
#X connect 4 0 3 1;
#X connect 5 0 26 0;
#X connect 6 0 8 0;
#X connect 8 0 2 1;
#X connect 8 0 24 0;
#X connect 9 0 11 0;
#X connect 10 0 12 0;
#X connect 11 0 8 0;
#X connect 12 0 8 0;
#X connect 13 0 15 0;
#X connect 14 0 16 0;
#X connect 15 0 8 0;
#X connect 16 0 8 0;
#X connect 17 0 9 0;
#X connect 18 0 10 0;
#X connect 19 0 13 0;
#X connect 20 0 14 0;
#X connect 21 0 17 0;
#X connect 21 0 18 0;
#X connect 21 0 19 0;
#X connect 21 0 20 0;
#X connect 22 0 4 0;
#X connect 23 0 14 0;
#X connect 25 0 24 0;
#X connect 26 0 27 0;
#X connect 27 0 8 0;
#X restore 13 577 pd compresseur;
#N canvas 158 250 625 283 compresseur 0;
#X obj 13 11 inlet~;
#X obj 15 254 outlet~;
#X obj 15 229 +~;
#X obj 12 77 slm.bypass;
#X obj 68 46 tgl 15 0 empty empty empty 17 7 0 10 #fcfcfc #000000 #000000
0 1;
#X obj 443 103 tgl 15 0 empty empty empty 17 7 0 10 #fcfcfc #000000
#000000 0 1;
#X msg 439 192 postattributes;
#X text 437 173 post value of all attributes;
#X obj 69 211 spat.limiter~ @numchannels 1;
#X floatatom 95 108 5 0 0 0 - - - 0;
#X floatatom 174 107 5 0 0 0 - - - 0;
#X msg 96 133 attack \$1;
#X msg 175 132 lookahead \$1;
#X floatatom 263 107 5 0 0 0 - - - 0;
#X floatatom 342 106 5 0 0 0 - - - 0;
#X msg 264 132 release \$1;
#X msg 343 130 threshold \$1;
#X msg 99 76 50;
#X msg 174 81 200;
#X msg 262 77 50;
#X msg 341 76 -30, f 5;
#X obj 183 40 loadbang;
#X obj 67 9 r compressor_R-bypass;
#X obj 389 70 r compressor_R-threshold;
#X obj 442 129 list prepend mute;
#X obj 443 149 list trim;
#X connect 0 0 3 0;
#X connect 2 0 1 0;
#X connect 3 0 2 0;
#X connect 3 1 8 0;
#X connect 4 0 3 1;
#X connect 5 0 24 0;
#X connect 6 0 8 0;
#X connect 8 0 2 1;
#X connect 9 0 11 0;
#X connect 10 0 12 0;
#X connect 11 0 8 0;
#X connect 12 0 8 0;
#X connect 13 0 15 0;
#X connect 14 0 16 0;
#X connect 15 0 8 0;
#X connect 16 0 8 0;
#X connect 17 0 9 0;
#X connect 18 0 10 0;
#X connect 19 0 13 0;
#X connect 20 0 14 0;
#X connect 21 0 17 0;
#X connect 21 0 18 0;
#X connect 21 0 19 0;
#X connect 21 0 20 0;
#X connect 22 0 4 0;
#X connect 23 0 14 0;
#X connect 24 0 25 0;
#X connect 25 0 8 0;
#X restore 340 585 pd compresseur;
#X text 11 659 PIANO2;
#X text 340 662 PIANO1;
#X connect 0 0 10 0;
#X connect 0 1 10 1;
#X connect 1 0 2 0;
#X connect 2 0 6 0;
#X connect 3 0 4 0;
#X connect 3 0 4 1;
#X connect 4 0 5 0;
#X connect 4 0 5 1;
#X connect 5 0 10 2;
#X connect 6 0 3 0;
#X connect 7 0 22 1;
#X connect 8 0 22 1;
#X connect 9 0 31 0;
#X connect 9 1 3 1;
#X connect 9 1 35 1;
#X connect 10 0 7 0;
#X connect 10 1 8 0;
#X connect 11 0 21 0;
#X connect 11 1 21 1;
#X connect 12 0 13 0;
#X connect 13 0 17 0;
#X connect 14 0 15 0;
#X connect 14 0 15 1;
#X connect 15 0 16 0;
#X connect 15 0 16 1;
#X connect 16 0 21 2;
#X connect 17 0 14 0;
#X connect 18 0 23 1;
#X connect 19 0 23 1;
#X connect 20 0 30 0;
#X connect 20 1 14 1;
#X connect 21 0 18 0;
#X connect 21 1 19 0;
#X connect 22 0 42 0;
#X connect 23 0 45 0;
#X connect 24 0 23 0;
#X connect 24 0 22 0;
#X connect 24 0 41 0;
#X connect 25 0 26 0;
#X connect 26 0 27 0;
#X connect 27 0 28 0;
#X connect 28 0 30 1;
#X connect 28 0 31 1;
#X connect 29 0 32 0;
#X connect 30 0 12 0;
#X connect 31 0 1 0;
#X connect 31 0 36 0;
#X connect 32 0 25 0;
#X connect 35 0 37 0;
#X connect 36 0 35 0;
#X connect 37 0 38 0;
#X connect 38 0 40 1;
#X connect 39 0 40 0;
#X connect 40 0 41 1;
#X connect 41 0 42 1;
#X connect 42 0 43 0;
#X connect 43 0 64 0;
#X connect 44 0 43 1;
#X connect 45 0 63 0;
#X connect 46 0 45 1;
#X connect 47 0 9 0;
#X connect 48 0 0 0;
#X connect 48 0 38 1;
#X connect 49 0 7 1;
#X connect 50 0 8 1;
#X connect 51 0 20 0;
#X connect 52 0 11 0;
#X connect 53 0 18 1;
#X connect 54 0 19 1;
#X connect 55 0 44 0;
#X connect 57 0 46 0;
#X connect 63 0 58 0;
#X connect 63 0 61 0;
#X connect 64 0 56 0;
#X connect 64 0 62 0;
#X restore 201 198 pd audio-works;
#N canvas -1527 436 822 190 tests 0;
#X obj 27 58 inlet;
#X obj 153 52 inlet;
#X obj 27 84 != 0;
#X obj 27 110 * 0.03;
#X obj 153 79 != 0;
#X obj 153 106 * 0.03;
#X floatatom 224 78 5 0 0 0 - - - 0;
#X obj 224 103 s testtone-1;
#X obj 387 67 openpanel;
#X obj 387 43 bng 20 250 50 0 empty empty empty 0 -6 0 8 #fcfcfc #000000
#000000;
#X obj 387 88 symbol;
#X msg 385 114 open \$1;
#X obj 349 131 tgl 15 0 empty empty empty 17 7 0 10 #fcfcfc #000000
#000000 0 1;
#X obj 385 139 readsf~;
#X msg 320 18 open /Users/concert/Music/concerts/_Mantra/mantra2015/mantra-pd/snd/KS5.wav
\, 1, f 78;
#X obj 27 134 throw~ adc_R-addin;
#X obj 153 133 throw~ adc_L-addin;
#X obj 385 164 throw~ adc_R-addin;
#X obj 66 59 r test_R;
#X obj 193 52 r test_L;
#X connect 0 0 2 0;
#X connect 1 0 4 0;
#X connect 2 0 3 0;
#X connect 3 0 15 0;
#X connect 4 0 5 0;
#X connect 5 0 16 0;
#X connect 6 0 7 0;
#X connect 8 0 10 0;
#X connect 9 0 8 0;
#X connect 10 0 11 0;
#X connect 11 0 13 0;
#X connect 12 0 13 0;
#X connect 13 0 17 0;
#X connect 14 0 13 0;
#X connect 18 0 2 0;
#X connect 19 0 4 0;
#X restore 50 381 pd tests;
#X obj 517 74 vu 15 120 vu-out_R empty -1 -8 0 8 #404040 #000000 0
0;
#X obj 564 76 vu 15 120 vu-out_L empty -1 -8 0 8 #404040 #000000 0
0;
#X obj 50 359 tgl 15 0 empty empty empty 0 -6 0 8 #fcfcfc #000000 #000000
0 1;
#X obj 95 360 tgl 15 0 empty empty empty 0 -6 0 8 #fcfcfc #000000 #000000
0 1;
#X text 230 16 MANTRA;
#N canvas -1078 473 578 261 controls 0;
#X obj 371 18 r sl1_snd;
#X obj 336 79 ftom;
#X obj 464 40 mtof;
#X msg 465 62 set \$1;
#X obj 464 82 s sl1_rcv;
#X obj 347 209 ftom;
#X obj 472 162 mtof;
#X msg 473 184 set \$1;
#X obj 370 154 r sl2_snd;
#X obj 472 204 s sl2_rcv;
#X obj 170 18 setline ring_R-pitch;
#X obj 168 41 setline ring_R-plus;
#X obj 168 63 setline ring_R-minus;
#X obj 471 140 r ring_R-pitch;
#X obj 346 229 s ring_R-pitch;
#X obj 17 16 setline ring_L-pitch;
#X obj 17 40 setline ring_L-plus;
#X obj 17 64 setline ring_L-minus;
#X obj 336 101 s ring_L-pitch;
#X obj 463 18 r ring_L-pitch;
#X obj 177 158 setline highpass_R-freq;
#X obj 176 182 setline highpass_R-bw;
#X obj 176 203 setctl filter_R-bypass;
#X obj 17 158 setline highpass_L-freq;
#X obj 16 182 setline highpass_L-bw;
#X obj 16 203 setctl filter_L-bypass;
#X obj 16 88 setline ring_L-freq;
#X obj 167 87 setline ring_R-freq;
#X obj 371 59 s ring_L-freq;
#X obj 370 185 s ring_L-freq;
#X connect 0 0 1 0;
#X connect 0 0 28 0;
#X connect 1 0 18 0;
#X connect 2 0 3 0;
#X connect 3 0 4 0;
#X connect 5 0 14 0;
#X connect 6 0 7 0;
#X connect 7 0 9 0;
#X connect 8 0 5 0;
#X connect 8 0 29 0;
#X connect 13 0 6 0;
#X connect 19 0 2 0;
#X restore 201 351 pd controls;
#X floatatom 509 322 3 0 120 0 ring_R-plus ring_R-plus-set ring_R-plus
0;
#X floatatom 509 341 3 0 120 0 ring_R-minus ring_R-minus-set ring_R-minus
0;
#X floatatom 672 279 5 0 0 0 ring_L-pitch ring_L-pitch-set ring_L-pitch
0;
#X floatatom 672 319 3 0 120 0 ring_L-plus ring_L-plus-set ring_L-plus
0;
#X floatatom 672 338 3 0 120 0 ring_L-minus ring_L-minus-set ring_L-minus
0;
#X obj 381 76 vu 15 120 vu-in_R empty -1 -8 0 8 #404040 #000000 0 0
;
#X obj 430 76 vu 15 120 vu-in_L empty -1 -8 0 8 #404040 #000000 0 0
;
#X text 381 55 --input--;
#X text 547 51 -output-;
#N canvas 654 401 712 447 readsf 0;
#X obj 287 211 vsl 15 101 0 100 0 0 empty empty empty 0 -8 0 8 #fcfcfc
#000000 #000000 0 1;
#X floatatom 285 331 5 0 0 0 - - - 0;
#X obj 10 162 openpanel;
#X obj 10 138 bng 20 250 50 0 empty empty empty 0 -6 0 8 #fcfcfc #000000
#000000;
#X obj 77 240 symbol;
#X floatatom 79 340 5 0 0 0 - - - 0;
#X symbolatom 77 259 25 0 0 0 - - - 0;
#X obj 84 156 bng 20 250 50 0 empty empty empty 0 -6 0 8 #fcfcfc #000000
#000000;
#X text 72 136 restart;
#X floatatom 116 291 5 0 0 0 - - - 0;
#X text 116 274 start point;
#X obj 38 264 bng 20 250 50 0 empty empty empty 0 -6 0 8 #fcfcfc #000000
#000000;
#X text 38 247 stop;
#X obj 79 190 r sfreader-play;
#X obj 421 58 tgl 15 0 empty empty empty 17 7 0 10 #fcfcfc #000000
#000000 0 1;
#N canvas 1 31 392 313 loop 0;
#X obj 86 23 inlet;
#X obj 187 103 spigot;
#X obj 88 98 sel 0 1;
#X obj 145 220 s sfreader-play;
#X obj 145 194 b;
#X obj 41 223 s stop-disk;
#X obj 217 47 r readsf-sf-done;
#X obj 214 73 del 200;
#X connect 0 0 2 0;
#X connect 0 0 1 1;
#X connect 1 0 4 0;
#X connect 2 1 4 0;
#X connect 4 0 3 0;
#X connect 6 0 7 0;
#X connect 7 0 1 0;
#X restore 420 78 pd loop;
#X text 288 354 direct;
#X obj 422 27 r sfreader-loop;
#X obj 372 229 r test-loop-1;
#X obj 372 253 sel 1 0;
#X msg 403 285 \; sfreader-loop 0 \; stop-disk bang;
#N canvas 1006 23 720 477 sfplay-works 0;
#X obj 69 42 inlet;
#X obj 268 160 r reset;
#X msg 268 207 0;
#X obj 464 171 line~;
#X obj 447 296 *~;
#X obj 464 121 dbtorms;
#X obj 208 298 metro 1000;
#X obj 208 323 f;
#X obj 240 319 + 1;
#X obj 164 176 samplerate~;
#X obj 136 176 *;
#X obj 98 125 f;
#X msg 108 292 0;
#X obj 51 186 pack s 0;
#X msg 138 292 1;
#X text 297 210 stop;
#X obj 216 85 inlet;
#X obj 208 350 outlet;
#X obj 366 97 inlet;
#X obj 463 96 inlet;
#X obj 81 82 symbol;
#X obj 85 61 r restart-disk;
#X obj 253 138 r stop-disk;
#X obj 358 77 r disk-start-point;
#X obj 571 279 switch~;
#X obj 571 259 tgl 15 0 empty empty empty 0 -6 0 8 #fcfcfc #000000
#000000 0 1;
#X msg 567 231 1;
#X obj 81 102 t s b b b;
#X obj 607 208 r disk-pause;
#X obj 607 231 == 0;
#X obj 141 23 bng 15 250 50 0 empty empty empty 0 -6 0 8 #fcfcfc #000000
#000000;
#X obj 116 230 del 200;
#X obj 118 206 t b;
#X obj 117 249 1;
#X obj 58 337 s readsf-sf-done;
#X msg 293 264 1;
#X msg 28 232 open \$1 \$2;
#X obj 136 151 + 0;
#X obj 12 296 readsf~ 2;
#X obj 329 435 dac~ 1 3;
#X obj 390 390 *~ 12;
#X obj 404 430 send-vu vu-out_KW meters;
#X text 532 145 WAS 30 \, SET TO 10;
#X obj 464 146 pack 0 10;
#X connect 0 0 20 0;
#X connect 1 0 2 0;
#X connect 2 0 6 0;
#X connect 2 0 38 0;
#X connect 3 0 4 1;
#X connect 4 0 40 0;
#X connect 5 0 43 0;
#X connect 6 0 7 0;
#X connect 7 0 8 0;
#X connect 7 0 17 0;
#X connect 8 0 7 1;
#X connect 9 0 10 1;
#X connect 10 0 13 1;
#X connect 11 0 7 1;
#X connect 11 0 37 0;
#X connect 12 0 6 0;
#X connect 13 0 36 0;
#X connect 13 0 14 0;
#X connect 13 0 32 0;
#X connect 14 0 6 0;
#X connect 16 0 2 0;
#X connect 18 0 11 1;
#X connect 19 0 5 0;
#X connect 20 0 27 0;
#X connect 21 0 20 0;
#X connect 22 0 2 0;
#X connect 23 0 11 1;
#X connect 25 0 24 0;
#X connect 26 0 25 0;
#X connect 27 0 13 0;
#X connect 27 1 11 0;
#X connect 27 2 9 0;
#X connect 27 3 26 0;
#X connect 28 0 29 0;
#X connect 29 0 25 0;
#X connect 30 0 20 0;
#X connect 31 0 33 0;
#X connect 32 0 31 0;
#X connect 33 0 38 0;
#X connect 35 0 38 0;
#X connect 36 0 38 0;
#X connect 37 0 10 0;
#X connect 38 0 4 0;
#X connect 38 2 34 0;
#X connect 38 2 12 0;
#X connect 40 0 39 1;
#X connect 40 0 41 0;
#X connect 43 0 3 0;
#X restore 82 313 pd sfplay-works;
#X obj 286 155 loadbang;
#X msg 285 183 95;
#X obj 319 184 r sfplay_level;
#X msg 375 341 \; sfreader-loop 1 \; sfreader-play ./snd/KurzwellMantraOfficieel.wav
;
#X obj 42 10 r sfplay_;
#X obj 39 42 sel 1 0;
#X obj 6 13 tgl 15 0 empty empty empty 17 7 0 10 #fcfcfc #000000 #000000
0 1;
#X msg 100 31 \; sfreader-play ./snd/KurzwellMantraOfficieel.wav;
#X msg 10 83 \; sfreader-play ./snd/KurzwellMantraRemixSerge.aif;
#X obj 192 125 inlet;
#X connect 0 0 1 0;
#X connect 1 0 21 3;
#X connect 2 0 4 0;
#X connect 3 0 2 0;
#X connect 4 0 6 0;
#X connect 6 0 21 0;
#X connect 7 0 4 0;
#X connect 9 0 21 2;
#X connect 11 0 21 1;
#X connect 13 0 4 0;
#X connect 14 0 15 0;
#X connect 17 0 14 0;
#X connect 18 0 19 0;
#X connect 19 0 25 0;
#X connect 19 1 20 0;
#X connect 21 0 5 0;
#X connect 22 0 23 0;
#X connect 23 0 0 0;
#X connect 24 0 0 0;
#X connect 26 0 27 0;
#X connect 27 0 30 0;
#X connect 27 1 11 0;
#X connect 28 0 27 0;
#X connect 31 0 27 0;
#X restore 201 278 pd readsf;
#N canvas -1085 107 1033 614 samplor 0;
#X obj 241 450 loadbang;
#N canvas 105 410 1335 490 keygroupSyntax 0;
#X msg 179 143 1 D#0_F.mo 27 20 29 1 127 \, 2 G#0_F2.mo 32 30 34 1
127 \, 3 C#1.mo 37 35 39 1 127 \, 4 F1.mo 41 40 43 1 127 \, 5 C2.mo
48 44 50 1 127 \, 6 G2.mo 55 51 57 1 127 \, 7 C3.mo 60.1 58 62 1 127
\, 8 F#3.mo 66 63 68 1 127 \, 9 C4.mo 72 69 74 1 127 \, 10 F4.mo 77
75 79 1 127 \, 11 B4.mo 83 80 85 1 127 \, 12 F5.mo 89 86 89 1 127 \,
13 G5.mo 91 90 93 1 127 \, 14 B5.mo 95 94 97 1 127 \, 15 F6.mo 101
98 120 1 127;
#X msg 105 109 1 test2 60 48 72 65 127 100 222;
#X msg 49 73 1 test1 60 48 72 1 64 100 222;
#X obj 100 256 outlet;
#X text 67 27 <Channel soundname pitch minpitch maxpitch minvel maxvel
starttime endtime>;
#X connect 0 0 3 0;
#X connect 1 0 3 0;
#X connect 2 0 3 0;
#X restore 158 181 pd keygroupSyntax;
#X obj 51 283 tgl 15 0 empty empty empty 17 7 0 10 #fcfcfc #000000
#000000 0 1;
#X floatatom 294 179 0 0 0 0 - - - 0;
#X msg 61 170 clear;
#X obj 39 212 tgl 15 0 empty empty empty 17 7 0 10 #fcfcfc #000000
#000000 0 1;
#X msg 60 213 debug \$1;
#X msg 45 333 exportastext;
#N canvas 267 22 427 524 importMachFivePresets 0;
#X obj 8 481 outlet;
#X obj 99 479 outlet;
#X obj 8 29 bng 15 250 50 0 empty empty empty 17 7 0 10 #fcfcfc #000000
#000000;
#X obj 8 6 loadbang;
#X msg 40 365 import \$1;
#X obj 40 139 unpack s 0;
#X msg 40 80 ConcertGrndPnoClassical 1 \, Hp-ord.fxp 2 \, crotales
3 \, pacman 4 \, trombone 5 \, trompette 6 \, cor 7 \, pizzharpe 8
\, TubularBells 9;
#X obj 40 164 pack symbol s;
#X obj 8 48 t b b b;
#X msg 35 439 clear;
#X obj 75 200 ggee/getdir;
#X msg 75 250 set \$1;
#X obj 40 312 makefilename x;
#X obj 75 227 makefilename %s/lib/samplor/%%s.M5p;
#X connect 2 0 8 0;
#X connect 3 0 2 0;
#X connect 4 0 0 0;
#X connect 5 0 7 0;
#X connect 5 1 1 0;
#X connect 6 0 5 0;
#X connect 7 0 12 0;
#X connect 8 0 0 0;
#X connect 8 1 6 0;
#X connect 8 2 10 0;
#X connect 9 0 0 0;
#X connect 10 0 13 0;
#X connect 11 0 12 0;
#X connect 12 0 4 0;
#X connect 13 0 11 0;
#X restore 128 146 pd importMachFivePresets;
#X text 288 134 channel;
#X text 383 -27 pitch - vel - dur - onset -rise - decay- sample;
#X obj 706 368 r samp-note;
#X obj 742 447 mtof;
#X obj 741 470 / 261.6;
#X obj 843 474 / 127;
#X msg 387 1 \; samp-note 64 150 8000 0 10 50 pacman-a-1.aif;
#X obj 706 394 unpack 60 100 1000 0 10 50 s;
#X obj 706 514 pack 0 s 100 1000 0 10;
#X obj 706 420 t b f;
#X obj 706 538 s samplor_;
#X obj 145 408 r samplor_;
#X floatatom 29 91 5 0 0 0 - - - 0;
#N canvas 836 431 485 382 makenote+ 0;
#X obj 114 50 inlet;
#X msg 107 90 \$3 \$1 \$2;
#X obj 102 169 unpack 0 0;
#X obj 206 173 unpack 0 0;
#X obj 109 119 route 1 2 3;
#X obj 297 175 unpack 0 0;
#X obj 98 266 pack 0 0 1;
#X obj 197 270 pack 0 0 2;
#X obj 305 268 pack 0 0 3;
#X obj 116 312 unpack 0 0 1;
#X obj 77 346 outlet;
#X obj 156 346 outlet;
#X obj 198 382;
#X obj 216 346 outlet;
#X obj 47 208 makenote 60 1000;
#X obj 206 213 makenote 60 1000;
#X obj 341 216 makenote 60 1000;
#X obj 261 51 inlet;
#X connect 0 0 1 0;
#X connect 1 0 4 0;
#X connect 2 0 14 0;
#X connect 2 1 14 1;
#X connect 3 0 15 0;
#X connect 3 1 15 1;
#X connect 4 0 2 0;
#X connect 4 1 3 0;
#X connect 4 2 5 0;
#X connect 5 0 16 0;
#X connect 5 1 16 1;
#X connect 6 0 9 0;
#X connect 7 0 9 0;
#X connect 8 0 9 0;
#X connect 9 0 10 0;
#X connect 9 1 11 0;
#X connect 9 2 13 0;
#X connect 14 0 6 0;
#X connect 14 1 6 1;
#X connect 15 0 7 0;
#X connect 15 1 7 1;
#X connect 16 0 8 0;
#X connect 16 1 8 1;
#X connect 17 0 14 2;
#X connect 17 0 15 2;
#X connect 17 0 16 2;
#X restore 423 179 pd makenote+;
#X msg 241 476 adsr 2 1 100 1000;
#X obj 521 129 loadbang;
#X msg 386 39 \; samplor_ adsr 2 1 100 1000;
#X msg 581 38 \; samplor_ adsr 800 1 100 1;
#X obj 809 488 * 1;
#X msg 78 378 interpol 3;
#X msg 79 361 interpol 1;
#X obj 583 156 r s-notes-dur;
#X msg 51 301 velcurve \$1;
#X msg 521 154 1000;
#X floatatom 10 396 5 0 0 0 - - - 0;
#X msg 10 428 voice_stealing \$1;
#X obj 219 389 unpack 0 s 0 0 0 0;
#X obj 424 156 r s-notes+;
#X obj 325 176 unpack 0 0 0;
#X obj 326 152 r s-notes;
#X obj 310 335 r s-notes-dur;
#X floatatom 309 360 5 0 0 0 - - - 0;
#X msg 55 264 0;
#X obj 45 242 loadbang;
#X obj 219 420 pack 0 s 0 0 0 0;
#X msg 61 191 print 8;
#X obj 29 -2 tgl 15 0 empty empty empty 17 7 0 10 #fcfcfc #000000 #000000
0 1;
#X obj 28 -24 inlet;
#X msg 29 109 \; s-notes \$1 100 1 \;;
#X obj 154 -14 vu 15 120 vu-samplor empty -1 -8 0 8 #404040 #000000
0 0;
#N canvas 676 232 1301 944 sound-buffers 0;
#X obj 251 20 skg.buffer~ Piano_Stein_m_A0.aif;
#X obj 251 38 skg.buffer~ Piano_Stein_m_A1.aif;
#X obj 251 56 skg.buffer~ Piano_Stein_m_A4.aif;
#X obj 251 74 skg.buffer~ Piano_Stein_m_B2.aif;
#X obj 251 92 skg.buffer~ Piano_Stein_m_B3.aif;
#X obj 251 110 skg.buffer~ Piano_Stein_m_B6.aif;
#X obj 251 128 skg.buffer~ Piano_Stein_m_C#3.aif;
#X obj 251 146 skg.buffer~ Piano_Stein_m_C1.aif;
#X obj 251 164 skg.buffer~ Piano_Stein_m_C2.aif;
#X obj 251 182 skg.buffer~ Piano_Stein_m_C5.aif;
#X obj 251 200 skg.buffer~ Piano_Stein_m_C6.aif;
#X obj 251 218 skg.buffer~ Piano_Stein_m_C7.aif;
#X obj 251 236 skg.buffer~ Piano_Stein_m_D0.aif;
#X obj 251 254 skg.buffer~ Piano_Stein_m_D4.aif;
#X obj 251 272 skg.buffer~ Piano_Stein_m_E1.aif;
#X obj 251 290 skg.buffer~ Piano_Stein_m_E2.aif;
#X obj 251 308 skg.buffer~ Piano_Stein_m_E3.aif;
#X obj 251 326 skg.buffer~ Piano_Stein_m_E5.aif;
#X obj 251 344 skg.buffer~ Piano_Stein_m_E6.aif;
#X obj 251 362 skg.buffer~ Piano_Stein_m_F1.aif;
#X obj 251 380 skg.buffer~ Piano_Stein_m_F4.aif;
#X obj 251 398 skg.buffer~ Piano_Stein_m_G0.aif;
#X obj 251 416 skg.buffer~ Piano_Stein_m_G2.aif;
#X obj 251 434 skg.buffer~ Piano_Stein_m_G3.aif;
#X obj 251 452 skg.buffer~ Piano_Stein_m_G5.aif;
#X obj 251 470 skg.buffer~ Piano_Stein_m_G6.aif;
#X obj 251 488 skg.buffer~ Piano_Stein_p_A-1.aif;
#X obj 251 506 skg.buffer~ Piano_Stein_p_A0.aif;
#X obj 251 524 skg.buffer~ Piano_Stein_p_A1.aif;
#X obj 251 542 skg.buffer~ Piano_Stein_p_A4.aif;
#X obj 251 560 skg.buffer~ Piano_Stein_p_B2.aif;
#X obj 251 578 skg.buffer~ Piano_Stein_p_B3.aif;
#X obj 251 596 skg.buffer~ Piano_Stein_p_B6.aif;
#X obj 251 614 skg.buffer~ Piano_Stein_p_C#3.aif;
#X obj 251 632 skg.buffer~ Piano_Stein_p_C1.aif;
#X obj 251 650 skg.buffer~ Piano_Stein_p_C2.aif;
#X obj 251 668 skg.buffer~ Piano_Stein_p_C5_.aif;
#X obj 251 686 skg.buffer~ Piano_Stein_p_C7_.aif;
#X obj 251 704 skg.buffer~ Piano_Stein_p_D0.aif;
#X obj 251 722 skg.buffer~ Piano_Stein_p_D4.aif;
#X obj 251 740 skg.buffer~ Piano_Stein_p_E1.aif;
#X obj 251 758 skg.buffer~ Piano_Stein_p_E2.aif;
#X obj 251 776 skg.buffer~ Piano_Stein_p_E3.aif;
#X obj 251 794 skg.buffer~ Piano_Stein_p_E6_.aif;
#X obj 251 812 skg.buffer~ Piano_Stein_p_F1.aif;
#X obj 251 830 skg.buffer~ Piano_Stein_p_F4.aif;
#X obj 251 848 skg.buffer~ Piano_Stein_p_G0.aif;
#X obj 251 866 skg.buffer~ Piano_Stein_p_G2.aif;
#X obj 251 883 skg.buffer~ Piano_Stein_p_G3.aif;
#X obj 251 901 skg.buffer~ Piano_Stein_p_G6.aif;
#X obj 251 2 skg.buffer~ Piano_Stein_m_A-1.aif;
#X restore 208 2 pd sound-buffers;
#X floatatom 102 77 5 0 0 0 - - - 0;
#X obj 426 324 samplerate~;
#X floatatom 425 351 5 0 0 0 - - - 0;
#X obj 425 302 bng 15 250 50 0 empty empty empty 17 7 0 10 #fcfcfc
#000000 #000000;
#X obj 359 406 / 1;
#X obj 424 276 loadbang;
#X obj 425 372 / 44100;
#X obj 29 25 metro 400;
#X obj 352 555 send-vu vu-samplor meters;
#X msg 385 87 \; samplor_ 0 Piano_Stein_m_E3.aif 0 0 1.1036 0.620001
;
#X obj 118 555 throw~ adc_R-addin;
#X obj 235 554 throw~ adc_L-addin;
#X obj 70 -24 r test2_L;
#X obj 219 501 samplorpd~ 1 64;
#X obj 219 351 samplorkg;
#X obj 29 47 random 88;
#X obj 29 69 + 24;
#X obj 696 125 r chord;
#X msg 696 146 \; s-notes 25 117 1 \; s-notes 30 127 1 \; s-notes 35
127 1 \; s-notes 40 127 1 \; s-notes 45 127 1 \; s-notes 50 127 1 \;
s-notes 55 127 1 \; s-notes 60 127 1 \; s-notes 65 127 1 \; s-notes
70 127 1 \; s-notes 75 127 1 \; s-notes 80 127 1 \; s-notes 85 127
1 \; s-notes 90 127 1 \; s-notes 95 127 1 \; s-notes 100 127 1 \;;
#X obj 122 529 throw~ samplor~;
#X obj 745 124 r test2_R;
#X connect 0 0 23 0;
#X connect 1 0 64 0;
#X connect 2 0 31 0;
#X connect 3 0 64 2;
#X connect 4 0 64 0;
#X connect 5 0 6 0;
#X connect 6 0 64 0;
#X connect 7 0 64 0;
#X connect 8 0 64 0;
#X connect 8 1 3 0;
#X connect 11 0 16 0;
#X connect 12 0 13 0;
#X connect 13 0 17 4;
#X connect 13 0 27 0;
#X connect 14 0 17 5;
#X connect 16 0 18 0;
#X connect 16 1 14 0;
#X connect 16 2 27 1;
#X connect 16 3 17 2;
#X connect 16 6 17 1;
#X connect 17 0 19 0;
#X connect 18 0 17 0;
#X connect 18 1 12 0;
#X connect 20 0 63 0;
#X connect 21 0 47 0;
#X connect 22 0 64 0;
#X connect 22 1 64 1;
#X connect 22 2 64 2;
#X connect 23 0 63 0;
#X connect 24 0 32 0;
#X connect 27 0 17 3;
#X connect 28 0 63 0;
#X connect 29 0 63 0;
#X connect 30 0 22 1;
#X connect 31 0 64 0;
#X connect 32 0 22 1;
#X connect 33 0 34 0;
#X connect 34 0 63 0;
#X connect 35 0 43 0;
#X connect 35 1 43 1;
#X connect 35 2 43 2;
#X connect 35 4 54 0;
#X connect 35 5 43 5;
#X connect 36 0 22 0;
#X connect 37 0 64 0;
#X connect 37 1 64 1;
#X connect 37 2 64 2;
#X connect 38 0 37 0;
#X connect 39 0 40 0;
#X connect 40 0 43 3;
#X connect 41 0 2 0;
#X connect 42 0 41 0;
#X connect 43 0 63 0;
#X connect 44 0 64 0;
#X connect 45 0 57 0;
#X connect 46 0 45 0;
#X connect 50 0 66 1;
#X connect 51 0 52 0;
#X connect 52 0 56 0;
#X connect 53 0 51 0;
#X connect 54 0 43 4;
#X connect 55 0 53 0;
#X connect 56 0 54 1;
#X connect 57 0 65 0;
#X connect 62 0 45 0;
#X connect 63 0 58 0;
#X connect 63 0 69 0;
#X connect 64 0 35 0;
#X connect 65 0 66 0;
#X connect 66 0 21 0;
#X connect 67 0 68 0;
#X connect 70 0 68 0;
#X restore 48 430 pd samplor;
#N canvas 786 68 526 804 GUI 0;
#X obj 22 36 vsl 15 220 185 3520 1 1 sl1_snd sl1_rcv slider_piano1
-20 -20 0 10 #0400fc #f8fc00 #fc8000 429 1;
#X obj 124 24 vsl 15 220 55 3520 1 1 sl2_snd sl2_rcv slider_piano2
11 -6 0 10 #606060 #fcfcfc #fc8000 6692 1;
#X text 15 267 de solb2 à la6 (54->105);
#X text 122 249 de sib1 à la6 (46->105);
#X obj 32 358 int;
#X floatatom -16 478 5 0 0 0 - - - 0;
#X floatatom 54 485 5 0 0 0 - - - 0;
#X obj -7 525 i;
#X obj -23 504 bng 15 250 50 0 empty empty empty 17 7 0 10 #fcfcfc
#000000 #000000;
#X floatatom -10 567 5 0 0 0 - - - 0;
#X obj -1 422 abs;
#X obj 8 451 moses 0.05;
#X obj -9 592 sel 57 59 68 64 65 62 67 63 61 60 58 54;
#X msg -10 616 1;
#X msg 12 636 2;
#X msg 22 614 3;
#X msg 44 640 4;
#X msg 56 615 5;
#X msg 78 641 6;
#X msg 91 614 7;
#X msg 113 639 8;
#X msg 124 615 9;
#X msg 146 641 10;
#X msg 161 616 11;
#X msg 183 642 12;
#X msg 10 311 \$1;
#X obj 40 333 + 0.5;
#X obj 2 395 -;
#X obj 266 572 % 12;
#X obj 265 600 sel 0 1 2 3 4 5 6 7 8 9 10 11;
#X obj 10 287 r ring_R-pitch;
#X obj 90 436 s pitch_ecart_R;
#X obj 30 713 s pitch_label_R;
#X obj 252 726 s pitch_name_R;
#X msg 232 639 C;
#X msg 267 640 D;
#X msg 302 639 E;
#X msg 335 640 F#;
#X msg 372 641 G#;
#X msg 445 645 B;
#X msg 430 670 Bb;
#X msg 394 667 A;
#X msg 357 666 G;
#X msg 324 664 F;
#X msg 289 666 Eb;
#X msg 255 665 C#;
#X connect 4 0 7 1;
#X connect 4 0 27 1;
#X connect 4 0 28 0;
#X connect 5 0 8 0;
#X connect 6 0 32 0;
#X connect 7 0 9 0;
#X connect 8 0 7 0;
#X connect 9 0 12 0;
#X connect 10 0 11 0;
#X connect 11 0 5 0;
#X connect 11 1 6 0;
#X connect 12 0 13 0;
#X connect 12 1 14 0;
#X connect 12 2 15 0;
#X connect 12 3 16 0;
#X connect 12 4 17 0;
#X connect 12 5 18 0;
#X connect 12 6 19 0;
#X connect 12 7 20 0;
#X connect 12 8 21 0;
#X connect 12 9 22 0;
#X connect 12 10 23 0;
#X connect 12 11 24 0;
#X connect 13 0 32 0;
#X connect 14 0 32 0;
#X connect 15 0 32 0;
#X connect 16 0 32 0;
#X connect 17 0 32 0;
#X connect 18 0 32 0;
#X connect 19 0 32 0;
#X connect 20 0 32 0;
#X connect 21 0 32 0;
#X connect 22 0 32 0;
#X connect 23 0 32 0;
#X connect 24 0 32 0;
#X connect 25 0 26 0;
#X connect 25 0 27 0;
#X connect 26 0 4 0;
#X connect 27 0 10 0;
#X connect 27 0 31 0;
#X connect 28 0 29 0;
#X connect 29 0 34 0;
#X connect 29 1 45 0;
#X connect 29 2 35 0;
#X connect 29 3 44 0;
#X connect 29 4 36 0;
#X connect 29 5 43 0;
#X connect 29 6 37 0;
#X connect 29 7 42 0;
#X connect 29 8 38 0;
#X connect 29 9 41 0;
#X connect 29 10 40 0;
#X connect 29 11 39 0;
#X connect 30 0 25 0;
#X connect 34 0 33 0;
#X connect 35 0 33 0;
#X connect 36 0 33 0;
#X connect 37 0 33 0;
#X connect 38 0 33 0;
#X connect 39 0 33 0;
#X connect 40 0 33 0;
#X connect 41 0 33 0;
#X connect 42 0 33 0;
#X connect 43 0 33 0;
#X connect 44 0 33 0;
#X connect 45 0 33 0;
#X restore 201 301 pd GUI;
#N canvas 241 87 950 705 controllers-IPADS 0;
#X obj 18 97 print;
#X obj 16 72 spigot;
#X obj 49 15 tgl 15 0 empty empty empty 17 7 0 10 #fcfcfc #000000 #000000
0 1;
#X obj 112 182 symbol;
#X obj 338 170 symbol;
#X obj 578 166 mtof;
#X floatatom 14 317 5 0 0 0 - - - 0;
#X obj 13 272 loadbang;
#X floatatom 10 436 5 0 0 0 - - - 0;
#X obj 11 391 loadbang;
#X obj 677 167 mtof;
#N canvas 224 619 1459 221 IPAD-master 0;
#X obj 5 6 inlet;
#X obj 5 81 * 100;
#X obj 5 106 s tgp;
#X obj 221 93 * 100;
#X obj 122 94 * 100;
#X obj 51 116 s sfplay_level;
#X obj 52 74 nbx 5 14 -1e+37 1e+37 0 0 empty empty empty 0 -8 0 10
#fcfcfc #000000 #000000 0 256;
#X obj 52 93 * 100;
#X obj 285 105 s test_L-set;
#X obj 359 124 s test_R-set;
#X obj 436 108 s test2_L-set;
#X obj 483 132 s test2_R-set;
#X obj 587 163 s filter_L-bypass-set;
#X obj 674 147 s filter_R-bypass-set;
#X obj 777 169 s compressor_L-bypass-set;
#X obj 133 137 s ring_L-plus;
#X obj 122 157 s ring_L-minus;
#X obj 226 125 s ring_R-plus;
#X obj 218 155 s ring_R-minus;
#X obj 948 171 s sfplay_;
#X obj 5 53 route fader1 fader2 fader3 fader4;
#X obj 285 82 route test_L-set test_R-set test2_L-set test2_R-set;
#X obj 861 148 s compressor_R-bypass-set;
#X obj 587 105 route filter_L-bypass-set filter_R-bypass-set compressor_L-bypass-set
compressor_R-bypass-set sfplay fader5 fader6 fader7 fader8, f 136
;
#X obj 1036 164 s compressor_L-threshold-set;
#X obj 1140 183 s compressor_R-threshold-set;
#X obj 1038 133 scale 0 1 -60 0;
#X obj 1248 131 scale 0 1 0 120;
#X obj 1343 182 s subR-set;
#X obj 1248 157 s subL-set;
#X obj 587 128 == 0;
#X obj 676 128 == 0;
#X obj 774 127 == 0;
#X obj 863 127 == 0;
#X obj 1348 133 scale 0 1 0 120;
#X obj 1139 134 scale 0 1 -60 0;
#X obj 5 32 route master concert, f 34;
#X connect 0 0 36 0;
#X connect 1 0 2 0;
#X connect 3 0 17 0;
#X connect 3 0 18 0;
#X connect 4 0 15 0;
#X connect 4 0 16 0;
#X connect 6 0 7 0;
#X connect 7 0 5 0;
#X connect 20 0 1 0;
#X connect 20 1 6 0;
#X connect 20 2 4 0;
#X connect 20 3 3 0;
#X connect 20 4 21 0;
#X connect 21 0 8 0;
#X connect 21 1 9 0;
#X connect 21 2 10 0;
#X connect 21 3 11 0;
#X connect 21 4 23 0;
#X connect 23 0 30 0;
#X connect 23 1 31 0;
#X connect 23 2 32 0;
#X connect 23 3 33 0;
#X connect 23 4 19 0;
#X connect 23 5 26 0;
#X connect 23 6 35 0;
#X connect 23 7 27 0;
#X connect 23 8 34 0;
#X connect 26 0 24 0;
#X connect 27 0 29 0;
#X connect 30 0 12 0;
#X connect 31 0 13 0;
#X connect 32 0 14 0;
#X connect 33 0 22 0;
#X connect 34 0 28 0;
#X connect 35 0 25 0;
#X connect 36 0 20 0;
#X connect 36 1 20 0;
#X restore 396 112 pd IPAD-master;
#N canvas 78 220 570 346 IPAD-piano_R 0;
#X obj -30 -5 inlet;
#X floatatom -25 203 5 0 0 0 - - - 0;
#X obj 144 159 s sfplay_;
#X obj 252 273 s sfplay_level;
#X msg -23 224 \$1 75;
#X obj 34 151 ftom;
#X obj 253 187 tabread level-scale;
#X obj 253 165 nbx 5 14 -1e+37 1e+37 0 0 empty empty empty 0 -8 0 10
#fcfcfc #000000 #000000 0 256;
#X obj 373 187 table level-scale 127;
#X obj 253 208 + 1;
#X obj 253 233 * 50;
#X msg 259 116 \; level-scale read mantra-level-scale.txt;
#X obj 259 91 loadbang;
#X obj 368 276 s to_master_ipad;
#X obj 369 252 / 100;
#X obj -23 247 s ring_R-pitch;
#X obj 86 222 mtof;
#X obj 87 246 s ring_R-freq-set;
#X obj 144 131 route start level;
#X obj 67 43 unpack s s 0;
#X obj 67 67 float;
#X obj 66 91 pack 0 s 0;
#X obj -29 43 route 1 2 3;
#X obj -25 128 route pitch frequency;
#X obj 28 -9 route master 2p1 2p2 2p3 concert;
#X connect 0 0 24 0;
#X connect 1 0 4 0;
#X connect 1 0 16 0;
#X connect 4 0 15 0;
#X connect 5 0 1 0;
#X connect 6 0 9 0;
#X connect 7 0 6 0;
#X connect 9 0 10 0;
#X connect 10 0 3 0;
#X connect 10 0 14 0;
#X connect 12 0 11 0;
#X connect 14 0 13 0;
#X connect 16 0 17 0;
#X connect 18 0 2 0;
#X connect 18 1 7 0;
#X connect 19 0 20 0;
#X connect 19 1 21 1;
#X connect 19 2 21 2;
#X connect 20 0 21 0;
#X connect 21 0 22 0;
#X connect 22 0 23 0;
#X connect 22 1 23 0;
#X connect 22 2 18 0;
#X connect 22 3 19 0;
#X connect 23 0 1 0;
#X connect 23 1 5 0;
#X connect 24 5 22 0;
#X restore 192 109 pd IPAD-piano_R;
#N canvas -1534 196 812 315 IPAD-piano_L 0;
#X obj 12 12 inlet;
#X floatatom 125 188 5 0 0 0 - - - 0;
#X obj 203 99 ftom;
#X msg 125 208 \$1 75;
#X msg 412 34 \$1;
#X obj 427 58 + 0.5;
#X obj 427 79 int;
#X obj 412 109 - 0;
#X obj 102 104 ftom;
#X obj 542 112 % 12;
#X obj 541 140 sel 0 1 2 3 4 5 6 7 8 9 10 11;
#X obj 125 231 s ring_L-pitch;
#X obj 602 250 s pitch_name_L;
#X obj 412 13 r ring_L-pitch;
#X obj 412 132 s pitch_ecart_L;
#X msg 508 179 C;
#X msg 543 180 D;
#X msg 578 179 E;
#X msg 611 180 F#;
#X msg 648 181 G#;
#X msg 721 185 B;
#X msg 531 205 C#;
#X msg 565 206 Eb;
#X msg 600 204 F;
#X msg 633 206 G;
#X msg 670 207 A;
#X msg 706 210 Bb;
#X obj 250 228 s ring_L-freq-set;
#X obj 249 204 mtof;
#X obj 11 42 route 2p1 2p2 2p3, f 48;
#X obj 11 84 route pitch;
#X obj 102 82 route frequency;
#X obj 202 75 route pitch;
#X connect 0 0 29 0;
#X connect 1 0 3 0;
#X connect 1 0 28 0;
#X connect 2 0 1 0;
#X connect 3 0 11 0;
#X connect 4 0 5 0;
#X connect 4 0 7 0;
#X connect 5 0 6 0;
#X connect 6 0 7 1;
#X connect 6 0 9 0;
#X connect 7 0 14 0;
#X connect 8 0 1 0;
#X connect 9 0 10 0;
#X connect 10 0 15 0;
#X connect 10 1 21 0;
#X connect 10 2 16 0;
#X connect 10 3 22 0;
#X connect 10 4 17 0;
#X connect 10 5 23 0;
#X connect 10 6 18 0;
#X connect 10 7 24 0;
#X connect 10 8 19 0;
#X connect 10 9 25 0;
#X connect 10 10 26 0;
#X connect 10 11 20 0;
#X connect 13 0 4 0;
#X connect 15 0 12 0;
#X connect 16 0 12 0;
#X connect 17 0 12 0;
#X connect 18 0 12 0;
#X connect 19 0 12 0;
#X connect 20 0 12 0;
#X connect 21 0 12 0;
#X connect 22 0 12 0;
#X connect 23 0 12 0;
#X connect 24 0 12 0;
#X connect 25 0 12 0;
#X connect 26 0 12 0;
#X connect 28 0 27 0;
#X connect 29 0 30 0;
#X connect 29 0 31 0;
#X connect 29 1 30 0;
#X connect 29 2 32 0;
#X connect 30 0 1 0;
#X connect 31 0 8 0;
#X connect 32 0 2 0;
#X restore 292 109 pd IPAD-piano_L;
#X obj 12 158 r pitch_label_R;
#X obj 113 155 r pitch_name_R;
#X obj 222 151 r pitch_ecart_R;
#X obj 338 148 r pitch_name_L;
#X obj 432 148 r pitch_ecart_L;
#X obj 677 145 r ring_L-pitch;
#X obj 578 145 r ring_R-pitch;
#X floatatom 14 561 5 0 0 0 - - - 0;
#X obj 15 516 loadbang;
#X text 54 316 back to ipad 1 (R):;
#X text 47 438 back to ipad 2 (L):;
#X text 49 559 back to ipad Master :;
#X obj 772 145 r to_master_ipad;
#X msg 10 455 disconnect \, connect 129.255.1.\$1 9006;
#X msg 11 414 22, f 10;
#X msg 13 297 2;
#X obj 275 369 netsend -u -b;
#X obj 366 491 netsend -u -b;
#X obj 74 19 netreceive -u -b 8006;
#X obj 208 19 netreceive -u -b 8007;
#X obj 344 19 netreceive -u -b 9998;
#X obj 226 49 oscparse;
#X obj 225 72 list trim;
#X obj 532 632 netsend -u -b;
#X obj 772 167 nbx 5 14 -1e+37 1e+37 0 0 empty empty empty 0 -8 0 10
#fcfcfc #000000 #000000 0 256;
#X obj 772 187 oscformat /master/fader2;
#X obj 365 332 list trim;
#X obj 339 223 oscformat /2p1/pitchDisplay;
#X obj 11 205 oscformat /1/note;
#X obj 113 229 oscformat /1/pitchDisplay;
#X obj 222 195 oscformat /1/fineTune;
#X obj 432 179 oscformat /2p1/fineTune;
#X obj 578 191 oscformat /1/frequency;
#X obj 678 256 oscformat /2p1/frequency;
#X obj 365 311 list prepend send;
#X msg 14 336 disconnect \, connect 192.168.1.\$1 7777;
#X obj 773 210 oscformat /concert/fader2;
#X msg 14 581 disconnect \, connect 192.168.1.\$1 6667;
#X msg 15 539 19;
#X obj 753 335 nbx 5 14 -1e+37 1e+37 0 0 empty empty empty 0 -8 0 10
#fcfcfc #000000 #000000 0 256;
#X obj 758 379 oscformat /2p1/pitch;
#X obj 611 322 nbx 5 14 -1e+37 1e+37 0 0 empty empty empty 0 -8 0 10
#fcfcfc #000000 #000000 0 256;
#X obj 612 358 oscformat /1/pitch;
#X obj 604 469 list trim;
#X obj 604 448 list prepend send;
#X connect 1 0 0 0;
#X connect 2 0 1 1;
#X connect 3 0 43 0;
#X connect 4 0 41 0;
#X connect 5 0 46 0;
#X connect 6 0 49 0;
#X connect 7 0 29 0;
#X connect 8 0 27 0;
#X connect 9 0 28 0;
#X connect 10 0 47 0;
#X connect 14 0 42 0;
#X connect 15 0 3 0;
#X connect 16 0 44 0;
#X connect 17 0 4 0;
#X connect 18 0 45 0;
#X connect 19 0 10 0;
#X connect 19 0 53 0;
#X connect 20 0 5 0;
#X connect 20 0 55 0;
#X connect 21 0 51 0;
#X connect 22 0 52 0;
#X connect 26 0 38 0;
#X connect 27 0 31 0;
#X connect 28 0 8 0;
#X connect 29 0 6 0;
#X connect 32 0 35 0;
#X connect 33 0 35 0;
#X connect 34 0 35 0;
#X connect 35 0 1 0;
#X connect 35 0 36 0;
#X connect 36 0 11 0;
#X connect 36 0 13 0;
#X connect 36 0 12 0;
#X connect 38 0 39 0;
#X connect 38 0 50 0;
#X connect 39 0 48 0;
#X connect 40 0 30 0;
#X connect 40 0 31 0;
#X connect 40 0 37 0;
#X connect 41 0 48 0;
#X connect 42 0 48 0;
#X connect 43 0 48 0;
#X connect 44 0 48 0;
#X connect 45 0 48 0;
#X connect 46 0 48 0;
#X connect 47 0 48 0;
#X connect 48 0 40 0;
#X connect 49 0 30 0;
#X connect 50 0 48 0;
#X connect 51 0 37 0;
#X connect 52 0 21 0;
#X connect 53 0 54 0;
#X connect 54 0 58 0;
#X connect 55 0 56 0;
#X connect 56 0 58 0;
#X connect 57 0 37 0;
#X connect 58 0 57 0;
#X restore 201 327 pd controllers-IPADS;
#X floatatom 235 78 3 430 450 0 tuning tuning-set tuning 0;
#N canvas 1049 251 375 166 pitches 0;
#X msg 210 58 set \$1;
#X obj 210 81 symbol;
#X msg 67 81 set \$1;
#X obj 68 58 symbol;
#X obj 67 105 outlet;
#X obj 210 104 outlet;
#X obj 68 35 r pitch_name_R;
#X obj 210 35 r pitch_name_L;
#X connect 0 0 5 0;
#X connect 1 0 0 0;
#X connect 2 0 4 0;
#X connect 3 0 2 0;
#X connect 6 0 3 0;
#X connect 7 0 1 0;
#X restore 513 221 pd pitches;
#X msg 513 247 G;
#X msg 570 247 G;
#X obj 48 410 tgl 15 0 empty empty empty 17 7 0 10 #fcfcfc #000000
#000000 0 1;
#X text 13 202 TO START :;
#X floatatom 510 369 3 0 120 0 ring0 ring0-set ring0 0;
#X floatatom 510 391 5 0 0 0 highpass_R-freq highpass_R-freq-set highpass_R-freq
0;
#X floatatom 510 413 3 0 120 0 highpass_R-bw highpass_R-bw-set highpass_R-bw
0;
#X floatatom 510 435 3 0 1 0 filter_R-bypass filter_R-bypass-set filter_R-bypass
0;
#X floatatom 513 459 3 0 1 0 compressor_R-bypass compressor_R-bypass-set
compressor_R-bypass 0;
#X msg 18 216 reset;
#X text 286 14 serge.lemouton@ircam.fr;
#X floatatom 672 367 3 0 120 0 ring0 ring0-set ring0 0;
#X floatatom 672 389 5 0 0 0 highpass_L-freq highpass_L-freq-set highpass_L-freq
0;
#X floatatom 672 411 3 0 120 0 highpass_L-bw highpass_L-bw-set highpass_L-bw
0;
#X floatatom 672 433 3 0 1 0 filter_L-bypass filter_L-bypass-set filter_L-bypass
0;
#X floatatom 672 455 3 0 1 0 compressor_L-bypass compressor_L-bypass-set
compressor_L-bypass 0;
#X floatatom 75 125 3 0 130 1 MASTER-OUT - tgp 0;
#X floatatom 73 101 3 0 130 1 MASTER-IN - atten 0;
#X obj 288 76 tgl 18 0 meters set-meters meters 24 8 0 12 #fcfcfc #000000
#000000 0 1;
#X obj 77 154 tgl 20 0 mute set-mute mute 24 8 0 12 #fcfcfc #000000
#000000 0 1;
#N canvas 254 216 1022 250 GAIN 0;
#X obj 54 199 outlet;
#X obj 54 173 setmsg;
#X obj 54 146 speedlim 200;
#X obj 102 116 s tgp~;
#X obj 53 81 line 0 30;
#X obj 53 40 r tgp;
#X obj 115 41 r master-level;
#X obj 299 44 r atten;
#X obj 299 171 setmsg;
#X obj 300 143 speedlim 200;
#X obj 299 78 line 0 30;
#X obj 299 197 outlet;
#X obj 348 113 s atten~;
#X obj 396 29 loadbang;
#X msg 396 51 100;
#X obj 501 161 setmsg;
#X obj 502 133 speedlim 200;
#X obj 501 68 line 0 30;
#X obj 501 187 outlet;
#X obj 501 34 r sub;
#X obj 618 24 loadbang;
#X msg 618 46 0;
#X obj 550 104 s subL;
#X obj 608 105 s subR;
#X connect 1 0 0 0;
#X connect 2 0 1 0;
#X connect 4 0 2 0;
#X connect 4 0 3 0;
#X connect 5 0 4 0;
#X connect 6 0 4 0;
#X connect 7 0 10 0;
#X connect 8 0 11 0;
#X connect 9 0 8 0;
#X connect 10 0 9 0;
#X connect 10 0 12 0;
#X connect 13 0 14 0;
#X connect 14 0 10 0;
#X connect 15 0 18 0;
#X connect 16 0 15 0;
#X connect 17 0 16 0;
#X connect 17 0 22 0;
#X connect 17 0 23 0;
#X connect 19 0 17 0;
#X connect 20 0 21 0;
#X connect 21 0 17 0;
#X restore 34 74 pd GAIN;
#N canvas -1358 81 558 542 audio-inputs 0;
#X floatatom 22 51 0 0 0 0 - - - 0;
#X obj 386 29 unpack 0 0;
#X obj 386 6 r testtone;
#X obj 19 447 *~;
#X obj 425 332 r atten~;
#X obj 425 414 line~;
#X obj 19 237 +~;
#X obj 22 28 mtof;
#X floatatom 22 5 0 0 0 0 - - - 0;
#X obj 209 7 r reset;
#X obj 22 75 osc~ 440;
#X obj 425 389 pack 0 50;
#X obj 425 361 dbtorms;
#X obj 19 376 hip~ 5;
#X obj 225 450 *~;
#X obj 19 160 *~ 0;
#X obj 225 221 +~;
#X obj 19 415 +~;
#X obj 226 419 +~;
#X obj 225 380 hip~ 5;
#X obj 442 98 s testtone-pitch;
#X obj 386 53 rmstodb;
#X obj 23 99 s~ testtone-osc;
#X obj 19 129 r~ testtone-osc;
#X obj 62 172 dbtorms;
#X obj 224 157 *~ 0;
#X obj 224 126 r~ testtone-osc;
#X obj 267 169 dbtorms;
#X obj 56 6 r testtone-pitch;
#X obj 72 374 catch~ adc_R-addin;
#X obj 31 485 send-vu vu-in_R meters;
#X obj 62 150 r testtone-R;
#X obj 267 147 r testtone-L;
#X msg 209 32 \; testtone-pitch 69 \; testtone-R 0 \; testtone-L 0
;
#X obj 386 76 s testtone-R;
#X obj 18 507 s~ input-signal_R;
#X obj 280 381 catch~ adc_L-addin;
#X obj 237 483 send-vu vu-in_L meters;
#X obj 226 505 s~ input-signal_L;
#X obj 19 353 +~;
#X obj 225 340 +~;
#X obj 35 204 adc~ 1;
#X obj 251 190 adc~ 2;
#N canvas 85 378 813 615 filterSUB 0;
#X obj 121 501 biquad~;
#X msg 364 182 highshelf;
#X msg 191 182 allpass;
#X msg 244 182 bandpass;
#X msg 304 182 highpass;
#X msg 430 182 lowpass;
#X msg 484 182 lowshelf;
#X msg 545 182 notch;
#X msg 587 182 peaking;
#X msg 641 182 resonant;
#X text 172 158 choose a filter type:;
#X floatatom 121 73 0 0 0 0 - - - 0;
#X floatatom 201 69 0 0 0 0 - - - 0;
#X obj 202 93 trigger bang float;
#X obj 120 573 outlet~;
#X obj 75 470 inlet~;
#X text 53 71 frequency;
#X text 228 67 bandwidth;
#X msg 60 35 200;
#X obj 121 130 ggee/lowpass;
#X obj 201 39 r lowpass_SUB-bw;
#X obj 121 18 r lowpass_SUB-freq;
#X obj 361 17 loadbang;
#X msg 361 66 \; lowpass_SUB-bw 100 \; lowpass_SUB-freq 150 \;;
#X obj 180 532 line~;
#X obj 180 507 pack 0 50;
#X obj 180 479 dbtorms;
#X obj 180 457 r subR;
#X obj 120 548 *~;
#X obj 303 530 nbx 5 14 -1e+37 1e+37 0 0 empty empty empty 0 -8 0 10
#fcfcfc #000000 #000000 0 256;
#X connect 0 0 28 0;
#X connect 11 0 19 0;
#X connect 12 0 13 0;
#X connect 13 0 11 0;
#X connect 13 1 19 1;
#X connect 15 0 0 0;
#X connect 18 0 11 0;
#X connect 19 0 0 0;
#X connect 20 0 12 0;
#X connect 21 0 11 0;
#X connect 24 0 28 1;
#X connect 25 0 24 0;
#X connect 26 0 25 0;
#X connect 26 0 29 0;
#X connect 27 0 26 0;
#X connect 28 0 14 0;
#X restore 91 281 pd filterSUB;
#X obj 135 191 catch~ samplor~;
#N canvas -944 218 711 584 filterSUB 0;
#X obj 121 501 biquad~;
#X msg 364 182 highshelf;
#X msg 191 182 allpass;
#X msg 244 182 bandpass;
#X msg 304 182 highpass;
#X msg 430 182 lowpass;
#X msg 484 182 lowshelf;
#X msg 545 182 notch;
#X msg 587 182 peaking;
#X msg 641 182 resonant;
#X text 172 158 choose a filter type:;
#X floatatom 121 73 0 0 0 0 - - - 0;
#X floatatom 201 69 0 0 0 0 - - - 0;
#X obj 202 93 trigger bang float;
#X obj 120 548 outlet~;
#X obj 73 464 inlet~;
#X text 53 71 frequency;
#X text 228 67 bandwidth;
#X msg 60 35 200;
#X obj 121 130 ggee/lowpass;
#X obj 201 39 r lowpass_SUB-bw;
#X obj 121 18 r lowpass_SUB-freq;
#X obj 187 494 line~;
#X obj 187 469 pack 0 50;
#X obj 187 441 dbtorms;
#X obj 121 527 *~;
#X obj 187 412 r subL;
#X connect 0 0 25 0;
#X connect 11 0 19 0;
#X connect 12 0 13 0;
#X connect 13 0 11 0;
#X connect 13 1 19 1;
#X connect 15 0 0 0;
#X connect 18 0 11 0;
#X connect 19 0 0 0;
#X connect 20 0 12 0;
#X connect 21 0 11 0;
#X connect 22 0 25 1;
#X connect 23 0 22 0;
#X connect 24 0 23 0;
#X connect 25 0 14 0;
#X connect 26 0 24 0;
#X restore 287 280 pd filterSUB;
#X connect 0 0 10 0;
#X connect 1 0 21 0;
#X connect 1 1 20 0;
#X connect 2 0 1 0;
#X connect 3 0 30 0;
#X connect 3 0 35 0;
#X connect 4 0 12 0;
#X connect 5 0 3 1;
#X connect 5 0 14 1;
#X connect 6 0 39 0;
#X connect 7 0 0 0;
#X connect 8 0 7 0;
#X connect 9 0 33 0;
#X connect 10 0 22 0;
#X connect 11 0 5 0;
#X connect 12 0 11 0;
#X connect 13 0 17 0;
#X connect 14 0 37 0;
#X connect 14 0 38 0;
#X connect 15 0 6 0;
#X connect 16 0 40 0;
#X connect 17 0 3 0;
#X connect 18 0 14 0;
#X connect 19 0 18 0;
#X connect 21 0 34 0;
#X connect 23 0 15 0;
#X connect 24 0 15 1;
#X connect 25 0 16 0;
#X connect 26 0 25 0;
#X connect 27 0 25 1;
#X connect 28 0 8 0;
#X connect 29 0 17 1;
#X connect 31 0 24 0;
#X connect 32 0 27 0;
#X connect 36 0 18 1;
#X connect 39 0 13 0;
#X connect 40 0 19 0;
#X connect 41 0 6 1;
#X connect 41 0 43 0;
#X connect 42 0 16 1;
#X connect 42 0 45 0;
#X connect 43 0 39 1;
#X connect 44 0 6 1;
#X connect 44 0 43 0;
#X connect 44 0 16 1;
#X connect 44 0 45 0;
#X connect 45 0 40 1;
#X restore 201 175 pd audio-inputs;
#X obj 201 221 tgl 50 0 empty empty empty 17 7 0 10 #fcfcfc #000000
#000000 0 1;
#X text 376 201 RIGHT;
#X text 420 201 LEFT;
#X text 510 201 RIGHT;
#X text 554 201 LEFT;
#X obj 606 75 vu 15 120 vu-out_KW empty -1 -8 0 8 #404040 #000000 0
0;
#X text 604 200 KW;
#X floatatom 509 298 5 0 0 0 ring_R-freq ring_R-freq-set ring_R-freq
0;
#X floatatom 671 299 5 0 0 0 ring_L-freq ring_L-freq-set ring_L-freq
0;
#X floatatom 49 303 3 0 1 0 test_R test_R-set test_R 0;
#X floatatom 121 302 3 0 1 0 test_L test_L-set test_L 0;
#X floatatom 50 335 3 0 1 0 test2_R test2_R-set test2_R 0;
#X floatatom 121 335 3 0 1 0 test2_L test2_L-set test2_L 0;
#X text 287 30 juillet 2022 64bit version;
#X obj 8 504 declare -path ./lib -path ./lib/samplor -path ./snd -path
../snd -path ., f 76;
#X msg 136 420 \; chord bang;
#X floatatom 513 479 3 -60 0 0 compressor_R-threshold compressor_R-threshold-set
compressor_R-threshold 0;
#X floatatom 672 480 3 -60 0 0 compressor_L-threshold compressor_L-threshold-set
compressor_L-threshold 0;
#X text 402 101 -0-;
#X text 399 136 -12-;
#X text 399 148 -20-;
#X text 399 179 -60-;
#X text 402 122 -6-;
#X text 399 163 -30-;
#X text 538 102 -0-;
#X text 535 136 -12-;
#X text 535 148 -20-;
#X text 535 179 -60-;
#X text 537 124 -6-;
#X text 535 163 -30-;
#X floatatom 510 499 0 0 120 0 subR subR-set subR 0;
#X floatatom 672 499 5 0 100 0 subL subL-set subL 0;
#X connect 6 0 3 0;
#X connect 7 0 3 1;
#X connect 24 0 25 0;
#X connect 24 1 26 0;
#X connect 27 0 20 0;
#X connect 34 0 0 0;
#X connect 45 0 41 0;
#X connect 45 1 42 0;
#X connect 47 0 19 0;
#X coords 0 0 1 1 85 60 0;
